<svg viewBox="0 0 385.12 305.52" xmlns:xlink="http://www.w3.org/1999/xlink" xmlns="http://www.w3.org/2000/svg"><defs><style>.cls-1{opacity:0.28;}.cls-2{fill:#cde9f9;}.cls-3{opacity:0.46;}.cls-4{fill:#aecfdc;}.cls-5{fill:#7ccaf1;}.cls-6{fill:url(#未命名的渐变_28);}.cls-7{fill:#17a1db;}.cls-8{fill:#e7f6fd;}.cls-9{fill:url(#未命名的渐变_4);}.cls-10{fill:#fff;}.cls-11{fill:url(#未命名的渐变_37);}.cls-12{fill:#bd8aae;}.cls-13{fill:#306097;}.cls-14{fill:#3c7fbe;}.cls-15{fill:url(#未命名的渐变_4-2);}.cls-16{fill:#222457;}.cls-17{fill:url(#未命名的渐变_28-2);}.cls-18{fill:#2a2f6d;}.cls-19{fill:url(#未命名的渐变_19);}.cls-20{fill:url(#未命名的渐变_19-2);}.cls-21{fill:none;stroke:#c4cacb;stroke-miterlimit:10;stroke-width:1.85px;}.cls-22{fill:#fde0d9;}.cls-23{fill:url(#未命名的渐变_37-2);}.cls-24{fill:#fdfefe;}.cls-25{opacity:0.5;}.cls-26{fill:url(#未命名的渐变_18);}.cls-27{fill:url(#未命名的渐变_19-3);}.cls-28{fill:url(#未命名的渐变_19-4);}.cls-29{fill:url(#未命名的渐变_37-3);}.cls-30{fill:url(#未命名的渐变_28-3);}.cls-31{fill:url(#未命名的渐变_28-4);}.cls-32{fill:url(#未命名的渐变_28-5);}.cls-33{fill:url(#未命名的渐变_28-6);}.cls-34{fill:url(#未命名的渐变_37-4);}.cls-35{fill:url(#未命名的渐变_37-5);}.cls-36{fill:url(#未命名的渐变_37-6);}.cls-37{fill:url(#未命名的渐变_37-7);}</style><linearGradient gradientUnits="userSpaceOnUse" gradientTransform="matrix(1, 0, 0, -1, 0, -345.67)" y2="-467.99" x2="354.91" y1="-467.99" x1="180.55" id="未命名的渐变_28"><stop stop-color="#21409a" offset="0"></stop><stop stop-opacity="0" stop-color="#29abe2" offset="1"></stop></linearGradient><linearGradient gradientUnits="userSpaceOnUse" gradientTransform="matrix(1, 0, 0, -1, 0, -345.67)" y2="-473.67" x2="347.91" y1="-473.67" x1="244.58" id="未命名的渐变_4"><stop stop-color="#21285a" offset="0.52"></stop><stop stop-opacity="0.61" stop-color="#21295a" offset="0.71"></stop><stop stop-opacity="0.47" stop-color="#222d5e" offset="0.77"></stop><stop stop-opacity="0.37" stop-color="#233463" offset="0.82"></stop><stop stop-opacity="0.29" stop-color="#253e6b" offset="0.86"></stop><stop stop-opacity="0.22" stop-color="#274a77" offset="0.89"></stop><stop stop-opacity="0.16" stop-color="#2a5986" offset="0.92"></stop><stop stop-opacity="0.1" stop-color="#2e6d9a" offset="0.95"></stop><stop stop-opacity="0.05" stop-color="#2f85b5" offset="0.97"></stop><stop stop-opacity="0.01" stop-color="#2ca5d9" offset="1"></stop><stop stop-opacity="0" stop-color="#29abe2" offset="1"></stop></linearGradient><linearGradient gradientUnits="userSpaceOnUse" gradientTransform="matrix(1, 0, 0, -1, 0, -345.67)" y2="-451.42" x2="277.42" y1="-451.42" x1="244.87" id="未命名的渐变_37"><stop stop-color="#28a8e0" offset="0.06"></stop><stop stop-opacity="0" stop-color="#29abe2" offset="1"></stop></linearGradient><linearGradient xlink:href="#未命名的渐变_4" y2="-423.98" x2="238.52" y1="-423.98" x1="193.32" id="未命名的渐变_4-2"></linearGradient><linearGradient xlink:href="#未命名的渐变_28" y2="-425.02" x2="232.21" y1="-425.02" x1="187.01" id="未命名的渐变_28-2"></linearGradient><linearGradient gradientUnits="userSpaceOnUse" gradientTransform="matrix(1, 0, 0, -1, 0, -345.67)" y2="-490.22" x2="124.54" y1="-490.22" x1="106.09" id="未命名的渐变_19"><stop stop-color="#6b385f" offset="0"></stop><stop stop-opacity="0.73" stop-color="#6f3b62" offset="0.42"></stop><stop stop-opacity="0.6" stop-color="#764268" offset="0.52"></stop><stop stop-opacity="0.39" stop-color="#8c567a" offset="0.69"></stop><stop stop-opacity="0.11" stop-color="#b5799b" offset="0.91"></stop><stop stop-opacity="0" stop-color="#cc8dae" offset="1"></stop></linearGradient><linearGradient xlink:href="#未命名的渐变_19" y2="-440.85" x2="189.41" y1="-440.85" x1="163.15" id="未命名的渐变_19-2"></linearGradient><linearGradient xlink:href="#未命名的渐变_37" y2="-473.02" x2="190.97" y1="-473.02" x1="90.09" id="未命名的渐变_37-2"></linearGradient><linearGradient gradientUnits="userSpaceOnUse" gradientTransform="matrix(1, 0, 0, -1, 0, -345.67)" y2="-484.6" x2="140.57" y1="-484.6" x1="98.08" id="未命名的渐变_18"><stop stop-color="#fff" offset="0.42"></stop><stop stop-opacity="0" stop-color="#2484c6" offset="1"></stop></linearGradient><linearGradient xlink:href="#未命名的渐变_19" y2="-502.9" x2="172.3" y1="-502.9" x1="153.85" id="未命名的渐变_19-3"></linearGradient><linearGradient xlink:href="#未命名的渐变_19" y2="-512.85" x2="249.36" y1="-512.85" x1="223.11" id="未命名的渐变_19-4"></linearGradient><linearGradient xlink:href="#未命名的渐变_37" y2="-569.64" x2="236.57" y1="-569.64" x1="190.9" id="未命名的渐变_37-3"></linearGradient><linearGradient xlink:href="#未命名的渐变_28" y2="-563.67" x2="321.13" y1="-563.67" x1="270.63" id="未命名的渐变_28-3"></linearGradient><linearGradient xlink:href="#未命名的渐变_28" y2="-565.94" x2="312.73" y1="-565.94" x1="269.3" id="未命名的渐变_28-4"></linearGradient><linearGradient xlink:href="#未命名的渐变_28" y2="-597.78" x2="311.35" y1="-597.78" x1="311.29" id="未命名的渐变_28-5"></linearGradient><linearGradient xlink:href="#未命名的渐变_28" y2="-574.48" x2="321.13" y1="-574.48" x1="311.37" id="未命名的渐变_28-6"></linearGradient><linearGradient xlink:href="#未命名的渐变_37" y2="-583.69" x2="328.1" y1="-583.69" x1="279.06" id="未命名的渐变_37-4"></linearGradient><linearGradient xlink:href="#未命名的渐变_37" y2="-586.03" x2="319.7" y1="-586.03" x1="277.45" id="未命名的渐变_37-5"></linearGradient><linearGradient xlink:href="#未命名的渐变_37" y2="-617.88" x2="318.91" y1="-617.88" x1="318.85" id="未命名的渐变_37-6"></linearGradient><linearGradient xlink:href="#未命名的渐变_37" y2="-594.17" x2="328.1" y1="-594.17" x1="320.59" id="未命名的渐变_37-7"></linearGradient></defs><g id="图层_2"><g id="图层_1-2"><g id="sideflooring"><g class="cls-1"><path d="M210.3,302.93,73.6,233.15a6.22,6.22,0,0,1,0-11.38l151.67-77.41a18.29,18.29,0,0,1,16.36,0l139.76,71c5,2.52,5,8.85,0,11.38L232.17,302.93A24.34,24.34,0,0,1,210.3,302.93Z" class="cls-2"></path></g><g class="cls-3"><path d="M73.86,111.63,5.8,146.28c-2.58,1.31-5.8-.34-5.8-3V124.69a3.37,3.37,0,0,1,1.94-3L70,87.07c2.58-1.31,5.8.34,5.8,3v18.62A3.36,3.36,0,0,1,73.86,111.63Z" class="cls-2"></path></g><g class="cls-3"><path d="M158,82.89,89.91,117.54c-2.58,1.31-5.8-.33-5.8-3V96a3.37,3.37,0,0,1,1.94-3l68.06-34.65c2.58-1.32,5.8.33,5.8,3V79.93A3.37,3.37,0,0,1,158,82.89Z" class="cls-2"></path></g><g class="cls-3"><path d="M164.33,45.32,96.27,80c-2.58,1.31-5.8-.33-5.8-3V58.38a3.38,3.38,0,0,1,1.94-3l68.06-34.64c2.58-1.32,5.8.33,5.8,3V42.35A3.37,3.37,0,0,1,164.33,45.32Z" class="cls-2"></path></g></g><g id="gradientbg"><path d="M367.82,92V229a6.52,6.52,0,0,1-3.8,5.76l-9.11,4.54-2.15-128.52-.26-15.3L180.55,5.37,189,1.06a10,10,0,0,1,9,0L363.73,85.7A7.58,7.58,0,0,1,367.1,89,6.5,6.5,0,0,1,367.82,92Z" class="cls-2"></path><path d="M367.82,92V229a6.52,6.52,0,0,1-3.8,5.76l-9.11,4.54-2.15-128.52V96.14L367.1,89A6.5,6.5,0,0,1,367.82,92Z" class="cls-4"></path><path d="M180.55,145.72V5.37L349.16,91.45a10,10,0,0,1,5.75,8.8v139l-169.75-86.5A8,8,0,0,1,180.55,145.72Z" class="cls-5"></path><path d="M180.55,145.72V5.37L349.16,91.45a10,10,0,0,1,5.75,8.8v139l-169.75-86.5A8,8,0,0,1,180.55,145.72Z" class="cls-6"></path></g><g id="data"><path d="M189.73,112.23l39.59,20.21a5,5,0,0,1,2.89,4.43V137c0,1.58-1.94,2.57-3.49,1.78l-39.53-20.18a3.8,3.8,0,0,1-2.18-3.34v-1.59A1.83,1.83,0,0,1,189.73,112.23Z" class="cls-7"></path><path d="M189.73,121.89l39.59,20.21a5,5,0,0,1,2.89,4.42v.08a2.34,2.34,0,0,1-3.49,1.79L189.19,128.2a3.78,3.78,0,0,1-2.18-3.33v-1.59A1.82,1.82,0,0,1,189.73,121.89Z" class="cls-8"></path><path d="M189.73,131.32l39.59,20.21a5,5,0,0,1,2.89,4.42V156a2.33,2.33,0,0,1-3.49,1.78l-39.53-20.18a3.8,3.8,0,0,1-2.18-3.34V132.7A1.82,1.82,0,0,1,189.73,131.32Z" class="cls-7"></path><path d="M189.73,141l39.59,20.21a5,5,0,0,1,2.89,4.43v.08c0,1.58-1.94,2.57-3.49,1.78l-39.53-20.18A3.8,3.8,0,0,1,187,144v-1.59A1.82,1.82,0,0,1,189.73,141Z" class="cls-7"></path></g><g id="browser2"><path d="M246.87,53.89,346,104.48a3.39,3.39,0,0,1,2,3v92c0,2.19-2.68,3.55-4.82,2.46l-95-48.51a6.09,6.09,0,0,1-3.5-5.34v-93A1.54,1.54,0,0,1,246.87,53.89Z" class="cls-9"></path><path d="M241,56l99.1,50.59a3.41,3.41,0,0,1,1.94,3v92c0,2.19-2.67,3.55-4.81,2.46l-95-48.5a6.1,6.1,0,0,1-3.49-5.35v-93A1.53,1.53,0,0,1,241,56Z" class="cls-10"></path><path d="M244.87,75.33v46.39a4.17,4.17,0,0,0,2.42,3.68l25.24,12.68c2.18,1.1,4.89-.29,4.89-2.51V90.2a4.38,4.38,0,0,0-2.56-3.87l-26.15-13C247,72.49,244.87,73.59,244.87,75.33Z" class="cls-11"></path><path d="M283.81,94.32l.06,14.34a3.55,3.55,0,0,0,2,3.11l46,23.61c1.6.83,3.62-.2,3.62-1.84V119.71a3.83,3.83,0,0,0-2.2-3.37L287,92.68A2.14,2.14,0,0,0,283.81,94.32Z" class="cls-12"></path><path d="M286.71,118.91l46.73,23.85a3.66,3.66,0,0,1,2.1,3.22v1a2.29,2.29,0,0,1-3.42,1.74L285.72,125a3.32,3.32,0,0,1-1.92-2.93v-1.67A2,2,0,0,1,286.71,118.91Z" class="cls-12"></path><path d="M283.87,134v27.69a3.28,3.28,0,0,0,1.89,2.89L306.27,175a2.28,2.28,0,0,0,3.4-1.73V146.13a4,4,0,0,0-2.27-3.47L287,132.35A2.12,2.12,0,0,0,283.87,134Z" class="cls-13"></path><path d="M316.16,150.47v27.44a3.75,3.75,0,0,0,2.14,3.28l13.58,6.93c1.62.83,3.66-.21,3.66-1.87V159.82a4.8,4.8,0,0,0-2.74-4.2l-13.36-6.82A2.2,2.2,0,0,0,316.16,150.47Z" class="cls-14"></path><path d="M258.78,137.38c-5.33-2.69-9.69-.5-9.69,4.88s4.36,12,9.69,14.78,9.68.56,9.68-4.88S264.11,140.07,258.78,137.38Z" class="cls-14"></path><path d="M238.67,61.16l103.29,53v-4.62a3.34,3.34,0,0,0-1.91-2.93L240.92,56a1.51,1.51,0,0,0-2.25,1.15v4Z" class="cls-14"></path><path d="M243.17,58.78c-.93-.47-1.7-.08-1.7.86a3.3,3.3,0,0,0,1.7,2.59c.94.49,1.7.1,1.7-.85A3.25,3.25,0,0,0,243.17,58.78Z" class="cls-10"></path><path d="M248.62,61.62c-.93-.47-1.7-.09-1.7.86a3.3,3.3,0,0,0,1.7,2.59c.94.48,1.7.1,1.7-.86A3.24,3.24,0,0,0,248.62,61.62Z" class="cls-8"></path><path d="M254,64.21c-.94-.47-1.7-.08-1.7.86a3.3,3.3,0,0,0,1.7,2.6c.93.48,1.7.09,1.7-.86A3.28,3.28,0,0,0,254,64.21Z" class="cls-2"></path></g><g id="browser1"><path d="M197.8,29.69,236,49.2A4.38,4.38,0,0,1,238.52,53v71.08c0,2.43-3,4-5.37,2.74l-37.47-19.13a4.13,4.13,0,0,1-2.36-3.62V32C193.32,30,195.81,28.67,197.8,29.69Z" class="cls-15"></path><path d="M191.49,30.74l38.21,19.5a4.38,4.38,0,0,1,2.51,3.85v71.07c0,2.44-3,4-5.37,2.74l-37.47-19.13a4.1,4.1,0,0,1-2.36-3.61V33C187,31,189.5,29.72,191.49,30.74Z" class="cls-16"></path><path d="M191.49,30.74l38.21,19.5a4.38,4.38,0,0,1,2.51,3.85v71.07c0,2.44-3,4-5.37,2.74l-37.47-19.13a4.1,4.1,0,0,1-2.36-3.61V33C187,31,189.5,29.72,191.49,30.74Z" class="cls-17"></path><polygon points="190.12 36.17 190.12 37.25 195.25 39.87 195.25 38.78 190.12 36.17" class="cls-2"></polygon><polygon points="190.12 38.14 190.12 39.22 195.25 41.84 195.25 40.76 190.12 38.14" class="cls-2"></polygon><polygon points="190.12 40.12 190.12 41.2 195.25 43.81 195.25 42.73 190.12 40.12" class="cls-2"></polygon><polygon points="228.86 62.93 228.86 61.85 197.18 45.69 197.18 46.77 228.86 62.93" class="cls-2"></polygon><polygon points="190.12 42.09 190.12 43.17 195.25 45.79 195.25 44.71 190.12 42.09" class="cls-2"></polygon><polygon points="190.12 44.06 190.12 45.14 195.25 47.76 195.25 46.68 190.12 44.06" class="cls-2"></polygon><polygon points="228.86 64.9 228.86 63.82 197.18 47.66 197.18 48.74 228.86 64.9" class="cls-2"></polygon><polygon points="190.12 49.98 190.12 51.06 195.25 53.68 195.25 52.6 190.12 49.98" class="cls-2"></polygon><polygon points="190.12 51.96 190.12 53.04 195.25 55.66 195.25 54.58 190.12 51.96" class="cls-2"></polygon><polygon points="190.12 59.85 190.12 60.93 195.25 63.55 195.25 62.47 190.12 59.85" class="cls-2"></polygon><polygon points="190.12 61.83 190.12 62.91 195.25 65.53 195.25 64.44 190.12 61.83" class="cls-2"></polygon><polygon points="217.16 75.62 197.18 65.43 197.18 66.51 217.16 76.7 217.16 75.62" class="cls-2"></polygon><polygon points="218.22 76.16 218.22 77.24 228.86 82.66 228.86 81.58 218.22 76.16" class="cls-2"></polygon><polygon points="207.22 68.57 197.18 63.45 197.18 64.53 207.22 69.66 207.22 68.57" class="cls-2"></polygon><polygon points="208.27 69.11 208.27 70.19 228.86 80.69 228.86 79.61 208.27 69.11" class="cls-2"></polygon><polygon points="226.15 72.31 226.15 73.39 228.86 74.77 228.86 73.69 226.15 72.31" class="cls-2"></polygon><polygon points="211.41 62.82 197.18 55.56 197.18 56.64 211.41 63.9 211.41 62.82" class="cls-2"></polygon><polygon points="205.58 44.05 197.18 39.77 197.18 40.85 205.58 45.13 205.58 44.05" class="cls-2"></polygon><polygon points="219.35 51.08 206.63 44.59 206.63 45.67 219.35 52.16 219.35 51.08" class="cls-2"></polygon><polygon points="211.94 49.27 202.98 44.7 202.98 45.78 211.94 50.35 211.94 49.27" class="cls-2"></polygon><polygon points="221.34 54.06 212.99 49.81 212.99 50.89 221.34 55.14 221.34 54.06" class="cls-2"></polygon><polygon points="222.39 54.6 222.39 55.68 228.86 58.98 228.86 57.9 222.39 54.6" class="cls-2"></polygon><polygon points="198.83 44.56 198.83 45.64 205.58 49.08 205.58 48 198.83 44.56" class="cls-2"></polygon><polygon points="226.22 58.53 206.63 48.54 206.63 49.62 226.22 59.61 226.22 58.53" class="cls-2"></polygon><polygon points="215 58.73 202.21 52.2 202.21 53.28 215 59.81 215 58.73" class="cls-2"></polygon><polygon points="226.22 64.45 216.06 59.27 216.06 60.35 226.22 65.53 226.22 64.45" class="cls-2"></polygon><polygon points="225.1 69.8 212.47 63.35 212.47 64.44 225.1 70.88 225.1 69.8" class="cls-2"></polygon><polygon points="218.22 68.26 218.22 69.34 225.1 72.85 225.1 71.77 218.22 68.26" class="cls-2"></polygon><polygon points="199.65 58.8 197.18 57.53 197.18 58.61 199.65 59.88 199.65 58.8" class="cls-2"></polygon><polygon points="204.29 61.16 204.29 62.24 217.16 68.81 217.16 67.72 204.29 61.16" class="cls-2"></polygon><polygon points="203.24 60.62 200.71 59.33 200.71 60.41 203.24 61.7 203.24 60.62" class="cls-2"></polygon><polygon points="214.78 68.48 200.71 61.31 200.71 62.39 214.78 69.56 214.78 68.48" class="cls-2"></polygon><polygon points="190.12 67.49 190.12 68.57 195.25 71.19 195.25 70.11 190.12 67.49" class="cls-12"></polygon><polygon points="190.12 69.46 190.12 70.54 195.25 73.16 195.25 72.08 190.12 69.46" class="cls-12"></polygon><polygon points="190.12 71.44 190.12 72.52 195.25 75.13 195.25 74.05 190.12 71.44" class="cls-12"></polygon><polygon points="228.86 94.25 228.86 93.17 197.18 77.01 197.18 78.09 228.86 94.25" class="cls-12"></polygon><polygon points="190.12 73.41 190.12 74.49 195.25 77.11 195.25 76.03 190.12 73.41" class="cls-12"></polygon><polygon points="190.12 75.38 190.12 76.46 195.25 79.08 195.25 78 190.12 75.38" class="cls-12"></polygon><polygon points="228.86 96.22 228.86 95.14 197.18 78.98 197.18 80.06 228.86 96.22" class="cls-12"></polygon><polygon points="190.12 81.3 190.12 82.39 195.25 85 195.25 83.92 190.12 81.3" class="cls-12"></polygon><polygon points="190.12 83.28 190.12 84.36 195.25 86.98 195.25 85.9 190.12 83.28" class="cls-12"></polygon><polygon points="190.12 91.17 190.12 92.25 195.25 94.87 195.25 93.79 190.12 91.17" class="cls-12"></polygon><polygon points="190.12 93.15 190.12 94.23 195.25 96.84 195.25 95.77 190.12 93.15" class="cls-12"></polygon><polygon points="217.16 106.94 197.18 96.75 197.18 97.83 217.16 108.02 217.16 106.94" class="cls-12"></polygon><polygon points="218.22 107.48 218.22 108.56 228.86 113.98 228.86 112.9 218.22 107.48" class="cls-12"></polygon><polygon points="207.22 99.89 197.18 94.77 197.18 95.85 207.22 100.97 207.22 99.89" class="cls-12"></polygon><polygon points="208.27 100.43 208.27 101.51 228.86 112.01 228.86 110.93 208.27 100.43" class="cls-12"></polygon><polygon points="226.15 103.63 226.15 104.71 228.86 106.09 228.86 105.01 226.15 103.63" class="cls-12"></polygon><polygon points="211.41 94.14 197.18 86.88 197.18 87.96 211.41 95.22 211.41 94.14" class="cls-12"></polygon><polygon points="205.58 75.37 197.18 71.09 197.18 72.17 205.58 76.45 205.58 75.37" class="cls-12"></polygon><polygon points="219.35 82.4 206.63 75.91 206.63 76.99 219.35 83.48 219.35 82.4" class="cls-12"></polygon><polygon points="211.94 80.59 202.98 76.02 202.98 77.1 211.94 81.67 211.94 80.59" class="cls-12"></polygon><polygon points="221.34 85.38 212.99 81.13 212.99 82.21 221.34 86.46 221.34 85.38" class="cls-12"></polygon><polygon points="222.39 85.92 222.39 87 228.86 90.3 228.86 89.22 222.39 85.92" class="cls-12"></polygon><polygon points="198.83 75.88 198.83 76.96 205.58 80.4 205.58 79.32 198.83 75.88" class="cls-12"></polygon><polygon points="226.22 89.85 206.63 79.86 206.63 80.94 226.22 90.93 226.22 89.85" class="cls-12"></polygon><polygon points="215 90.05 202.21 83.52 202.21 84.6 215 91.13 215 90.05" class="cls-12"></polygon><polygon points="226.22 95.77 216.06 90.59 216.06 91.67 226.22 96.85 226.22 95.77" class="cls-12"></polygon><polygon points="225.1 101.12 212.47 94.67 212.47 95.76 225.1 102.2 225.1 101.12" class="cls-12"></polygon><polygon points="218.22 99.58 218.22 100.66 225.1 104.17 225.1 103.09 218.22 99.58" class="cls-12"></polygon><polygon points="199.65 90.11 197.18 88.85 197.18 89.93 199.65 91.2 199.65 90.11" class="cls-12"></polygon><polygon points="204.29 92.48 204.29 93.56 217.16 100.13 217.16 99.05 204.29 92.48" class="cls-12"></polygon><polygon points="203.24 91.94 200.71 90.65 200.71 91.73 203.24 93.03 203.24 91.94" class="cls-12"></polygon><polygon points="214.78 99.81 200.71 92.63 200.71 93.71 214.78 100.89 214.78 99.81" class="cls-12"></polygon><path d="M198.88,102a.93.93,0,0,0-.2.69v1.55c0,.29-.11.45-.31.47a1.76,1.76,0,0,1-.89-.27v1.06a2.92,2.92,0,0,1,.89.64,1.21,1.21,0,0,1,.31.83v1.49a1.86,1.86,0,0,0,.19.9,2.21,2.21,0,0,0,.61.72,6.22,6.22,0,0,0,1.16.72v-1a2.08,2.08,0,0,1-.65-.51,1.08,1.08,0,0,1-.17-.6v-1.49a2,2,0,0,0-1.07-1.57v0c.71.26,1.06.08,1.08-.53v-1.43q0-.34.18-.42c.11,0,.32,0,.64.15v-1a4.79,4.79,0,0,0-1.15-.45A.67.67,0,0,0,198.88,102Z" class="cls-2"></path><path d="M205.57,108.35a1.16,1.16,0,0,1-.3-.78V106a1.86,1.86,0,0,0-.44-1.26,4.92,4.92,0,0,0-1.52-1.08v1a1.74,1.74,0,0,1,.65.5,1,1,0,0,1,.17.6v1.43a2,2,0,0,0,1.08,1.63v.06a1.18,1.18,0,0,0-.8-.08.53.53,0,0,0-.28.55v1.48c0,.23-.06.37-.17.43a1.05,1.05,0,0,1-.65-.16v1a3.09,3.09,0,0,0,1.53.48c.29,0,.44-.32.44-.81v-1.5c0-.31.1-.48.31-.51a1.8,1.8,0,0,1,.89.26V109A3,3,0,0,1,205.57,108.35Z" class="cls-2"></path><path d="M209.87,107.42a1,1,0,0,0-.2.69v1.56c0,.28-.11.44-.31.46a1.76,1.76,0,0,1-.89-.27v1.06a2.77,2.77,0,0,1,.89.65,1.18,1.18,0,0,1,.31.82v1.49a2,2,0,0,0,.19.9,2.21,2.21,0,0,0,.61.72,6.76,6.76,0,0,0,1.16.73v-1a2,2,0,0,1-.65-.51,1,1,0,0,1-.16-.6v-1.49a1.93,1.93,0,0,0-1.07-1.56V111c.71.26,1.06.08,1.08-.53v-1.43q0-.35.18-.42c.11,0,.32,0,.64.15v-1a4.79,4.79,0,0,0-1.15-.45A.67.67,0,0,0,209.87,107.42Z" class="cls-2"></path><path d="M216.56,113.81a1.16,1.16,0,0,1-.3-.78v-1.55a1.82,1.82,0,0,0-.44-1.26,4.92,4.92,0,0,0-1.52-1.08v1a1.84,1.84,0,0,1,.65.5,1.08,1.08,0,0,1,.17.6v1.43a2.06,2.06,0,0,0,1.09,1.63v.06a1.14,1.14,0,0,0-.81-.07c-.19.08-.28.26-.28.55v1.47c0,.23-.06.38-.17.43a1.05,1.05,0,0,1-.65-.16v1a3,3,0,0,0,1.53.48q.44-.07.45-.81v-1.5c0-.31.11-.48.31-.51a1.78,1.78,0,0,1,.89.26v-1A3,3,0,0,1,216.56,113.81Z" class="cls-2"></path><path d="M190.86,32.86a1.48,1.48,0,0,0,.76,1.17c.42.22.76,0,.76-.39a1.45,1.45,0,0,0-.76-1.16C191.2,32.27,190.86,32.44,190.86,32.86Z" class="cls-8"></path><path d="M193.3,34.14a1.49,1.49,0,0,0,.77,1.16c.42.22.76.05.76-.38a1.46,1.46,0,0,0-.76-1.17C193.65,33.54,193.3,33.71,193.3,34.14Z" class="cls-8"></path><path d="M196.48,34.92c-.42-.21-.77,0-.77.38a1.49,1.49,0,0,0,.77,1.17c.42.22.76,0,.76-.39A1.45,1.45,0,0,0,196.48,34.92Z" class="cls-8"></path></g><g id="robot"><path d="M104.74,225.72c-20.1-10.26-20.1-27.11,0-37.45s53-10.33,73.1,0,20.1,27.19,0,37.45S124.85,236,104.74,225.72Z" class="cls-18"></path><ellipse ry="12.72" rx="9.23" cy="144.55" cx="115.32" class="cls-19"></ellipse><path d="M166.49,128a34.54,34.54,0,0,1-5,4.88A58.18,58.18,0,0,1,118,145.31c-2.75-.34-4.59-2.75-3.87-5l1-3.32L114,140.66l.11-.36a4.29,4.29,0,0,1,4.76-2.69A48.69,48.69,0,0,0,155.31,127c9.41-7.54,10.44-18.39,10.29-23.84a3.89,3.89,0,0,1,3.73-3.82h0c2.68-.29,5.12,1.57,5.19,3.93C174.69,109,173.77,119.23,166.49,128Z" class="cls-2"></path><path d="M175,81.71s-9.91,4.29-11.54,12,4.14,15.44,11.54,15,14.44-6.15,14.44-6.15l-4.15-8.35s-4.67,4.61-9,4.8-7.25-7.71,2-11.3Z" class="cls-20"></path><path d="M191.56,194V177.33L176.14,179c-6.89-2.59-15.35-3.86-24.3-3.86v.67c1.43,0,2.84,0,4.22.09a160.93,160.93,0,0,0-18.77,1,101.32,101.32,0,0,1,14.55-1.06v-.67h0c-14.65,0-30.62,3.39-43.19,9.89-.89.46-1.74.94-2.57,1.41l-16.56,1.76V208h0c.28,5.39,3.92,10.4,11.11,14.12,7.49,3.88,17.68,5.76,28.6,5.76,14.65,0,30.62-3.39,43.18-9.89s19.15-14.82,19.1-22.43A9.33,9.33,0,0,0,191.56,194Zm-72.72,32.62c-2.29-.29-4.49-.67-6.58-1.14C114.52,226,116.71,226.32,118.84,226.62ZM112,225.43l-.26-.06Z" class="cls-18"></path><polyline points="185.41 156.67 187.49 169.31 173.93 191.69" class="cls-21"></polyline><path d="M181.29,161.88s.61-3.29,3.11-3.48a1.62,1.62,0,0,0,.95-.6c.33-.49.52.37.15,1.12l-.38.75s1.95-1.52,1.73-2,1.89.19,1.66,1.32,1.24,1.75.68,3.7-1.7,3.82-3.88,4.09S181.29,161.88,181.29,161.88Z" class="cls-22"></path><path d="M140.91,125.52v-6.84c0-4-2.25-7.35-10.1-5.36s-9.51,7-6.89,12.2a20.69,20.69,0,0,0,3.87,5.7v6.42l9.53-.6-.44-3.58C142.6,132,140.91,125.52,140.91,125.52Z" class="cls-22"></path><path d="M115.31,156.67l-3.7-4.75s2.62-12.73,6.89-14.6c7.77-3.42,28-4.75,38,2s8,27,12.58,26.23,12.63-4.71,12.63-4.71,4.41-.22,3.58,5.92c0,0-12.65,15-22.09,15.9s-18.75-11.4-18.75-11.4Z" class="cls-12"></path><path d="M178.36,191.38s-11.47-40.65-18.77-42c-6.24-1.2-46.61-2.46-58.24-2.81a6.39,6.39,0,0,0-5.61,2.76,10.33,10.33,0,0,0-1.47,8.08c1.55,6.68,12.31,25.6,6.26,39.92C100.53,197.28,126.33,210.45,178.36,191.38Z" class="cls-16"></path><ellipse ry="2.41" rx="2.73" cy="157.5" cx="185.72" class="cls-18"></ellipse><path d="M137.72,122.62a1.92,1.92,0,0,0-1.33-1.13c-.94-.14-.83,4,0,4.87s1.33.44,1.33.44a4.64,4.64,0,0,1-1.72,3.49c-1.67,1.08-.15,2.7-4.05,2.7s-8.9-1.37-10.62-3-2.74-7.66,1.44-10.9c0,0-1.5-7.18,8.29-8.16s11-.49,12.11-1.67,1-1.87,1-1.87.78,3.54-.39,4.33c0,0,.73.59,1.17-.79a8.55,8.55,0,0,1-1.18,5.7C142.06,119,138.39,121.1,137.72,122.62Z" class="cls-18"></path><path d="M138.27,214.46c-2.66,0-5.52-.05-9-.16-12.62-.4-18.71-1.78-28.35-6.4-6.9-3.31-10.74-8.36-10.81-14.22h0V72.42h0c0-3.85,1.7-8.56,4.72-12.92a38.64,38.64,0,0,1,14.09-12.21c12.53-6.49,28.7-7,42.88-7a63.23,63.23,0,0,1,28.31,7.09,25,25,0,0,1,7.07,5.23l-.59.4c.53.63,1,1.23,1.43,1.82l.63-.35a13.07,13.07,0,0,1,2.14,5.27l0,.16V60a12.38,12.38,0,0,1,.11,2.27v.14l0,.06v129.6h0c-.2,7.32-6.15,12.79-18.72,17.24C162,212.93,151.88,214.46,138.27,214.46Z" class="cls-23"></path><path d="M151.81,40.78a62.6,62.6,0,0,1,28,7,24.79,24.79,0,0,1,6.9,5.09l-.59.41c.52.62,1,1.2,1.41,1.78l.63-.34a12.74,12.74,0,0,1,2,5.05v.06l0,.24a12.3,12.3,0,0,1,.11,2.18l0,.27,0,.08V191.23h0v.85c-.2,7.07-6,12.4-18.35,16.76-10.11,3.57-20.2,5.1-33.73,5.1-2.65,0-5.5-.05-9-.16-12.51-.4-18.55-1.77-28.09-6.34-6.7-3.22-10.43-8.11-10.5-13.76h0V72.41h0c0-3.75,1.67-8.36,4.63-12.64a38.17,38.17,0,0,1,13.88-12c12.41-6.43,28.49-7,42.59-7h0m0-1.05h0c-14.65,0-30.62.6-43.18,7.11s-19.14,18-19.1,25.58l0-3.14V196l0-2.35c.06,5.6,3.55,11,11.12,14.67,9.81,4.7,16.15,6.06,28.61,6.46,3.1.1,6.1.17,9,.17,11.93,0,22.56-1.08,34.17-5.18,13.24-4.68,18.89-10.43,19.09-17.72v-.86c0,.29,0,.58,0,.86l0,15.55V62.37l0-.07a12.3,12.3,0,0,0-.11-2.35l.14-.32h-.18c-.79-4.86-4.39-9.34-11-12.74a63.75,63.75,0,0,0-28.61-7.16ZM188.53,54.5c-.42-.56-.89-1.17-1.45-1.84a17.44,17.44,0,0,1,1.45,1.84Z" class="cls-24"></path><g class="cls-25"><path d="M98.08,202.11V75.27s9-12.84,24.46-11.47,18,9.17,18,9.17v141.2s.6-5.82-1.91-4.63c-7.61,3.61-24.21,9-34.44-6.37C102.7,201,99.24,205.2,98.08,202.11Z" class="cls-26"></path></g><ellipse ry="12.72" rx="9.23" cy="157.24" cx="163.07" class="cls-27"></ellipse><path d="M204.52,183.49a41.59,41.59,0,0,1-7.4-.66c-22.38-4-33-16.84-37.13-23.6a3.9,3.9,0,0,1,2.3-5.74l3.64-1.22-4.07,1.36.39-.13a4.5,4.5,0,0,1,5.27,1.79c3.28,5.37,12.11,16.23,31.26,19.67,12.44,2.24,22.93-3.46,27.8-6.81a4.62,4.62,0,0,1,5.7.4h0a3.82,3.82,0,0,1-.51,6C226.66,178.09,216.81,183.49,204.52,183.49Z" class="cls-2"></path><path d="M234.93,153.71s-9.91,4.3-11.55,12,4.15,15.43,11.55,15,14.43-6.15,14.43-6.15l-4.14-8.36s-4.67,4.61-9,4.8-7.24-7.7,2-11.3Z" class="cls-28"></path><rect height="15.09" width="0.75" y="196.08" x="190.82" class="cls-18"></rect></g><g id="table"><rect height="43.08" width="45.68" y="202.43" x="190.9" class="cls-29"></rect><ellipse ry="11.68" rx="22.88" cy="244.72" cx="213.73" class="cls-14"></ellipse><ellipse ry="11.68" rx="22.88" cy="202.81" cx="213.73" class="cls-7"></ellipse><polygon points="210.53 191.29 210.53 190.22 210.52 191.21 210.53 192.28 210.53 191.29" class="cls-18"></polygon><polygon points="221.65 192.57 220.18 193.33 220.18 194.32 221.65 193.56 221.65 192.57" class="cls-18"></polygon><polygon points="204.52 193.33 203.04 192.57 203.03 193.56 204.52 194.32 204.52 193.33" class="cls-18"></polygon><path d="M207.66,196.76l0-.11.05-.12a1,1,0,0,1,0-.1l.07-.13.07-.1a1.34,1.34,0,0,1,.11-.14l.07-.09.2-.19.08-.06.15-.11.13-.09a1,1,0,0,1,.17-.1l.18-.11.45-.2.13-.05.37-.12.14,0,.24-.06.19-.05.26,0,.18,0a4.46,4.46,0,0,1,.54-.06l.16,0,.32,0h.92l.22,0,.24,0,.21,0,.25,0,.2,0,.29.07.16,0a3.8,3.8,0,0,1,.51.15,2.34,2.34,0,0,1,.24.09l.12,0,.35.16c.93.48,1.4,1.1,1.39,1.73v-1c0-.63-.47-1.25-1.4-1.73l-.35-.16-.12,0L215,194h0a3.8,3.8,0,0,0-.51-.15l0,0-.12,0-.29-.07H214l-.12,0-.25,0-.1,0h-.11l-.23,0H212l-.32,0h-.17l-.54.07h0l-.16,0-.26.05-.18,0-.25.06h0l-.08,0-.38.12-.13.05-.45.2,0,0-.13.08-.17.1-.13.09-.14.1,0,0-.05,0-.2.19-.05.05,0,0a1.34,1.34,0,0,0-.11.14l0,.07v0a.54.54,0,0,0-.07.13.25.25,0,0,0,0,.07v0a.56.56,0,0,0,0,.12l0,.09v0s0,.09,0,.13,0,.06,0,.09v1a.49.49,0,0,1,0-.12S207.66,196.8,207.66,196.76Z" class="cls-18"></path><path d="M221.64,197a1.34,1.34,0,0,1-.07.18l-.06.12-.06.11a.75.75,0,0,1-.07.12l-.07.11-.09.14-.08.1a1.34,1.34,0,0,1-.11.14l-.08.09-.25.26,0,0-.25.21-.2.17v1l.17-.14,0,0,.24-.21,0,0,.25-.26,0,0L221,199a1.34,1.34,0,0,1,.11-.14.61.61,0,0,0,.07-.1l.1-.14,0,0,0-.07.07-.12.06-.11.06-.12a.14.14,0,0,1,0-.06.61.61,0,0,0,0-.12h2.09v-1Z" class="cls-18"></path><path d="M204.55,199.73v-1A4.21,4.21,0,0,1,203.1,197H201v1h2.09A4.14,4.14,0,0,0,204.55,199.73Z" class="cls-18"></path><path d="M217.67,200.05l-.77.24-.44.11-.41.1-.46.08-.43.08q-.48.08-1,.12v1l1-.12h0l.39-.07.45-.08.42-.11a3.15,3.15,0,0,0,.44-.11h0l.72-.22,1.48.75,2.54-1.3v-1l-2.54,1.3Z" class="cls-18"></path><path d="M210.59,200.78l-.67-.08-.48-.07-.41-.08-.56-.12-.43-.11-.19,0-.74-.22h0l-1.47.75-2.56-1.3v1l2.56,1.3,1.47-.75.73.22.19.05.19.06.25,0,.56.12.18,0,.23,0,.48.07.22,0,.45.05h0v1.07h3.6v-1H210.6Z" class="cls-18"></path><path d="M219.16,200.8l-1.49-.75a15.14,15.14,0,0,1-3.47.73v1.07H210.6v-1.07a15.34,15.34,0,0,1-3.48-.73l-1.47.75-2.56-1.3,1.47-.76A4.21,4.21,0,0,1,203.1,197H201v-1.85h2.09a4.13,4.13,0,0,1,1.43-1.78l-1.48-.75,2.54-1.31,1.48.76a15.26,15.26,0,0,1,3.47-.74v-1.07h3.6v1.07a15.23,15.23,0,0,1,3.48.74l1.47-.76,2.56,1.31-1.47.75a4.19,4.19,0,0,1,1.45,1.78h2.09V197h-2.09a4,4,0,0,1-1.42,1.78l1.48.76ZM209,197.75a8.25,8.25,0,0,0,6.69,0c1.84-.95,1.83-2.48,0-3.43a8.29,8.29,0,0,0-6.69,0c-1.84,1-1.83,2.48,0,3.43" class="cls-10"></path><polygon points="214.97 202.32 214.97 201.45 214.96 202.26 214.97 203.13 214.97 202.32" class="cls-12"></polygon><polygon points="224.06 203.38 222.85 203.99 222.85 204.8 224.05 204.18 224.06 203.38" class="cls-12"></polygon><polygon points="210.06 203.99 208.85 203.38 208.84 204.18 210.05 204.8 210.06 203.99" class="cls-12"></polygon><path d="M212.63,206.79a.31.31,0,0,1,0-.08l0-.1,0-.09.06-.1a.56.56,0,0,1,.05-.08l.09-.12.06-.07.17-.15.06-.06.12-.09.11-.07.14-.08.14-.09.37-.16.11,0,.3-.1.11,0,.2-.05.15,0,.22,0,.14,0,.44-.05h.14l.26,0h.93l.19,0,.18,0,.2,0,.16,0,.24.05.13,0a2.9,2.9,0,0,1,.42.12l.19.07.1,0,.29.13c.76.39,1.14.9,1.14,1.41v-.81c0-.51-.38-1-1.14-1.41l-.28-.13-.1,0-.18-.06h0a2.77,2.77,0,0,0-.41-.12h0l-.1,0-.24-.06h-.06l-.1,0-.2,0h-.17l-.2,0h-.93l-.26,0h-.13l-.44.05h0l-.13,0-.21,0-.15,0-.2.05h-.05l-.06,0-.31.1-.11,0a3.92,3.92,0,0,0-.36.16l0,0-.1.06-.14.08-.11.07-.12.09,0,0,0,0-.16.15,0,0,0,0-.09.12,0,.05,0,0a.47.47,0,0,0-.05.1l0,.06v0a.3.3,0,0,0,0,.1.25.25,0,0,1,0,.07v0s0,.07,0,.1V207s0-.07,0-.1S212.62,206.83,212.63,206.79Z" class="cls-12"></path><path d="M224.05,207l-.06.14a.93.93,0,0,1-.05.1l-.05.09-.06.1-.05.09a1,1,0,0,1-.08.11l-.06.09-.1.11-.06.08-.2.2,0,0-.2.18-.17.13v.81l.14-.11,0,0,.2-.18,0,0,.21-.21h0l0-.06.09-.12a.24.24,0,0,0,.06-.08.76.76,0,0,0,.08-.11l0,0,0-.05.06-.1a.41.41,0,0,1,.05-.09l0-.1a.08.08,0,0,0,0,0,.69.69,0,0,0,0-.1h1.71V207Z" class="cls-12"></path><path d="M210.08,209.22v-.81A3.47,3.47,0,0,1,208.9,207h-1.71v.81h1.71A3.39,3.39,0,0,0,210.08,209.22Z" class="cls-12"></path><path d="M220.8,209.48l-.63.19c-.12,0-.24.06-.36.09l-.34.09-.37.07-.35.06-.78.1v.81l.79-.1h0l.31-.05.37-.07.34-.09c.12,0,.24,0,.36-.09h0l.59-.18,1.21.61,2.08-1.06V209L222,210.1Z" class="cls-12"></path><path d="M215,210.08l-.55-.07-.39-.06-.34-.06-.46-.1-.35-.08-.16-.05a5.76,5.76,0,0,1-.59-.18h0l-1.21.62L208.88,209v.81l2.09,1.07,1.2-.62.6.18.16,0,.15.05.2,0,.46.1.15,0,.19,0,.39.06.18,0,.37,0h0v.87H218V211H215Z" class="cls-12"></path><path d="M222,210.1l-1.21-.62a12.57,12.57,0,0,1-2.83.6V211H215v-.88a12.66,12.66,0,0,1-2.84-.6l-1.21.62L208.88,209l1.2-.62A3.39,3.39,0,0,1,208.9,207h-1.71v-1.51h1.71a3.38,3.38,0,0,1,1.17-1.46l-1.21-.62,2.07-1.06,1.21.62a12.24,12.24,0,0,1,2.84-.61v-.87h2.95v.87a12.24,12.24,0,0,1,2.84.61l1.2-.62,2.09,1.06-1.2.62a3.52,3.52,0,0,1,1.19,1.46h1.7V207h-1.7a3.36,3.36,0,0,1-1.17,1.45l1.21.62Zm-8.26-2.5a6.74,6.74,0,0,0,5.46,0c1.5-.77,1.5-2,0-2.8a6.74,6.74,0,0,0-5.46,0c-1.51.78-1.5,2,0,2.8" class="cls-10"></path></g><g id="cube"><path d="M318.06,202.62l-35.94-18.34a3.79,3.79,0,0,0-3.6.13h0l-7.89,4,3.66,4.4,1.37,1.38v31.49a5.17,5.17,0,0,0,3,4.54L305.53,244l.28,1.33,5.49,6.8,8.44-4.39,0,0,.06,0h0a2.34,2.34,0,0,0,1.29-2V207.31A5.34,5.34,0,0,0,318.06,202.62Z" class="cls-30"></path><path d="M309.66,207l-36.37-18.56c-1.77-.9-4,.23-4,2V229a5.17,5.17,0,0,0,3,4.55l36.36,18.59c1.82.93,4.09-.23,4.09-2.09V211.68A5.32,5.32,0,0,0,309.66,207Z" class="cls-31"></path><path d="M311.35,252.1l-.05,0h0Z" class="cls-32"></path><path d="M312.72,250V211.68a4.9,4.9,0,0,0-.42-1.85l8.43-4.29a4.65,4.65,0,0,1,.39,1.77v38.33a2.34,2.34,0,0,1-1.29,2h0l-.06,0,0,0-8.37,4.35A2.36,2.36,0,0,0,312.72,250Z" class="cls-33"></path><path d="M313.93,265.22l-.31-1.45L286.49,249.9a4.66,4.66,0,0,1-2.67-4.09V214.12l-1.5-1.51-3.26-3.91,7-3.58h0l.33-.18a3.55,3.55,0,0,1,1.65-.44,3,3,0,0,1,1.34.32l35.95,18.34a4.84,4.84,0,0,1,2.77,4.24v38.33a1.82,1.82,0,0,1-1,1.6l-.09.05-8,4.14Z" class="cls-34"></path><path d="M288,205a2.33,2.33,0,0,1,1,.26L325,223.63a4.3,4.3,0,0,1,2.48,3.78v38.33a1.33,1.33,0,0,1-.73,1.16l-.06,0h0l-7.51,3.9-4.7-5.83-.23-1.1-.1-.47-.47-.24-26.91-13.75a4.17,4.17,0,0,1-2.37-3.64V213.93l-.29-.3-1.34-1.35-2.85-3.42,5.88-3,0,0,.86-.47A3,3,0,0,1,288,205m0-1.05a4.19,4.19,0,0,0-2,.53h0l-7.89,4,3.67,4.4,1.36,1.38v31.49a5.17,5.17,0,0,0,3,4.54l26.9,13.75.28,1.33,5.49,6.8,8.44-4.39,0,0,.06,0h0a2.34,2.34,0,0,0,1.29-2V227.41a5.34,5.34,0,0,0-3.07-4.69l-35.94-18.34A3.64,3.64,0,0,0,288,204Z" class="cls-24"></path><path d="M317.55,272a2.31,2.31,0,0,1-1.06-.26l-36.37-18.59a4.68,4.68,0,0,1-2.67-4.09V210.57a2,2,0,0,1,2.08-1.83,2.21,2.21,0,0,1,1,.25l36.37,18.55a4.84,4.84,0,0,1,2.77,4.24v38.33a1.76,1.76,0,0,1-.64,1.35,2.38,2.38,0,0,1-1.5.54Z" class="cls-35"></path><path d="M279.53,209.26a1.58,1.58,0,0,1,.73.18L316.63,228a4.31,4.31,0,0,1,2.47,3.79v38.33a1.48,1.48,0,0,1-1.55,1.37,1.75,1.75,0,0,1-.77-.19L280.42,252.7a4.15,4.15,0,0,1-2.38-3.64V210.57a1.41,1.41,0,0,1,1.49-1.31m0-1a2.54,2.54,0,0,0-2.67,2.36v38.49a5.17,5.17,0,0,0,3,4.55l36.36,18.58a2.93,2.93,0,0,0,1.36.33,2.6,2.6,0,0,0,2.74-2.41V231.78a5.32,5.32,0,0,0-3.07-4.69l-36.37-18.56a2.88,2.88,0,0,0-1.32-.32Z" class="cls-24"></path><path d="M318.91,272.2l-.05,0h0Z" class="cls-36"></path><path d="M318.91,272.2Zm0,0-.06,0h0l.05,0Z" class="cls-24"></path><path d="M320.83,270.59a2.61,2.61,0,0,0,.05-.48V231.78a5.08,5.08,0,0,0-.29-1.61l7.36-3.75a3.55,3.55,0,0,1,.15,1v38.33a1.82,1.82,0,0,1-1,1.6l-.1.06Z" class="cls-37"></path><path d="M327.5,227.25c0,.05,0,.11,0,.16v38.33a1.33,1.33,0,0,1-.73,1.16l-.08,0-5.23,2.72V231.78a5.06,5.06,0,0,0-.19-1.36l6.22-3.17m.81-1.62-8.44,4.3a4.9,4.9,0,0,1,.42,1.85v38.33a2.36,2.36,0,0,1-1.34,2.07l8.35-4.34,0,0,.06,0h0a2.34,2.34,0,0,0,1.29-2V227.41a4.94,4.94,0,0,0-.38-1.78ZM319,272.18h0Z" class="cls-24"></path><path d="M298,229.57a1.23,1.23,0,0,1-.24.9q-.25.21-.78-.06a3.72,3.72,0,0,1-.78-.53v1.54a5.08,5.08,0,0,0,1.07.71,2.26,2.26,0,0,0,1.29.29,1.16,1.16,0,0,0,.87-.6,2.81,2.81,0,0,0,.32-1.45l0-9.17-1.74-.89Z" class="cls-10"></path><path d="M302.81,229.85l2.43,1.23.52,2.66,1.74.89L305.22,224l-2.35-1.2-2.34,8.32,1.74.89Zm1-4.11c.09-.4.16-.77.21-1.12,0,.2.09.59.19,1.18s.17,1,.19,1.1l.49,2.45-1.75-.89C303.52,227.05,303.74,226.15,303.83,225.74Z" class="cls-10"></path><path d="M311.71,236.78l2.22-8.34-1.74-.89L311,232.71a16.41,16.41,0,0,0-.34,1.94c-.11-1-.21-1.73-.32-2.28l-1.2-6.4-1.74-.88,2.15,10.56Z" class="cls-10"></path><path d="M315.46,238.69l.54-2.11,2.42,1.24.53,2.65,1.74.89-2.28-10.67-2.35-1.2-2.33,8.32Zm1.56-6.21c.09-.41.16-.78.22-1.12,0,.19.08.58.18,1.17s.17,1,.2,1.11l.49,2.45-1.76-.9C316.71,233.78,316.93,232.88,317,232.48Z" class="cls-10"></path><polygon points="313.67 241.98 300.54 235.25 300.54 235.84 313.67 242.57 313.67 241.98" class="cls-10"></polygon><polygon points="300.54 237 320.69 247.31 320.69 246.72 300.54 236.41 300.54 237" class="cls-10"></polygon><polygon points="314.55 243.01 320.69 246.15 320.69 245.56 314.55 242.42 314.55 243.01" class="cls-10"></polygon><polygon points="313.67 244.24 300.54 237.51 300.54 238.1 313.67 244.83 313.67 244.24" class="cls-10"></polygon><polygon points="300.54 239.27 320.69 249.57 320.69 248.98 300.54 238.68 300.54 239.27" class="cls-10"></polygon><polygon points="314.55 245.27 320.69 248.41 320.69 247.82 314.55 244.68 314.55 245.27" class="cls-10"></polygon><polygon points="313.67 247.51 300.54 240.79 300.54 241.38 313.67 248.1 313.67 247.51" class="cls-10"></polygon><polygon points="300.54 242.54 320.69 252.85 320.69 252.25 300.54 241.95 300.54 242.54" class="cls-10"></polygon><polygon points="314.55 248.54 320.69 251.69 320.69 251.09 314.55 247.95 314.55 248.54" class="cls-10"></polygon><polygon points="313.67 249.78 300.54 243.05 300.54 243.64 313.67 250.37 313.67 249.78" class="cls-10"></polygon><polygon points="300.54 244.8 320.69 255.11 320.69 254.52 300.54 244.21 300.54 244.8" class="cls-10"></polygon><polygon points="314.55 250.81 320.69 253.95 320.69 253.36 314.55 250.22 314.55 250.81" class="cls-10"></polygon><polygon points="313.67 253.05 300.54 246.32 300.54 246.91 313.67 253.64 313.67 253.05" class="cls-10"></polygon><polygon points="300.54 248.07 320.69 258.38 320.69 257.79 300.54 247.48 300.54 248.07" class="cls-10"></polygon><polygon points="314.55 254.08 320.69 257.22 320.69 256.63 314.55 253.49 314.55 254.08" class="cls-10"></polygon><polygon points="313.67 255.31 300.54 248.59 300.54 249.18 313.67 255.9 313.67 255.31" class="cls-10"></polygon><polygon points="300.54 250.34 320.69 260.64 320.69 260.05 300.54 249.75 300.54 250.34" class="cls-10"></polygon><polygon points="314.55 256.34 320.69 259.49 320.69 258.89 314.55 255.75 314.55 256.34" class="cls-10"></polygon><polygon points="313.67 258.58 300.54 251.86 300.54 252.45 313.67 259.18 313.67 258.58" class="cls-10"></polygon><polygon points="300.54 253.61 320.69 263.92 320.69 263.33 300.54 253.02 300.54 253.61" class="cls-10"></polygon><polygon points="314.55 259.61 320.69 262.76 320.69 262.17 314.55 259.02 314.55 259.61" class="cls-10"></polygon><polygon points="313.67 260.85 300.54 254.12 300.54 254.71 313.67 261.44 313.67 260.85" class="cls-10"></polygon><polygon points="300.54 255.87 320.69 266.18 320.69 265.59 300.54 255.28 300.54 255.87" class="cls-10"></polygon><polygon points="314.55 261.88 320.69 265.02 320.69 264.43 314.55 261.29 314.55 261.88" class="cls-10"></polygon></g><g id="dashline1"><g class="cls-3"><path d="M279.52,270.05,211.46,304.7c-2.58,1.32-5.8-.33-5.8-3V283.11a3.37,3.37,0,0,1,1.94-3l68-34.65c2.58-1.31,5.8.33,5.8,3v18.63A3.38,3.38,0,0,1,279.52,270.05Z" class="cls-2"></path></g><g class="cls-3"><path d="M363.63,241.32,295.57,276c-2.58,1.31-5.8-.34-5.8-3V254.38a3.37,3.37,0,0,1,1.94-3l68.06-34.65c2.58-1.31,5.8.33,5.8,3v18.62A3.37,3.37,0,0,1,363.63,241.32Z" class="cls-2"></path></g><g class="cls-3"><path d="M370,203.74l-68.06,34.65c-2.58,1.32-5.8-.33-5.8-3V216.8a3.37,3.37,0,0,1,1.94-3l68.06-34.65c2.58-1.31,5.8.33,5.8,3v18.63A3.37,3.37,0,0,1,370,203.74Z" class="cls-2"></path></g></g></g></g></svg>