<svg viewBox="0 0 278.66 259.45" xmlns:xlink="http://www.w3.org/1999/xlink" xmlns="http://www.w3.org/2000/svg"><defs><style>.cls-1{opacity:0.46;}.cls-2{fill:#cde9f9;}.cls-3{fill:url(#未命名的渐变_37);}.cls-4{fill:url(#未命名的渐变_37-2);}.cls-5{fill:url(#未命名的渐变_25);}.cls-6{fill:#e7f6fd;}.cls-7{fill:#fff;}.cls-8{fill:url(#未命名的渐变_37-3);}.cls-9{fill:url(#未命名的渐变_39);}.cls-10,.cls-19{fill:#828282;}.cls-11{opacity:0.49;}.cls-12{fill:url(#未命名的渐变_39-2);}.cls-13{fill:url(#未命名的渐变_39-3);}.cls-14{fill:#aecfdc;}.cls-15{fill:#fde0d9;}.cls-16{fill:url(#未命名的渐变_8);}.cls-17{fill:#222457;}.cls-18{fill:#ecbfb9;}.cls-19{opacity:0.16;isolation:isolate;}.cls-20{fill:none;stroke-width:0.64px;}.cls-20,.cls-27,.cls-33,.cls-49,.cls-50{stroke:#fff;}.cls-20,.cls-27,.cls-33,.cls-34,.cls-36,.cls-37,.cls-39,.cls-40,.cls-49,.cls-50{stroke-miterlimit:10;}.cls-21{fill:url(#未命名的渐变_14);}.cls-22{fill:url(#未命名的渐变_25-2);}.cls-23{fill:url(#未命名的渐变_14-2);}.cls-24{fill:url(#未命名的渐变_25-3);}.cls-25{fill:url(#未命名的渐变_14-3);}.cls-26{fill:url(#未命名的渐变_14-4);}.cls-27,.cls-33,.cls-34,.cls-36,.cls-37,.cls-39,.cls-40,.cls-49,.cls-50{stroke-width:0.32px;}.cls-27{fill:url(#未命名的渐变_37-4);}.cls-28{fill:#2a2f6d;}.cls-29{fill:url(#未命名的渐变_17);}.cls-30{opacity:0.5;}.cls-31{fill:url(#未命名的渐变_18);}.cls-32{fill:url(#未命名的渐变_19);}.cls-33{fill:url(#未命名的渐变_37-5);}.cls-34,.cls-36,.cls-37,.cls-39,.cls-40{stroke:#e7f6fd;}.cls-34{fill:url(#未命名的渐变_37-6);}.cls-35{fill:url(#未命名的渐变_25-4);}.cls-36{fill:url(#未命名的渐变_37-7);}.cls-37{fill:url(#未命名的渐变_37-8);}.cls-38{fill:url(#未命名的渐变_25-5);}.cls-39{fill:url(#未命名的渐变_37-9);}.cls-40{fill:url(#未命名的渐变_37-10);}.cls-41{fill:url(#未命名的渐变_37-11);}.cls-42{fill:url(#未命名的渐变_37-12);}.cls-43{fill:url(#未命名的渐变_37-13);}.cls-44{fill:url(#未命名的渐变_37-14);}.cls-45{fill:url(#未命名的渐变_37-15);}.cls-46{fill:url(#未命名的渐变_37-16);}.cls-47{fill:url(#未命名的渐变_37-17);}.cls-48{fill:url(#未命名的渐变_37-18);}.cls-49{fill:url(#未命名的渐变_37-19);}.cls-50{fill:url(#未命名的渐变_37-20);}.cls-51{fill:url(#未命名的渐变_39-4);}.cls-52{fill:url(#未命名的渐变_39-5);}</style><linearGradient gradientUnits="userSpaceOnUse" gradientTransform="matrix(1, 0, 0, -1, 0, 1038.96)" y2="983.7" x2="260.15" y1="983.7" x1="187.08" id="未命名的渐变_37"><stop stop-color="#28a8e0" offset="0.06"></stop><stop stop-opacity="0" stop-color="#29abe2" offset="1"></stop></linearGradient><linearGradient xlink:href="#未命名的渐变_37" y2="980.86" x2="254.9" y1="980.86" x1="181.83" id="未命名的渐变_37-2"></linearGradient><linearGradient gradientUnits="userSpaceOnUse" gradientTransform="matrix(1, 0, 0, -1, 0, 1038.96)" y2="979.11" x2="249.69" y1="979.11" x1="176.94" id="未命名的渐变_25"><stop stop-color="#bd8aae" offset="0"></stop><stop stop-opacity="0" stop-color="#2484c6" offset="1"></stop></linearGradient><linearGradient xlink:href="#未命名的渐变_37" y2="853.72" x2="239.16" y1="853.72" x1="29.45" id="未命名的渐变_37-3"></linearGradient><linearGradient gradientUnits="userSpaceOnUse" gradientTransform="matrix(1, 0, 0, -1, 0, 1038.96)" y2="944.44" x2="109.55" y1="944.44" x1="99.56" id="未命名的渐变_39"><stop stop-color="#bcbec0" offset="0.3"></stop><stop stop-color="#e6e7e8" offset="0.74"></stop><stop stop-color="#fff" offset="1"></stop></linearGradient><linearGradient xlink:href="#未命名的渐变_39" y2="938.46" x2="102.46" y1="938.46" x1="73.31" id="未命名的渐变_39-2"></linearGradient><linearGradient xlink:href="#未命名的渐变_39" y2="941.57" x2="91.46" y1="941.57" x1="68.73" id="未命名的渐变_39-3"></linearGradient><linearGradient gradientUnits="userSpaceOnUse" gradientTransform="matrix(1, 0, 0, -1, 0, 1038.96)" y2="882.64" x2="93.77" y1="882.64" id="未命名的渐变_8"><stop stop-color="#bd8aae" offset="0.12"></stop><stop stop-opacity="0.49" stop-color="#7d64a3" offset="0.87"></stop><stop stop-opacity="0" stop-color="#21409a" offset="1"></stop></linearGradient><linearGradient gradientUnits="userSpaceOnUse" gradientTransform="matrix(1, 0, 0, -1, 0, 1038.96)" y2="884.08" x2="160.64" y1="884.08" x1="42.15" id="未命名的渐变_14"><stop stop-color="#21409a" offset="0.44"></stop><stop stop-color="#49abd8" offset="1"></stop></linearGradient><linearGradient xlink:href="#未命名的渐变_25" y2="897.1" x2="158.55" y1="897.1" x1="42.21" id="未命名的渐变_25-2"></linearGradient><linearGradient xlink:href="#未命名的渐变_14" y2="923.46" x2="227.04" y1="923.46" x1="109.78" id="未命名的渐变_14-2"></linearGradient><linearGradient xlink:href="#未命名的渐变_25" y2="936.8" x2="228.86" y1="936.8" x1="109.95" id="未命名的渐变_25-3"></linearGradient><linearGradient xlink:href="#未命名的渐变_14" y2="938.31" x2="226.81" y1="938.31" x1="171.14" id="未命名的渐变_14-3"></linearGradient><linearGradient xlink:href="#未命名的渐变_14" y2="898.92" x2="160.64" y1="898.92" x1="102.91" id="未命名的渐变_14-4"></linearGradient><linearGradient xlink:href="#未命名的渐变_37" gradientTransform="translate(2522.57 -1198.06) rotate(104.97)" y2="1990.13" x2="1846.03" y1="1990.13" x1="1838.57" id="未命名的渐变_37-4"></linearGradient><linearGradient gradientUnits="userSpaceOnUse" gradientTransform="matrix(1, 0, 0, -1, 0, 1038.96)" y2="999.7" x2="162.45" y1="999.7" x1="133.78" id="未命名的渐变_17"><stop stop-color="#a7a9ac" offset="0"></stop><stop stop-opacity="0" stop-color="#2484c6" offset="1"></stop></linearGradient><linearGradient gradientUnits="userSpaceOnUse" gradientTransform="translate(3179.79 1038.96) rotate(180)" y2="997.4" x2="3030.57" y1="997.4" x1="3018.5" id="未命名的渐变_18"><stop stop-color="#fff" offset="0.42"></stop><stop stop-opacity="0" stop-color="#2484c6" offset="1"></stop></linearGradient><linearGradient gradientUnits="userSpaceOnUse" gradientTransform="matrix(1, 0, 0, -1, 0, 1038.96)" y2="990.1" x2="157.14" y1="990.1" x1="151.89" id="未命名的渐变_19"><stop stop-color="#6b385f" offset="0"></stop><stop stop-opacity="0.73" stop-color="#6f3b62" offset="0.42"></stop><stop stop-opacity="0.6" stop-color="#764268" offset="0.52"></stop><stop stop-opacity="0.39" stop-color="#8c567a" offset="0.69"></stop><stop stop-opacity="0.11" stop-color="#b5799b" offset="0.91"></stop><stop stop-opacity="0" stop-color="#cc8dae" offset="1"></stop></linearGradient><linearGradient xlink:href="#未命名的渐变_37" gradientTransform="matrix(-1, 0, 0, 1, 3385.7, -81.82)" y2="143.56" x2="3231.88" y1="143.56" x1="3224.42" id="未命名的渐变_37-5"></linearGradient><linearGradient xlink:href="#未命名的渐变_37" y2="931.83" x2="181.9" y1="931.83" x1="115.8" id="未命名的渐变_37-6"></linearGradient><linearGradient xlink:href="#未命名的渐变_25" y2="922.94" x2="197.01" y1="922.94" x1="131.4" id="未命名的渐变_25-4"></linearGradient><linearGradient xlink:href="#未命名的渐变_37" y2="925.72" x2="177.85" y1="925.72" x1="163.7" id="未命名的渐变_37-7"></linearGradient><linearGradient xlink:href="#未命名的渐变_37" y2="913.08" x2="214.54" y1="913.08" x1="148.44" id="未命名的渐变_37-8"></linearGradient><linearGradient xlink:href="#未命名的渐变_25" y2="915.75" x2="195.16" y1="915.75" x1="181.33" id="未命名的渐变_25-5"></linearGradient><linearGradient xlink:href="#未命名的渐变_37" y2="904.98" x2="176.78" y1="904.98" x1="162.63" id="未命名的渐变_37-9"></linearGradient><linearGradient xlink:href="#未命名的渐变_37" y2="907.09" x2="180.53" y1="907.09" x1="166.38" id="未命名的渐变_37-10"></linearGradient><linearGradient xlink:href="#未命名的渐变_37" y2="897.73" x2="83.88" y1="897.73" x1="83.85" id="未命名的渐变_37-11"></linearGradient><linearGradient xlink:href="#未命名的渐变_37" y2="891.39" x2="112.2" y1="891.39" x1="108.44" id="未命名的渐变_37-12"></linearGradient><linearGradient xlink:href="#未命名的渐变_37" y2="891.39" x2="68.56" y1="891.39" x1="64.78" id="未命名的渐变_37-13"></linearGradient><linearGradient xlink:href="#未命名的渐变_37" y2="885.98" x2="100.59" y1="885.98" x1="76.5" id="未命名的渐变_37-14"></linearGradient><linearGradient xlink:href="#未命名的渐变_37" y2="877.29" x2="117.5" y1="877.29" x1="108.53" id="未命名的渐变_37-15"></linearGradient><linearGradient xlink:href="#未命名的渐变_37" y2="877.29" x2="68.65" y1="877.29" x1="59.62" id="未命名的渐变_37-16"></linearGradient><linearGradient xlink:href="#未命名的渐变_37" y2="870.66" x2="112.31" y1="870.66" x1="93.21" id="未命名的渐变_37-17"></linearGradient><linearGradient xlink:href="#未命名的渐变_37" y2="869.15" x2="93.24" y1="869.15" x1="64.88" id="未命名的渐变_37-18"></linearGradient><linearGradient xlink:href="#未命名的渐变_37" y2="883.94" x2="117.5" y1="883.94" x1="59.6" id="未命名的渐变_37-19"></linearGradient><linearGradient xlink:href="#未命名的渐变_37" y2="876.62" x2="146.75" y1="876.62" x1="115.21" id="未命名的渐变_37-20"></linearGradient><linearGradient xlink:href="#未命名的渐变_39" y2="945.22" x2="90.24" y1="945.22" x1="89.24" id="未命名的渐变_39-4"></linearGradient><linearGradient xlink:href="#未命名的渐变_39" y2="945.22" x2="93.49" y1="945.22" x1="92.5" id="未命名的渐变_39-5"></linearGradient></defs><g id="图层_2"><g id="图层_1-2"><g id="flooring"><g class="cls-1"><path d="M191.54,208.68l-68.12-39.34a3.7,3.7,0,0,1,0-6.41L199,119.3a8.15,8.15,0,0,1,8.15,0l69.65,40a3.7,3.7,0,0,1,0,6.41l-74.37,43A10.89,10.89,0,0,1,191.54,208.68Z" class="cls-2"></path></g><g class="cls-1"><path d="M92.43,258,24.31,218.66a3.7,3.7,0,0,1,0-6.41l75.58-43.64a8.18,8.18,0,0,1,8.15,0l69.65,40a3.7,3.7,0,0,1,0,6.42L103.33,258A10.89,10.89,0,0,1,92.43,258Z" class="cls-2"></path></g></g><g id="bgelement"><g class="cls-1"><path d="M71.31,83.94,16,115.78a3.15,3.15,0,0,1-4.72-2.72V95.94a3.16,3.16,0,0,1,1.58-2.73l55.3-31.84a3.15,3.15,0,0,1,4.72,2.72V81.21A3.14,3.14,0,0,1,71.31,83.94Z" class="cls-2"></path></g><g class="cls-1"><path d="M139.66,57.52,84.36,89.37a3.15,3.15,0,0,1-4.72-2.72V69.53a3.16,3.16,0,0,1,1.58-2.73L136.52,35a3.15,3.15,0,0,1,4.72,2.72V54.8A3.13,3.13,0,0,1,139.66,57.52Z" class="cls-2"></path></g><g class="cls-1"><path d="M144.83,23,89.53,54.84a3.14,3.14,0,0,1-4.71-2.73V35a3.15,3.15,0,0,1,1.57-2.72L141.69.42a3.15,3.15,0,0,1,4.72,2.73V20.27A3.13,3.13,0,0,1,144.83,23Z" class="cls-2"></path></g><path d="M187.08,13.22V59.1a3.64,3.64,0,0,0,1.81,3.15l65.79,38.2a3.64,3.64,0,0,0,5.47-3.15V51.35a3.66,3.66,0,0,0-1.82-3.16L192.54,10.07A3.63,3.63,0,0,0,187.08,13.22Z" class="cls-3"></path><path d="M181.83,16.06V61.94a3.64,3.64,0,0,0,1.81,3.15l65.79,38.21a3.64,3.64,0,0,0,5.47-3.15v-46A3.63,3.63,0,0,0,253.08,51L187.3,12.91A3.64,3.64,0,0,0,181.83,16.06Z" class="cls-4"></path><path d="M246.2,105.38a3.47,3.47,0,0,1-1.74-.47L178.67,66.7a3.48,3.48,0,0,1-1.73-3V17.81a3.49,3.49,0,0,1,3.49-3.49,3.41,3.41,0,0,1,1.74.48L248,52.92a3.5,3.5,0,0,1,1.73,3v46a3.47,3.47,0,0,1-1.06,2.51,3.57,3.57,0,0,1-2.43,1Z" class="cls-5"></path><path d="M180.43,14.48a3.3,3.3,0,0,1,1.66.46l65.78,38.12a3.33,3.33,0,0,1,1.66,2.88v46a3.33,3.33,0,0,1-3.33,3.32,3.29,3.29,0,0,1-1.66-.45L178.75,66.56a3.32,3.32,0,0,1-1.65-2.87V17.81a3.34,3.34,0,0,1,3.33-3.33m0-.32a3.64,3.64,0,0,0-3.65,3.65V63.69a3.64,3.64,0,0,0,1.81,3.15l65.79,38.21a3.64,3.64,0,0,0,5.47-3.15v-46A3.67,3.67,0,0,0,248,52.78L182.25,14.66a3.65,3.65,0,0,0-1.82-.5Z" class="cls-6"></path><path d="M200.83,44.71c-2-1.15-3.66-.21-3.66,2.09a8.16,8.16,0,0,0,3.66,6.32c2,1.18,3.66.24,3.66-2.09A8.05,8.05,0,0,0,200.83,44.71Z" class="cls-7"></path><path d="M211.8,51c-2-1.15-3.66-.21-3.66,2.09a8.16,8.16,0,0,0,3.66,6.32c2,1.18,3.66.24,3.66-2.09A8.05,8.05,0,0,0,211.8,51Z" class="cls-7"></path><path d="M223,57.35c-2-1.15-3.66-.21-3.66,2.09A8.16,8.16,0,0,0,223,65.76c2,1.18,3.66.24,3.66-2.08A8.07,8.07,0,0,0,223,57.35Z" class="cls-7"></path></g><g id="tablestand"><path d="M29.45,170v26.37a12.93,12.93,0,0,0,6.46,11.19l55,31.76a12.92,12.92,0,0,0,12.91,0l128.85-74.08A12.93,12.93,0,0,0,239.16,154v-24.6L100.38,206.65Z" class="cls-7"></path><path d="M29.45,170v26.37a12.93,12.93,0,0,0,6.46,11.19l55,31.76a12.92,12.92,0,0,0,12.91,0l128.85-74.08A12.93,12.93,0,0,0,239.16,154v-24.6L100.38,206.65Z" class="cls-8"></path><path d="M55.35,195.4c-3.34-1.91-6.08-.35-6.08,3.46a13.55,13.55,0,0,0,6.08,10.49c3.34,2,6.07.39,6.07-3.46A13.38,13.38,0,0,0,55.35,195.4Z" class="cls-7"></path></g><g id="man"><path d="M101.33,101.25s6.72-7.35,7.56-9.51a9.31,9.31,0,0,0,.64-3.94s-4.19.19-8.19,6.45S101.33,101.25,101.33,101.25Z" class="cls-9"></path><path d="M103.05,99.33c.9-3.1,1.78-6.8,1.5-8.66,0-.09,0-.18,0-.26-.38-1.85-1.36-.41-2.05,1,0,.42,0,.85,0,1.27h0c0,2.58-.07,5.17-.17,7.54Z" class="cls-10"></path><path d="M74,84.4s-3.22-1,6.58-5.68,16.79-6.55,19.85-3.83,2.15,30.57,1,35.12-28.08,17.35-28.08,17.35S74.78,110,74,101.43A98.9,98.9,0,0,1,74,84.4Z" class="cls-7"></path><g class="cls-11"><path d="M101.39,104.45s.35-1,.81-2.37a54.07,54.07,0,0,1-.81,7.93c-.52,2.1-6.49,5.93-12.79,9.47-7.42,4.15-15.29,7.89-15.29,7.89s1.18-14,.83-23c0-1-.11-2-.19-2.92a98.9,98.9,0,0,1,0-17s-3.22-1,6.58-5.67,16.79-6.56,19.85-3.84c1.51,1.34,2.05,8.75,2.08,16.48-.42.85-.74,1.66-.74,1.66Z" class="cls-12"></path></g><path d="M73.31,127.37s1.18-14,.83-23L77.39,86.6A54.69,54.69,0,0,1,80,109.34c-.92,8.51,4.92,10,8.61,10.14C81.18,123.63,73.31,127.37,73.31,127.37Z" class="cls-10"></path><path d="M87.81,104.83s-7-1-10.15-1.12c.24-4.71.65-16.38-1-19.73-2.07-4.22-4.73.3-6.89,5.12-1.74,3.89-1.32,15.84,1.12,19.7.38,1.64,3,4.6,10.16,3.41,7.49-1.26,10.39-2.69,10.39-2.69Z" class="cls-7"></path><g class="cls-11"><path d="M91.46,109.52s-2.9,1.43-10.38,2.69c-7.12,1.19-9.78-1.77-10.17-3.41-2.43-3.86-2.86-15.81-1.12-19.7l.66-1.42c2-4.21,4.37-7.5,6.23-3.7,1.63,3.35,1.22,15,1,19.73,3.14.1,10.14,1.12,10.14,1.12Z" class="cls-13"></path></g><polygon points="101.72 74.85 114.61 67.41 114.61 85.59 101.72 93.03 101.72 74.85" class="cls-14"></polygon><path d="M95.63,64.88c0,1.51-.21,5.37-1,6.37a8.08,8.08,0,0,1-4.28,3h-.05v1.46h0c.15.15,2.94,2.67,1.13,3.23s-5.06.69-6.31-1c-.71-1-.59-3.4-.36-5.32l-.18-.27c-.28-.43-.89-.3-1-.88-.45-1.85-1.82-6.37-1.82-10.13,0-6.62,4.61-7.48,8.33-7.48,2.76,0,4.86,2.27,5.56,6.24A30.85,30.85,0,0,1,95.63,64.88Z" class="cls-15"></path><path d="M28.11,212.06c-.45,0-.89,0-1.34,0-8.34-.27-15.34-3.11-20.24-8.21-7.64-7.94-8.66-19.76-2.61-30.11,8.19-14,29.35-24.86,48-34.42C62.54,133.86,72.57,128.73,78,124c10.43-9,11.2-17.3,10.93-20.88a2.38,2.38,0,0,1,1.69-2.45h0a2.39,2.39,0,0,1,3.09,2.1c.34,4.73-.72,14.59-12.56,24.86-5.88,5.1-16.16,10.37-27,15.94-18.08,9.26-38.57,19.75-46,32.56-4.94,8.45-4.18,18,1.92,24.36,4,4.18,9.87,6.51,16.94,6.74,7.77.25,16.85-2.12,26.38-6.88a2.4,2.4,0,0,1,3.19,1v0a2.39,2.39,0,0,1-1,3.26C45.65,209.57,36.46,212.06,28.11,212.06Z" class="cls-6"></path><path d="M28.11,212.06c-.45,0-.89,0-1.34,0-8.34-.27-15.34-3.11-20.24-8.21-7.64-7.94-8.66-19.76-2.61-30.11,8.19-14,29.35-24.86,48-34.42C62.54,133.86,72.57,128.73,78,124c10.43-9,11.2-17.3,10.93-20.88a2.38,2.38,0,0,1,1.69-2.45h0a2.39,2.39,0,0,1,3.09,2.1c.34,4.73-.72,14.59-12.56,24.86-5.88,5.1-16.16,10.37-27,15.94-18.08,9.26-38.57,19.75-46,32.56-4.94,8.45-4.18,18,1.92,24.36,4,4.18,9.87,6.51,16.94,6.74,7.77.25,16.85-2.12,26.38-6.88a2.4,2.4,0,0,1,3.19,1v0a2.39,2.39,0,0,1-1,3.26C45.65,209.57,36.46,212.06,28.11,212.06Z" class="cls-16"></path><path d="M86.1,105.8a2.81,2.81,0,0,1,1.52-2.48c1.64-.94,1.26-1,1.79-1.67s.93.35.55,1.39l-.37.91a3,3,0,0,0,2.1-1c.61-.9,2.07-1.32,2-.48a9.35,9.35,0,0,0,.78,2.94c.34,1.09-.5,3.18-3,4.09S86.09,110.3,86.1,105.8Z" class="cls-15"></path><path d="M106.45,89.31s0-2.33.24-2.3.59.21.59,1.15c0,0-.07-2.09.32-2.26s.56.45.56.45-.14-.9.17-1.22.45.63.45.63.35-1.25.63-1.32.36.82.17,2,.45,4.42-2.23,4.91S106.45,89.31,106.45,89.31Z" class="cls-15"></path><path d="M86.1,60.29s7.21,1.56,9.84-1.06a4.19,4.19,0,0,0,1.25-4.3,18.88,18.88,0,0,0-3.3-5.61l.49,2s-1.07-2.09-2.31-2.41l.35,1.79s-2-1.95-2.81-1.79l.71,1.79S81.08,49.21,79,58c0,0-2.79,1.49-.57,5.73a15.86,15.86,0,0,0,4.73,5.83s-.94-3.47-.52-4.78,2-.66,2,1C84.66,65.8,85,61.12,86.1,60.29Z" class="cls-17"></path><path d="M84.61,72.33s-7.46-2.84-8.78-6.82.21-7.1,4.87-8.36,1.22,5.93,1.22,5.93A19.94,19.94,0,0,0,84.61,72.33Z" class="cls-17"></path><path d="M81.76,67.56s1.27,1.57,2,1.67l.73.1a7.74,7.74,0,0,0,.12,3S81.19,69.65,81.76,67.56Z" class="cls-17"></path><path d="M82.6,67s.13,1.74,1.16,2.26c0,0-.65.85-1.16.3S82.6,67,82.6,67Z" class="cls-17"></path><path d="M90.32,75.74h0a6.61,6.61,0,0,1-.93-.06c-.92-.05-2.23-2.4-2.23-2.4a4.83,4.83,0,0,0,3.2,1h-.05v1.46Z" class="cls-18"></path><path d="M100.38,83.25s1.2,3.09-3,7.39-12.76,9.55-12.76,9.55S98,93.07,99.56,90A12.12,12.12,0,0,0,100.38,83.25Z" class="cls-7"></path><path d="M81.08,112.21c-7.12,1.19-9.78-1.77-10.17-3.41-2.43-3.86-2.86-15.81-1.12-19.7l.66-1.42a43.23,43.23,0,0,0,.37,15.2C72.77,111.17,76.51,112,81.08,112.21Z" class="cls-19"></path></g><g id="table"><path d="M20.7,156.7v10.4a4.74,4.74,0,0,0,2.36,4.1l71.28,41.15a6.66,6.66,0,0,0,6.66,0l143.6-82.92h0a5.74,5.74,0,0,0,2.87-5V113.74Z" class="cls-14"></path><path d="M21.57,155.19,168.64,70.27a5,5,0,0,1,5,0l72.7,42a2.35,2.35,0,0,1,0,4.07L99.9,200.87a4.51,4.51,0,0,1-4.47,0L21.57,158.22A1.75,1.75,0,0,1,21.57,155.19Z" class="cls-6"></path><polygon points="29.45 156.7 171.13 74.89 239.36 114.28 97.67 196.09 29.45 156.7" class="cls-20"></polygon><path d="M160.64,153.67l-13.89,8-16.93,9.77-1.29.75-6.77,3.9L117,178.89l-.06,0-.18.11-3.52,2-5,2.9h0l-1.54.89-7,4a4,4,0,0,1-4,0L43.25,158.62a2.21,2.21,0,0,1,0-3.83l59.66-34.45Z" class="cls-21"></path><path d="M50.44,162.76l52.47-30.3,47.23,27.27,7.37-4.25a2.08,2.08,0,0,0,0-3.61l-52.6-30.37a4,4,0,0,0-4,0L43.35,154.74a2.26,2.26,0,0,0,0,3.93Z" class="cls-22"></path><path d="M110.59,115.91l60.55-35,55,31.76a1.82,1.82,0,0,1,0,3.15l-58.34,33.69a3.79,3.79,0,0,1-3.8,0l-53.4-30.83A1.62,1.62,0,0,1,110.59,115.91Z" class="cls-23"></path><path d="M118.66,123.37l52.47-30.3,47.23,27.27,10.5-6.06L171.13,81l-60.28,34.81a1.8,1.8,0,0,0,0,3.11Z" class="cls-24"></path><path d="M171.14,81V93.07l47.22,27.27,7.43-4.29a2,2,0,0,0,0-3.54Z" class="cls-25"></path><polygon points="102.91 132.46 150.14 159.73 160.64 153.67 102.91 120.34 102.91 132.46" class="cls-26"></polygon></g><g id="robot"><path d="M138.33,58.23a10.64,10.64,0,0,1-.9,1.91,15.11,15.11,0,0,1-10.65,7.43,1.31,1.31,0,0,1-1.53-1.22l0-1.11,0,1.24v-.12a1.21,1.21,0,0,1,1-1.22,12.71,12.71,0,0,0,8.91-6.28,10,10,0,0,0,.56-8.18,1.19,1.19,0,0,1,.65-1.48h0a1.32,1.32,0,0,1,1.78.78A13,13,0,0,1,138.33,58.23Z" class="cls-2"></path><path d="M120,66.25s2.06-2.36,4.56-2.18,4.49,2.42,3.8,4.42a8.16,8.16,0,0,1-3,3.45l-2.29-1.83s1.77-.9,2.15-2.07-1.86-2.63-3.65-.39Z" class="cls-27"></path><path d="M137.63,70.86c-5.71-3.3-5.71-8.71,0-12s15.05-3.32,20.76,0,5.71,8.73,0,12S143.34,74.16,137.63,70.86Z" class="cls-28"></path><rect height="4.85" width="0.21" y="61.34" x="162.4" class="cls-28"></rect><path d="M162.61,60.67V55.31l-4.38.53a17.78,17.78,0,0,0-6.91-1.24v.21q.62,0,1.2,0a41,41,0,0,0-5.33.31,26.15,26.15,0,0,1,4.13-.34V54.6h0a25,25,0,0,0-12.26,3.18c-.26.14-.5.3-.73.45l-4.71.56v6.38h0a5.65,5.65,0,0,0,3.16,4.53,16.35,16.35,0,0,0,8.13,1.85,25,25,0,0,0,12.26-3.17c3.58-2.1,5.44-4.77,5.43-7.21A3.38,3.38,0,0,0,162.61,60.67ZM142,71.15a15.47,15.47,0,0,1-1.87-.37C140.72,70.94,141.35,71.05,142,71.15ZM140,70.77l-.07,0Z" class="cls-28"></path><path d="M147.47,67.25c-.76,0-1.57,0-2.55,0a15.35,15.35,0,0,1-8.06-2.06,5.27,5.27,0,0,1-3.08-4.57h0v-39h0c0-3.21,2.75-6.56,5.35-8.08,3.56-2.09,8.16-2.26,12.19-2.26a16.26,16.26,0,0,1,8,2.28,7,7,0,0,1,2,1.68l-.17.13c.15.2.29.39.41.58l.18-.11a4.59,4.59,0,0,1,.61,1.69v.06h0v0a4.46,4.46,0,0,1,0,.73v41.7h0c-.06,2.36-1.75,4.12-5.32,5.55A24.61,24.61,0,0,1,147.47,67.25Z" class="cls-29"></path><path d="M151.32,11.43a16.26,16.26,0,0,1,8,2.25,7.18,7.18,0,0,1,2,1.64l-.16.13c.14.2.28.39.4.58l.18-.11a4.37,4.37,0,0,1,.58,1.63h0v.07a4.15,4.15,0,0,1,0,.7v.09l0,0V59.78h0v.27c-.06,2.28-1.72,4-5.22,5.4a24.49,24.49,0,0,1-9.59,1.64c-.75,0-1.56,0-2.55,0a15.24,15.24,0,0,1-8-2,5.13,5.13,0,0,1-3-4.43h0v-39h0a8.24,8.24,0,0,1,1.32-4.07,11.44,11.44,0,0,1,4-3.87c3.53-2.07,8.1-2.24,12.11-2.24h0m0-.32h0c-4.17,0-8.7.19-12.27,2.28s-5.44,5.77-5.43,8.22v39a5.41,5.41,0,0,0,3.16,4.71,15.68,15.68,0,0,0,8.13,2.08c.88,0,1.73,0,2.56,0a24.82,24.82,0,0,0,9.71-1.66c3.76-1.51,5.36-3.35,5.42-5.69V18.38a0,0,0,0,1,0,0,4.78,4.78,0,0,0,0-.76.84.84,0,0,1,0-.1h-.05a5.81,5.81,0,0,0-3.12-4.09,16.41,16.41,0,0,0-8.12-2.3Zm10.43,4.74c-.12-.18-.26-.37-.42-.59a4.56,4.56,0,0,1,.42.59Z" class="cls-7"></path><g class="cls-30"><path d="M161.29,61.86V21.11s-2.55-4.13-6.95-3.69-5.1,2.95-5.1,2.95V65.73s-.17-1.87.55-1.48c2.16,1.15,6.87,2.88,9.78-2C160,61.5,161,62.85,161.29,61.86Z" class="cls-31"></path></g><ellipse ry="4.09" rx="2.62" cy="48.86" cx="154.52" class="cls-32"></ellipse><path d="M164.1,60a9.85,9.85,0,0,0-.33-2.09,15.13,15.13,0,0,0-8.18-10.09,1.31,1.31,0,0,0-1.8.76l-.33,1.06.37-1.18,0,.11a1.21,1.21,0,0,0,.66,1.46,12.64,12.64,0,0,1,6.82,8.5,10,10,0,0,1-1.72,8,1.19,1.19,0,0,0,.22,1.61h0a1.32,1.32,0,0,0,1.92-.26A12.85,12.85,0,0,0,164.1,60Z" class="cls-2"></path><path d="M158.27,73.82s2.81-1.39,3.27-3.85-1.19-5-3.29-4.81a8.2,8.2,0,0,0-4.1,2l1.19,2.68a4.87,4.87,0,0,1,2.55-1.55c1.22-.06,2.06,2.47-.56,3.64Z" class="cls-33"></path><path d="M147.39,51.89h-3.72a.62.62,0,0,1-.61-.62h0a.62.62,0,0,1,.61-.62h3.72a.62.62,0,0,1,.62.62h0A.62.62,0,0,1,147.39,51.89Z" class="cls-7"></path><path d="M138.73,51.89H135a.62.62,0,0,1-.62-.62h0a.62.62,0,0,1,.62-.62h3.71a.62.62,0,0,1,.62.62h0A.62.62,0,0,1,138.73,51.89Z" class="cls-7"></path></g><g id="tube"><path d="M181.9,93.38a7,7,0,0,0-.84-3.09,4.86,4.86,0,0,0-.43-.73,6.86,6.86,0,0,0-2.2-2.19,3.85,3.85,0,0,0-.73-.33,1,1,0,0,0-.55-.12h0l-.25,0a1.74,1.74,0,0,0-1.35.6L115.8,121.81l9.71,5.55L180.17,95.9l.33-.12A2.24,2.24,0,0,0,181.9,93.38Z" class="cls-34"></path><path d="M131.4,130.71l59.51-34.18,0,0a1.59,1.59,0,0,1,1.23-.54h.33a1.14,1.14,0,0,1,.42.12,3.77,3.77,0,0,1,.71.32,6.73,6.73,0,0,1,2.15,2.14,3.59,3.59,0,0,1,.41.71,6.72,6.72,0,0,1,.83,3c0,1.2-.47,2-1.29,2.25l-.33.11h0l-54.6,31.43Z" class="cls-35"></path><path d="M192.16,96.12h.33a1.17,1.17,0,0,1,.35.1h0a3.06,3.06,0,0,1,.67.3,6.52,6.52,0,0,1,2.1,2.09h0a3.94,3.94,0,0,1,.4.68,6.71,6.71,0,0,1,.8,2.94c0,1.12-.43,1.88-1.17,2.09h0l-.29.1h0l0,0-54.5,31.38-9.06-5.19,59.25-34,0,0,0,0a1.43,1.43,0,0,1,1.11-.49m0-.32a1.72,1.72,0,0,0-1.35.6l-59.73,34.31,9.7,5.55,54.66-31.46.33-.12c.85-.24,1.4-1.09,1.4-2.4a7,7,0,0,0-.84-3.09,4.14,4.14,0,0,0-.43-.73,6.86,6.86,0,0,0-2.2-2.19,3.59,3.59,0,0,0-.73-.33,1.28,1.28,0,0,0-.48-.13h-.08l-.25,0Z" class="cls-6"></path><path d="M171.87,105.48a5.46,5.46,0,0,0-5.64-.35,5.81,5.81,0,0,0-2.53,5.2,9.45,9.45,0,0,0,.12,1.49l4.41-2.54a.52.52,0,0,1,.18-.26.32.32,0,0,1,.19,0,2.32,2.32,0,0,1,1.09.38,9,9,0,0,1,3.81,6.79c0,.81-.22,1.24-.35,1.32l-4.66,2.68a8.74,8.74,0,0,0,1.2.85,6.4,6.4,0,0,0,3.27,1,4.5,4.5,0,0,0,2.36-.64,5.77,5.77,0,0,0,2.53-5.2A13.53,13.53,0,0,0,171.87,105.48Z" class="cls-36"></path><path d="M214.54,112.13a6.89,6.89,0,0,0-.84-3.08,3.9,3.9,0,0,0-.43-.74,6.86,6.86,0,0,0-2.2-2.19,4.61,4.61,0,0,0-.73-.33,1.14,1.14,0,0,0-.55-.12h0l-.26,0a1.74,1.74,0,0,0-1.35.6l-59.73,34.31,9.71,5.56,54.66-31.47a2.19,2.19,0,0,0,.33-.12A2.24,2.24,0,0,0,214.54,112.13Z" class="cls-37"></path><path d="M190.43,131.8a6.29,6.29,0,0,1-3.19-1,8.11,8.11,0,0,1-1-.69l4.45-2.57c.22-.13.43-.63.43-1.45a9.19,9.19,0,0,0-3.88-6.93,2.35,2.35,0,0,0-1.17-.41.55.55,0,0,0-.28.06.72.72,0,0,0-.22.29l-4.16,2.4a10.6,10.6,0,0,1-.08-1.24,5.63,5.63,0,0,1,2.45-5.06,4.45,4.45,0,0,1,2.28-.61,6.29,6.29,0,0,1,3.19,1,13.36,13.36,0,0,1,5.91,10.54,5.65,5.65,0,0,1-2.45,5.06A4.47,4.47,0,0,1,190.43,131.8Z" class="cls-38"></path><path d="M186.06,114.79a6.21,6.21,0,0,1,3.11.94,13.16,13.16,0,0,1,5.83,10.4,5.49,5.49,0,0,1-2.37,4.92,4.26,4.26,0,0,1-2.2.59,6.18,6.18,0,0,1-3.11-.94c-.27-.16-.53-.34-.8-.53l4.26-2.45a2,2,0,0,0,.5-1.59,9.39,9.39,0,0,0-4-7.07,2.57,2.57,0,0,0-1.25-.43.6.6,0,0,0-.62.39l-3.91,2.26c0-.34,0-.66,0-1a5.47,5.47,0,0,1,2.37-4.92,4.26,4.26,0,0,1,2.2-.59m0-.32a4.5,4.5,0,0,0-2.36.64,5.77,5.77,0,0,0-2.53,5.19,9.67,9.67,0,0,0,.12,1.5l4.41-2.55a.6.6,0,0,1,.17-.26.46.46,0,0,1,.2,0,2.37,2.37,0,0,1,1.08.38,9,9,0,0,1,3.81,6.8c0,.8-.21,1.23-.35,1.31L186,130.12a10.61,10.61,0,0,0,1.2.86,6.49,6.49,0,0,0,3.28,1,4.52,4.52,0,0,0,2.36-.64,5.77,5.77,0,0,0,2.53-5.19,13.53,13.53,0,0,0-6-10.68,6.46,6.46,0,0,0-3.27-1Z" class="cls-6"></path><path d="M170.79,126.22a5.42,5.42,0,0,0-5.63-.34,5.77,5.77,0,0,0-2.53,5.2,9.64,9.64,0,0,0,.12,1.49l4.41-2.55a.52.52,0,0,1,.18-.26.41.41,0,0,1,.19,0,2.36,2.36,0,0,1,1.09.39,9,9,0,0,1,3.8,6.79c0,.8-.21,1.23-.35,1.31l-4.66,2.68a8.91,8.91,0,0,0,1.21.86,6.46,6.46,0,0,0,3.27,1,4.5,4.5,0,0,0,2.36-.64,5.75,5.75,0,0,0,2.53-5.19A13.53,13.53,0,0,0,170.79,126.22Z" class="cls-39"></path><path d="M174.55,124.11a5.44,5.44,0,0,0-5.64-.35,5.78,5.78,0,0,0-2.53,5.2,9.45,9.45,0,0,0,.12,1.49l4.41-2.54a.48.48,0,0,1,.18-.26.32.32,0,0,1,.19,0,2.32,2.32,0,0,1,1.09.38,9,9,0,0,1,3.81,6.79,1.81,1.81,0,0,1-.35,1.32l-4.66,2.68a8.74,8.74,0,0,0,1.2.85,6.48,6.48,0,0,0,3.27,1A4.58,4.58,0,0,0,178,140a5.78,5.78,0,0,0,2.53-5.2A13.52,13.52,0,0,0,174.55,124.11Z" class="cls-40"></path></g><g id="gears"><polygon points="83.88 141.34 83.86 138.26 83.85 141.11 83.87 144.19 83.88 141.34" class="cls-41"></polygon><polygon points="112.2 145.05 108.45 147.23 108.44 150.08 112.19 147.9 112.2 145.05" class="cls-42"></polygon><polygon points="68.56 147.23 64.78 145.05 64.78 147.9 68.55 150.08 68.56 147.23" class="cls-43"></polygon><path d="M76.57,157.11c0-.1.05-.2.08-.31s.06-.24.1-.36.08-.19.12-.29.11-.25.18-.38l.16-.26a4.38,4.38,0,0,1,.28-.42,2.43,2.43,0,0,1,.2-.25,6.39,6.39,0,0,1,.51-.55l.2-.19a3.79,3.79,0,0,1,.37-.31l.33-.26.44-.29c.15-.1.29-.2.46-.3.36-.21.74-.39,1.13-.57l.34-.15c.31-.13.63-.25,1-.36l.35-.12.62-.17.47-.13.66-.14.46-.09c.45-.08.91-.15,1.37-.19l.43,0,.81,0,.53,0h1.21l.61,0,.56,0,.6.07.54.08.63.11.5.1c.26,0,.5.12.75.18l.41.11c.45.13.88.28,1.3.44l.6.26.32.13c.3.15.6.3.88.46,2.37,1.37,3.56,3.17,3.55,5v-2.86c0-1.79-1.18-3.59-3.55-5-.29-.16-.58-.32-.88-.46l-.32-.14c-.18-.08-.35-.16-.54-.23l-.06,0c-.42-.17-.86-.31-1.3-.44l-.1,0-.31-.07-.75-.18-.2,0-.3-.06-.64-.11-.25,0-.28,0-.61-.07-.28,0-.27,0-.62,0-.3,0H87.6l-.81.06-.33,0h-.1c-.46.05-.92.11-1.37.19h-.07l-.38.08c-.23.05-.45.09-.67.15l-.47.12-.62.18-.14,0-.21.08c-.32.11-.64.23-1,.36l-.34.15a11,11,0,0,0-1.14.57l-.14.09c-.11.06-.21.14-.31.2l-.44.29-.33.27a3.79,3.79,0,0,0-.37.31l-.08.06a1.42,1.42,0,0,0-.12.13,5.2,5.2,0,0,0-.51.55l-.12.12-.08.12-.28.42a1.88,1.88,0,0,0-.12.18.36.36,0,0,0,0,.09c-.07.13-.12.25-.18.38s-.07.14-.1.22,0,0,0,.07-.07.24-.11.36-.05.16-.07.24v.07a2.47,2.47,0,0,0,0,.38c0,.08,0,.16,0,.24a.45.45,0,0,0,0,.11v2.85a2.16,2.16,0,0,1,0-.35C76.54,157.36,76.55,157.24,76.57,157.11Z" class="cls-44"></path><path d="M112.18,157.68c-.06.17-.12.34-.19.52l-.15.34-.15.33-.18.34c-.05.11-.11.21-.17.32l-.25.4-.19.29-.29.4-.2.27c-.2.24-.41.49-.63.73l-.09.09-.63.63c-.17.16-.34.32-.52.47v2.85a5.34,5.34,0,0,0,.44-.39l.09-.08c.21-.21.42-.41.61-.62l.1-.1c.23-.24.43-.49.63-.73l0-.06.15-.21.29-.4.19-.29c.09-.13.17-.27.25-.4l.08-.13.09-.18a2.91,2.91,0,0,0,.18-.35,2.3,2.3,0,0,0,.15-.32l.15-.35a.76.76,0,0,0,.06-.16c0-.12.09-.24.13-.36h5.32v-2.85Z" class="cls-45"></path><path d="M68.64,165.66v-2.85a11.81,11.81,0,0,1-3.7-5.13H59.63v2.85h5.32A11.81,11.81,0,0,0,68.64,165.66Z" class="cls-46"></path><path d="M102.06,166.58c-.63.25-1.29.47-2,.68-.37.12-.75.22-1.13.32s-.69.21-1,.29-.78.17-1.17.25-.72.16-1.09.22c-.8.15-1.62.27-2.44.36v2.85c.82-.09,1.64-.21,2.44-.35l.12,0c.33-.06.65-.14,1-.21s.78-.15,1.16-.24.71-.2,1.06-.3l1.12-.31.13,0c.63-.2,1.24-.42,1.84-.65l3.77,2.18,6.48-3.77V165l-6.47,3.77Z" class="cls-47"></path><path d="M84,168.7c-.57-.06-1.14-.15-1.71-.24l-1.22-.21-1-.22c-.48-.11-1-.22-1.43-.35s-.74-.19-1.1-.3l-.49-.15c-.63-.2-1.26-.42-1.86-.65h0l-3.76,2.18L64.89,165v2.85l6.52,3.76,3.76-2.18c.6.24,1.23.45,1.86.65l.49.15.48.15.62.15c.48.13,1,.25,1.43.35l.46.12.59.1c.41.07.81.15,1.22.21l.56.1,1.15.14h0v3.09h9.19v-2.86H84.05Z" class="cls-48"></path><path d="M105.84,168.76l-3.78-2.18a35.28,35.28,0,0,1-8.84,2.12l0,3.08H84.05l0-3.08a35.62,35.62,0,0,1-8.87-2.12l-3.75,2.18L64.89,165l3.76-2.19a11.73,11.73,0,0,1-3.7-5.13H59.63l0-5.32h5.32a11.75,11.75,0,0,1,3.64-5.13l-3.78-2.18,6.48-3.76L75,143.47a35,35,0,0,1,8.85-2.13l0-3.08h9.19v3.08a35.2,35.2,0,0,1,8.87,2.13l3.75-2.18,6.52,3.76-3.75,2.18a11.92,11.92,0,0,1,3.7,5.13h5.32l0,5.32h-5.32a11.64,11.64,0,0,1-3.64,5.13l3.77,2.18ZM80.06,160c4.72,2.72,12.34,2.72,17,0s4.67-7.14,0-9.87-12.35-2.72-17,0-4.66,7.14.06,9.87" class="cls-49"></path><polygon points="128.44 154.89 128.43 153.21 128.43 154.76 128.44 156.44 128.44 154.89" class="cls-28"></polygon><polygon points="143.87 156.91 141.83 158.1 141.82 159.65 143.87 158.46 143.87 156.91" class="cls-28"></polygon><polygon points="120.09 158.1 118.04 156.91 118.03 158.46 120.09 159.65 120.09 158.1" class="cls-28"></polygon><path d="M124.46,163.48c0-.06,0-.11,0-.17s0-.13.06-.2l.06-.16.1-.2.09-.15.15-.22.11-.14a3.84,3.84,0,0,1,.28-.3l.1-.1.21-.17a1.24,1.24,0,0,1,.18-.14,2,2,0,0,1,.24-.16l.25-.16a5.86,5.86,0,0,1,.61-.32l.19-.07a4.65,4.65,0,0,1,.52-.2l.19-.07.33-.09.26-.07.36-.08.25-.05c.25,0,.5-.08.75-.1l.23,0,.44,0h1.28l.31,0,.32,0,.3,0,.34.06.28.05.4.1.23.06c.24.07.47.15.7.24l.33.14.17.08.49.25a3.27,3.27,0,0,1,1.93,2.7v-1.55a3.31,3.31,0,0,0-1.94-2.71l-.48-.25-.17-.07-.3-.13h0c-.23-.09-.47-.17-.71-.24l0,0-.17,0-.41-.1-.11,0a.9.9,0,0,1-.16,0l-.35-.06-.14,0-.15,0-.33,0-.16,0h-.14l-.34,0h-.16a.66.66,0,0,1-.14,0h-.64l-.45,0-.17,0h-.06c-.25,0-.5.06-.74.11h0l-.21,0-.37.08-.25.06-.34.1-.07,0-.12,0-.52.19-.18.08c-.22.1-.42.2-.62.31l-.08,0-.17.11-.24.16-.18.15-.2.16s0,0,0,0l-.07.07-.28.3-.06.06,0,.07-.16.23-.06.1,0,0-.09.2-.06.12a.06.06,0,0,1,0,0l-.06.2a.5.5,0,0,0,0,.13,0,0,0,0,0,0,0,1.49,1.49,0,0,0,0,.21.68.68,0,0,0,0,.14v1.61c0-.07,0-.13,0-.2Z" class="cls-28"></path><path d="M120.14,168.14v-1.55a6.45,6.45,0,0,1-2-2.8h-2.9v1.55h2.9A6.51,6.51,0,0,0,120.14,168.14Z" class="cls-28"></path><path d="M129.82,171.47l-1.29.75v-.87h0l-.63-.08-.3-.05-.67-.12-.32-.06-.25-.06-.78-.19-.33-.08-.27-.08-.26-.08c-.35-.12-.69-.23-1-.36l-2,1.19-3.55-2v-1.56l3.55,2,2-1.18c.33.12.67.24,1,.35l.26.08.61.17.64.16a.5.5,0,0,1,.13,0l.58.12.66.11.37.06.56.07v1.68Z" class="cls-28"></path><path d="M146.74,160.89h-2.9a5.57,5.57,0,0,0-1-1.81,7.46,7.46,0,0,0-1-1l2-1.19-3.55-2-2,1.19a19.39,19.39,0,0,0-4.83-1.16v-1.68h-5v1.68h0a19.13,19.13,0,0,0-4.81,1.16l-2.05-1.19-3.53,2,2.06,1.19a7.61,7.61,0,0,0-1,1,5.61,5.61,0,0,0-1,1.8h-2.9l0,2.9h2.9a6.37,6.37,0,0,0,2,2.79l-1,.58-1.06.61,3.55,2,2-1.18c.33.12.67.25,1,.35l.26.08.61.17h.06l.58.15a.5.5,0,0,1,.13,0l.58.12.66.11.37.06.56.07v1.68h1.29l16.93-9.78Zm-9.33,2.25h0a3.9,3.9,0,0,1-1.77,1.89,10.25,10.25,0,0,1-9.28,0,3.82,3.82,0,0,1-1.8-1.93,2.28,2.28,0,0,1-.14-.77.13.13,0,0,1,0-.06,1,1,0,0,1,0-.24.68.68,0,0,1,0-.14h0v0a1.71,1.71,0,0,1,.09-.3s0,0,0-.05a2.92,2.92,0,0,1,.14-.31l0,0h0a.05.05,0,0,1,0,0,1.85,1.85,0,0,1,.23-.34,3.35,3.35,0,0,1,.41-.44h0c.13-.11.27-.23.42-.34l.12-.08.21-.13s0,0,.06,0l.1-.06a7.1,7.1,0,0,1,1.43-.62l.08,0,.47-.13a.31.31,0,0,1,.13,0,2.33,2.33,0,0,1,.36-.08l.11,0h.19a6,6,0,0,1,.61-.09H130l.44,0h.17a3.84,3.84,0,0,1,.48,0,.56.56,0,0,1,.13,0h.08l.42,0h.16l.14,0,.46.05h0l.47.08.16,0h0c.22,0,.45.1.67.16l0,0a7.39,7.39,0,0,1,.71.24h0l.15.06c.2.08.38.17.56.26l.24.13.19.12.16.1a3.55,3.55,0,0,1,.31.23,3.11,3.11,0,0,1,.46.42.94.94,0,0,1,.1.1,3.77,3.77,0,0,1,.31.42l.09.14.07.15h0a.91.91,0,0,1,.07.14.88.88,0,0,1,0,.15s0,.09.05.15l0,.14,0,.14v.16s0,.1,0,.15A2.38,2.38,0,0,1,137.41,163.14Z" class="cls-50"></path><polygon points="109.52 171.99 109.51 170.62 109.51 171.89 109.52 173.27 109.52 171.99" class="cls-28"></polygon><polygon points="122.14 173.65 120.47 174.62 120.47 175.89 122.14 174.92 122.14 173.65" class="cls-28"></polygon><polygon points="102.69 174.62 101.01 173.65 101 174.92 102.69 175.89 102.69 174.62" class="cls-28"></polygon><path d="M117,178.1v1.27a1.74,1.74,0,0,0-.06-.45,1.27,1.27,0,0,0-.06-.18,3,3,0,0,0-1.47-1.57L115,177l-.14-.06-.27-.12-.58-.19-.18-.05-.34-.08-.22-.05-.28,0-.24,0-.27,0-.25,0h-1l-.36,0h-.19l-.61.09-.2,0-.3.07-.21.05-.28.08-.15.05-.42.16-.16.07a4.74,4.74,0,0,0-.5.26l-.21.13-.19.13-.15.11-.16.14-.09.09a2.55,2.55,0,0,0-.23.24l-.09.11-.12.19-.08.12s0,.11-.07.17l-.06.11h0c0,.06,0,.11,0,.16l0,.14c0,.06,0,.11,0,.17s0,.11,0,.16V178s0-.07,0-.11,0-.11,0-.17a0,0,0,0,1,0,0l0-.11a1.42,1.42,0,0,1,0-.16,0,0,0,0,1,0,0l0-.1.08-.16v0a.56.56,0,0,0,0-.08l.13-.18.06-.09,0,0,.23-.24,0,0,.06-.05.08-.07.08-.07.15-.12.2-.12.07-.05.13-.09.25-.13.26-.12.15-.07.42-.16.07,0,0,0H109l.27-.08.22-.06.15,0,.14,0,.09,0h0l.07,0h0c.24,0,.48-.08.73-.1h.07l.36,0h.23c.1,0,.2,0,.3,0H112l.27,0h.25l.24,0,.65.11h0l.08,0h0l.33.08.07,0H114l0,0,.31.09.27.1h0l.12,0,.12.06.14.06.4.2.37.24a3,3,0,0,1,.46.39A2.2,2.2,0,0,1,117,178.1Z" class="cls-28"></path><path d="M102.73,182.84v-1.28a5.23,5.23,0,0,1-1.65-2.28H98.71v1.27h2.37A5.31,5.31,0,0,0,102.73,182.84Z" class="cls-28"></path><path d="M108.82,184.08l-.65-.11-1.54.89-.17-.06c-.28-.09-.56-.18-.83-.29l-1.67,1-2.91-1.67v-1.27l2.9,1.68,1.67-1a3.52,3.52,0,0,0,.42.15l.42.14.21.07.5.14.63.15.18,0,.19,0,.1,0Z" class="cls-28"></path><path d="M120.47,174.62l1.67-1-2.9-1.68-1.67,1a16.27,16.27,0,0,0-4-.95v-1.37h-4.1V172h0a15.92,15.92,0,0,0-3.93.95l-1.69-1L101,173.65l1.68,1a6.77,6.77,0,0,0-.8.81,4.64,4.64,0,0,0-.82,1.48H98.7v2.37h2.37a5.23,5.23,0,0,0,1.65,2.28l-.8.47-.87.51,2.9,1.68,1.67-1a3.52,3.52,0,0,0,.42.15l.42.14.21.07c.43.13.86.24,1.31.33l.18,0,.65.11-.54-.09-.1,0,5-2.9a8.31,8.31,0,0,1-5.39-.77,3.16,3.16,0,0,1-1.48-1.58,1.94,1.94,0,0,1-.11-.63V178a.09.09,0,0,1,0-.05,1.79,1.79,0,0,1,0-.23,0,0,0,0,1,0,0s0,0,0-.05a.94.94,0,0,1,.07-.22,0,0,0,0,1,0,0v0a2.12,2.12,0,0,1,.11-.21,0,0,0,0,1,0,0v0a1.51,1.51,0,0,1,.18-.26l.06-.09,0,0a1.31,1.31,0,0,1,.23-.24l0,0,.06-.05.08-.07.23-.19a2.46,2.46,0,0,1,.27-.17l.13-.09.25-.13a6.05,6.05,0,0,1,.9-.37l.08,0h0l.49-.14.15,0,.23-.05H110c.25,0,.49-.08.74-.1l.43,0h.23a1.5,1.5,0,0,1,.3,0s0,0,.07,0h.06l.38,0h.25l.24,0,.65.11a.53.53,0,0,1,.12,0h0a2.92,2.92,0,0,1,.4.1.2.2,0,0,1,.11,0l.31.09.3.11.12,0,.26.12.4.2.37.24a3.5,3.5,0,0,1,.46.39,2.2,2.2,0,0,1,.75,1.58,1.77,1.77,0,0,1-.12.64,1.23,1.23,0,0,1-.13.29l.19-.11a1.74,1.74,0,0,1,.06.45v-.48l4.79-2.77a4.57,4.57,0,0,0-.49-.69A6.1,6.1,0,0,0,120.47,174.62Z" class="cls-14"></path></g><g id="socket"><path d="M87.48,95.87v5.37c0,.29,1.76.53,3.94.53s3.94-.24,3.94-.53V95.87Z" class="cls-14"></path><ellipse ry="0.53" rx="3.94" cy="95.87" cx="91.42" class="cls-6"></ellipse><path d="M90.24,95.81h-1V92.16a.49.49,0,0,1,.5-.49h0a.5.5,0,0,1,.5.49v3.65Z" class="cls-51"></path><path d="M93.49,95.81h-1V92.16a.49.49,0,0,1,.49-.49h0a.49.49,0,0,1,.5.49v3.65Z" class="cls-52"></path></g></g></g></svg>