<svg viewBox="0 0 278.66 259.45" xmlns:xlink="http://www.w3.org/1999/xlink" xmlns="http://www.w3.org/2000/svg"><defs><style>.cls-1{fill:#e7f6fd;}.cls-2{fill:url(#未命名的渐变_20);}.cls-3{fill:#222457;}.cls-4{fill:url(#未命名的渐变_16);}.cls-5{opacity:0.46;}.cls-6{fill:#cde9f9;}.cls-7{fill:#306097;}.cls-8{fill:url(#未命名的渐变_10);}.cls-9{fill:url(#未命名的渐变_37);}.cls-10{fill:url(#未命名的渐变_15);}.cls-11{fill:url(#未命名的渐变_12);}.cls-12{fill:#3c7fbe;}.cls-13{fill:#bd8aae;}.cls-14{fill:url(#未命名的渐变_10-2);}.cls-15{fill:url(#未命名的渐变_37-2);}.cls-16{fill:url(#未命名的渐变_10-3);}.cls-17{fill:#fff;}.cls-18{fill:url(#未命名的渐变_10-4);}.cls-19{fill:url(#未命名的渐变_11);}.cls-20{fill:url(#未命名的渐变_37-3);}.cls-21{fill:url(#未命名的渐变_10-5);}.cls-22{fill:url(#未命名的渐变_37-4);}.cls-23{fill:url(#未命名的渐变_37-5);}.cls-24{fill:url(#未命名的渐变_37-6);}.cls-25{fill:url(#未命名的渐变_37-7);}.cls-26{fill:url(#未命名的渐变_37-8);}.cls-27{fill:url(#未命名的渐变_37-9);}.cls-28{fill:url(#未命名的渐变_37-10);}.cls-29{fill:url(#未命名的渐变_37-11);}.cls-30{fill:url(#未命名的渐变_37-12);}.cls-31{fill:url(#未命名的渐变_37-13);}.cls-32{fill:url(#未命名的渐变_37-14);}.cls-33{fill:url(#未命名的渐变_37-15);}.cls-34{fill:url(#未命名的渐变_37-16);}.cls-35{fill:url(#未命名的渐变_37-17);}.cls-36{fill:url(#未命名的渐变_37-18);}.cls-37{fill:url(#未命名的渐变_37-19);}.cls-38{fill:url(#未命名的渐变_28);}.cls-39{fill:url(#未命名的渐变_25);}.cls-40{fill:url(#未命名的渐变_25-2);}.cls-41{fill:url(#未命名的渐变_33);}.cls-42{fill:#2a2f6d;}.cls-43{opacity:0.42;}.cls-44{fill:url(#未命名的渐变_25-5);}.cls-45{fill:url(#未命名的渐变_7);}.cls-46{fill:url(#未命名的渐变_38);}.cls-47{fill:#fde0d9;}.cls-48,.cls-49,.cls-50,.cls-51,.cls-52{opacity:0.3;isolation:isolate;}.cls-48{fill:url(#未命名的渐变_42);}.cls-49{fill:url(#未命名的渐变_42-2);}.cls-50{fill:url(#未命名的渐变_41);}.cls-51{fill:url(#未命名的渐变_42-3);}.cls-52{fill:url(#未命名的渐变_43);}.cls-53{fill:#ecbfb9;}.cls-54{fill:url(#未命名的渐变_25-6);}.cls-55{opacity:0.68;}.cls-56{opacity:0.53;}.cls-57{fill:#aecfdc;}.cls-58{fill:#17a1db;}.cls-59{fill:url(#未命名的渐变_37-20);}.cls-60{opacity:0.5;}.cls-61{fill:url(#未命名的渐变_18);}.cls-62{fill:url(#未命名的渐变_48);}.cls-63{fill:url(#未命名的渐变_37-21);}.cls-64{fill:url(#未命名的渐变_37-22);}.cls-65{fill:url(#未命名的渐变_37-23);}.cls-66{fill:url(#未命名的渐变_37-24);}.cls-67{fill:url(#未命名的渐变_37-25);}.cls-68{fill:url(#未命名的渐变_37-26);}.cls-69{fill:url(#未命名的渐变_37-27);}</style><linearGradient gradientUnits="userSpaceOnUse" gradientTransform="matrix(1, 0, 0, -1, 0, 1038.96)" y2="867.98" x2="228.18" y1="867.98" x1="73.74" id="未命名的渐变_20"><stop stop-color="#21409a" offset="0"></stop><stop stop-color="#28429a" offset="0"></stop><stop stop-color="#bd8aae" offset="0.62"></stop><stop stop-color="#21409a" offset="0.93"></stop></linearGradient><linearGradient gradientUnits="userSpaceOnUse" gradientTransform="matrix(1, 0, 0, -1, 0, 1038.96)" y2="863.34" x2="222.75" y1="863.34" x1="75.91" id="未命名的渐变_16"><stop stop-color="#21409a" offset="0.41"></stop><stop stop-opacity="0" stop-color="#29abe2" offset="1"></stop></linearGradient><linearGradient gradientUnits="userSpaceOnUse" gradientTransform="matrix(1, 0, 0, -1, 0, 1038.96)" y2="913.4" x2="202.63" y1="913.4" x1="174.85" id="未命名的渐变_10"><stop stop-color="#21409a" offset="0"></stop><stop stop-color="#bd8aae" offset="1"></stop></linearGradient><linearGradient gradientUnits="userSpaceOnUse" gradientTransform="matrix(1, 0, 0, -1, 0, 1038.96)" y2="906.62" x2="137.49" y1="906.62" x1="94.31" id="未命名的渐变_37"><stop stop-color="#28a8e0" offset="0.06"></stop><stop stop-opacity="0" stop-color="#29abe2" offset="1"></stop></linearGradient><linearGradient gradientUnits="userSpaceOnUse" gradientTransform="matrix(1, 0, 0, -1, 0, 1038.96)" y2="909.72" x2="188" y1="909.72" x1="94.31" id="未命名的渐变_15"><stop stop-color="#28a8e0" offset="0.06"></stop><stop stop-opacity="0" stop-color="#29abe2" offset="0.67"></stop></linearGradient><linearGradient gradientUnits="userSpaceOnUse" gradientTransform="matrix(1, 0, 0, -1, 0, 1038.96)" y2="891.24" x2="116.3" y1="891.24" x1="94.31" id="未命名的渐变_12"><stop stop-color="#3c7fbe" offset="0.06"></stop><stop stop-opacity="0" stop-color="#29abe2" offset="1"></stop></linearGradient><linearGradient xlink:href="#未命名的渐变_10" y2="989.31" x2="188.16" y1="989.31" x1="93.91" id="未命名的渐变_10-2"></linearGradient><linearGradient xlink:href="#未命名的渐变_37" y2="908.29" x2="183.1" y1="908.29" x1="137.99" id="未命名的渐变_37-2"></linearGradient><linearGradient xlink:href="#未命名的渐变_10" y2="858.87" x2="110.25" y1="858.87" x1="83.78" id="未命名的渐变_10-3"></linearGradient><linearGradient xlink:href="#未命名的渐变_10" y2="906.62" x2="181.43" y1="906.62" x1="147.08" id="未命名的渐变_10-4"></linearGradient><linearGradient gradientUnits="userSpaceOnUse" gradientTransform="matrix(1, 0, 0, -1, 0, 1038.96)" y2="989.22" x2="134.8" y1="989.22" x1="94.96" id="未命名的渐变_11"><stop stop-color="#444c9d" offset="0.03"></stop><stop stop-opacity="0.74" stop-color="#4162ab" offset="0.28"></stop><stop stop-opacity="0.17" stop-color="#3299d4" offset="0.84"></stop><stop stop-opacity="0" stop-color="#29abe2" offset="1"></stop><stop stop-color="#28a8e0" offset="1"></stop></linearGradient><linearGradient xlink:href="#未命名的渐变_37" y2="819.52" x2="233.71" y1="819.52" x1="156.7" id="未命名的渐变_37-3"></linearGradient><linearGradient xlink:href="#未命名的渐变_10" y2="828.42" x2="233.71" y1="828.42" x1="156.7" id="未命名的渐变_10-5"></linearGradient><linearGradient xlink:href="#未命名的渐变_37" y2="845.91" x2="211.32" y1="845.91" x1="211.31" id="未命名的渐变_37-4"></linearGradient><linearGradient xlink:href="#未命名的渐变_37" y2="843.23" x2="222.42" y1="843.23" x1="220.94" id="未命名的渐变_37-5"></linearGradient><linearGradient xlink:href="#未命名的渐变_37" y2="843.23" x2="205.32" y1="843.23" x1="203.83" id="未命名的渐变_37-6"></linearGradient><linearGradient xlink:href="#未命名的渐变_37" y2="840.94" x2="217.87" y1="840.94" x1="208.42" id="未命名的渐变_37-7"></linearGradient><linearGradient xlink:href="#未命名的渐变_37" y2="837.25" x2="224.49" y1="837.25" x1="220.98" id="未命名的渐变_37-8"></linearGradient><linearGradient xlink:href="#未命名的渐变_37" y2="837.25" x2="205.35" y1="837.25" x1="201.81" id="未命名的渐变_37-9"></linearGradient><linearGradient xlink:href="#未命名的渐变_37" y2="834.45" x2="222.46" y1="834.45" x1="214.98" id="未命名的渐变_37-10"></linearGradient><linearGradient xlink:href="#未命名的渐变_37" y2="833.81" x2="214.98" y1="833.81" x1="203.88" id="未命名的渐变_37-11"></linearGradient><linearGradient xlink:href="#未命名的渐变_37" y2="835.01" x2="195.4" y1="835.01" x1="195.39" id="未命名的渐变_37-12"></linearGradient><linearGradient xlink:href="#未命名的渐变_37" y2="832.93" x2="204.01" y1="832.93" x1="202.87" id="未命名的渐变_37-13"></linearGradient><linearGradient xlink:href="#未命名的渐变_37" y2="832.93" x2="190.74" y1="832.93" x1="189.59" id="未命名的渐变_37-14"></linearGradient><linearGradient xlink:href="#未命名的渐变_37" y2="831.15" x2="200.48" y1="831.15" x1="193.15" id="未命名的渐变_37-15"></linearGradient><linearGradient xlink:href="#未命名的渐变_37" y2="828.29" x2="205.62" y1="828.29" x1="202.89" id="未命名的渐变_37-16"></linearGradient><linearGradient xlink:href="#未命名的渐变_37" y2="828.29" x2="190.77" y1="828.29" x1="188.02" id="未命名的渐变_37-17"></linearGradient><linearGradient xlink:href="#未命名的渐变_37" y2="826.11" x2="204.05" y1="826.11" x1="198.24" id="未命名的渐变_37-18"></linearGradient><linearGradient xlink:href="#未命名的渐变_37" y2="825.61" x2="198.24" y1="825.61" x1="189.62" id="未命名的渐变_37-19"></linearGradient><linearGradient gradientUnits="userSpaceOnUse" gradientTransform="matrix(1, 0, 0, -1, 0, 1038.96)" y2="899.59" x2="87.28" y1="899.59" x1="77.16" id="未命名的渐变_28"><stop stop-color="#21409a" offset="0"></stop><stop stop-opacity="0" stop-color="#29abe2" offset="1"></stop></linearGradient><linearGradient gradientUnits="userSpaceOnUse" gradientTransform="matrix(1, 0, 0, -1, 0, 1038.96)" y2="925.99" x2="117.69" y1="925.99" x1="82.26" id="未命名的渐变_25"><stop stop-color="#bd8aae" offset="0"></stop><stop stop-opacity="0" stop-color="#2484c6" offset="1"></stop></linearGradient><linearGradient xlink:href="#未命名的渐变_25" y2="910.61" x2="117.69" y1="910.61" x1="82.26" id="未命名的渐变_25-2"></linearGradient><linearGradient gradientUnits="userSpaceOnUse" gradientTransform="matrix(1, 0, 0, -1, 0, 1038.96)" y2="875.86" x2="125.28" y1="875.86" x1="115.15" id="未命名的渐变_33"><stop stop-color="#a7a9ac" offset="0"></stop><stop stop-color="#e6e7e8" offset="0.42"></stop><stop stop-color="#fff" offset="0.76"></stop></linearGradient><linearGradient xlink:href="#未命名的渐变_25" y2="893.57" x2="251.18" y1="893.57" x1="244.19" id="未命名的渐变_25-5"></linearGradient><linearGradient gradientUnits="userSpaceOnUse" gradientTransform="matrix(1, 0, 0, -1, 0, 1038.96)" y2="894.14" x2="254.73" y1="894.14" x1="249.46" id="未命名的渐变_7"><stop stop-color="#306097" offset="0.14"></stop><stop stop-color="#1f4b75" offset="0.76"></stop></linearGradient><linearGradient gradientUnits="userSpaceOnUse" gradientTransform="matrix(1, 0, 0, -1, 0, 1038.96)" y2="918.47" x2="252.57" y1="918.47" x1="243.95" id="未命名的渐变_38"><stop stop-color="#fff" offset="0"></stop><stop stop-color="#939598" offset="0.96"></stop></linearGradient><linearGradient gradientUnits="userSpaceOnUse" gradientTransform="matrix(1, 0, 0, -1, 0, 1038.96)" y2="921.37" x2="248.24" y1="921.37" x1="238.11" id="未命名的渐变_42"><stop stop-color="#d2d2d1" offset="0"></stop><stop stop-color="#fff" offset="1"></stop></linearGradient><linearGradient xlink:href="#未命名的渐变_42" y2="915.94" x2="252.57" y1="915.94" x1="241.43" id="未命名的渐变_42-2"></linearGradient><linearGradient gradientUnits="userSpaceOnUse" gradientTransform="matrix(1, 0, 0, -1, 0, 1038.96)" y2="925.84" x2="237.1" y1="925.84" x1="222.88" id="未命名的渐变_41"><stop stop-color="#fff" offset="0"></stop><stop stop-color="#808285" offset="0.79"></stop></linearGradient><linearGradient xlink:href="#未命名的渐变_42" y2="932.3" x2="251.69" y1="932.3" x1="236.98" id="未命名的渐变_42-3"></linearGradient><linearGradient gradientUnits="userSpaceOnUse" gradientTransform="matrix(1, 0, 0, -1, 0, 1038.96)" y2="917.72" x2="251.51" y1="917.72" x1="233.35" id="未命名的渐变_43"><stop stop-color="#fff" offset="0"></stop><stop stop-color="#d2d2d1" offset="0.88"></stop></linearGradient><linearGradient xlink:href="#未命名的渐变_25" y2="927.47" x2="232.52" y1="927.47" x1="210.96" id="未命名的渐变_25-6"></linearGradient><linearGradient xlink:href="#未命名的渐变_37" y2="841.05" x2="249.17" y1="841.05" x1="225.9" id="未命名的渐变_37-20"></linearGradient><linearGradient gradientUnits="userSpaceOnUse" gradientTransform="translate(981.9 1038.96) rotate(180)" y2="839.04" x2="742.59" y1="839.04" x1="732.8" id="未命名的渐变_18"><stop stop-color="#fff" offset="0.42"></stop><stop stop-opacity="0" stop-color="#2484c6" offset="1"></stop></linearGradient><linearGradient gradientUnits="userSpaceOnUse" gradientTransform="matrix(1, 0, 0, -1, 0, 1038.96)" y2="826.28" x2="236.03" y1="826.28" x1="231.77" id="未命名的渐变_48"><stop stop-color="#21409a" offset="0.24"></stop><stop stop-opacity="0.55" stop-color="#215dab" offset="0.66"></stop><stop stop-opacity="0" stop-color="#29abe2" offset="1"></stop></linearGradient><linearGradient xlink:href="#未命名的渐变_37" gradientTransform="matrix(0.28, -0.06, -0.06, -0.28, 525.44, 688.67)" y2="1972.58" x2="-897.4" y1="1972.58" x1="-967.77" id="未命名的渐变_37-21"></linearGradient><linearGradient xlink:href="#未命名的渐变_37" gradientTransform="matrix(0.28, -0.06, -0.06, -0.28, 525.44, 688.67)" y2="2012.48" x2="-678.61" y1="2012.48" x1="-725.46" id="未命名的渐变_37-22"></linearGradient><linearGradient xlink:href="#未命名的渐变_37" gradientTransform="matrix(0.14, -0.03, -0.03, -0.14, 473.52, 757.92)" y2="4336.28" x2="-1356.45" y1="4336.28" x1="-1426.82" id="未命名的渐变_37-23"></linearGradient><linearGradient xlink:href="#未命名的渐变_37" gradientTransform="matrix(0.14, -0.03, -0.03, -0.14, 473.52, 757.92)" y2="4443.71" x2="-885.16" y1="4443.71" x1="-955.53" id="未命名的渐变_37-24"></linearGradient><linearGradient xlink:href="#未命名的渐变_37" gradientTransform="matrix(0.14, -0.03, -0.03, -0.14, 473.52, 757.92)" y2="4407.89" x2="-1258.49" y1="4407.89" x1="-1328.86" id="未命名的渐变_37-25"></linearGradient><linearGradient xlink:href="#未命名的渐变_37" gradientTransform="matrix(0.1, -0.02, -0.02, -0.1, 505.98, 752.42)" y2="6197.25" x2="-1728.82" y1="6197.25" x1="-1799.19" id="未命名的渐变_37-26"></linearGradient><linearGradient xlink:href="#未命名的渐变_37" gradientTransform="matrix(0.14, -0.03, -0.03, -0.14, 473.52, 757.92)" y2="4407.48" x2="-1122.43" y1="4407.48" x1="-1157.61" id="未命名的渐变_37-27"></linearGradient></defs><g id="图层_2"><g id="图层_1-2"><g id="flooring"><path d="M144.21,257,39.08,191.41a6.43,6.43,0,0,1,0-10.69l116.64-72.79a11.82,11.82,0,0,1,12.59,0L275.8,174.69a6.44,6.44,0,0,1,0,10.7L161,257A15.77,15.77,0,0,1,144.21,257Z" class="cls-1"></path><path d="M226.36,172.64l-3.61,2.25-69.51,43.38a10,10,0,0,1-10.71,0L75.91,176.69l-.35-.22a4.09,4.09,0,0,1,0-6.81l74.3-46.36a7.52,7.52,0,0,1,8,0l68.47,42.53A4.1,4.1,0,0,1,226.36,172.64Z" class="cls-2"></path><path d="M222.75,174.89l-69.51,43.38a10,10,0,0,1-10.71,0L75.91,176.69l70.7-44.11a7.5,7.5,0,0,1,8,0Z" class="cls-3"></path><path d="M222.75,174.89l-69.51,43.38a10,10,0,0,1-10.71,0L75.91,176.69l70.7-44.11a7.5,7.5,0,0,1,8,0Z" class="cls-4"></path><g id="Layer_11"><g class="cls-5"><path d="M57.83,106.92,4.63,140.37a3,3,0,0,1-4.56-2.82L0,119.7a3.33,3.33,0,0,1,1.51-2.84l53.2-33.44a3,3,0,0,1,4.56,2.81l.07,17.85A3.32,3.32,0,0,1,57.83,106.92Z" class="cls-6"></path></g><g class="cls-5"><path d="M107.6,110.25,54.4,143.69a3,3,0,0,1-4.56-2.82L49.77,123a3.35,3.35,0,0,1,1.51-2.85l53.2-33.44A3,3,0,0,1,109,89.56l.07,17.84A3.33,3.33,0,0,1,107.6,110.25Z" class="cls-6"></path></g><g class="cls-5"><path d="M122.08,66.82,68.87,100.26a3,3,0,0,1-4.56-2.82L64.24,79.6a3.34,3.34,0,0,1,1.51-2.85L119,43.31a3,3,0,0,1,4.55,2.82L123.58,64A3.34,3.34,0,0,1,122.08,66.82Z" class="cls-6"></path></g></g></g><g id="rocket"><path d="M202.63,138.46a4.47,4.47,0,0,1-2,3.7L177.92,156.3V111.89c.87.24,1.7.5,2.51.79,14.91,5.26,20.26,18.18,22,24.39A4.7,4.7,0,0,1,202.63,138.46Z" class="cls-7"></path><path d="M202.63,138.46c-6.07-19.35-18.84-22.89-24.71-23.46a17.32,17.32,0,0,0-3.07-.06,24.13,24.13,0,0,1,3.07-1.42c.73-.28,1.57-.57,2.51-.84,14.91,5.26,20.26,18.18,22,24.39A4.7,4.7,0,0,1,202.63,138.46Z" class="cls-8"></path><path d="M187.85,158.75V62.21L94.42,72.77v97.57a18.67,18.67,0,0,0,0,3.66v0s0,.1,0,.28c.67,5.78,4.22,11.15,10.77,15.24,7.25,4.53,17,6.73,27.32,6.73,13.33,0,27.63-3.68,38.74-10.79C183.36,177.74,189.05,167.71,187.85,158.75Zm-86.29,27.7c-.57-.5-1.11-1-1.62-1.55C100.49,185.46,101,186,101.56,186.45ZM117,194.08a46.25,46.25,0,0,1-7.1-2.43C112,192.51,114.31,193.27,117,194.08ZM132,195.94l3.21,0c-.88,0-1.76,0-2.64,0ZM171.1,185.2l-.35.22c1.35-.9,2.62-1.76,3.82-2.64C173.47,183.61,172.32,184.42,171.1,185.2Z" class="cls-1"></path><path d="M109.9,110.29c10.25,13.2,10.89,22.71,6.14,54.37-2.19,14.6,7.2,24.66,18,31.26h0l.53.32-2.05,0c-10.31,0-20.06-2.2-27.31-6.73-6.55-4.09-10.1-9.47-10.77-15.24,0-.19,0-.29,0-.29v0a17.92,17.92,0,0,1,0-3.66V72.77l38.64-4.37c5.79,2,6.8,4.43-2.42,7.47C100.94,85.65,99.65,97.09,109.9,110.29Z" class="cls-9"></path><path d="M187.85,158.75V62.21L133.06,68.4,95.34,72.67l-.92.1v97.57a17.92,17.92,0,0,0,0,3.66v0s0,.1,0,.29c.67,5.77,4.22,11.15,10.77,15.24a40.93,40.93,0,0,0,11.1,4.7,62.33,62.33,0,0,0,16.21,2l2.05,0c12.74-.35,26.15-4,36.7-10.76C183.35,177.74,189.05,167.7,187.85,158.75ZM99.94,184.9c.55.55,1.08,1.07,1.62,1.55C101,186,100.45,185.43,99.94,184.9Zm16,8.89a43,43,0,0,1-6-2.15,61.83,61.83,0,0,0,6,2.1l1.1.34ZM134,195.93l-1.52,0H132l2.05,0,1.16,0ZM171.1,185.2l-.35.22c1.35-.89,2.62-1.76,3.82-2.64C173.47,183.61,172.32,184.42,171.1,185.2Z" class="cls-10"></path><path d="M116.3,194.25a40.93,40.93,0,0,1-11.1-4.7c-6.55-4.09-10.1-9.47-10.77-15.24,0-.19,0-.29,0-.29v0a17.92,17.92,0,0,1,0-3.66V101.18c4.76,14,15.73,26.84,13,52.9-2.11,20.31,3.1,32.59,8.46,39.66l0,0Z" class="cls-11"></path><path d="M110.25,155.35v36.72L88.18,205.84l-.66.41a2.52,2.52,0,0,1-3.69-2.79c1.66-10.1,7-32,23.61-49.38A1.64,1.64,0,0,1,110.25,155.35Z" class="cls-12"></path><path d="M188.07,65.64q.09-1,.09-1.92A17.67,17.67,0,0,0,185.83,55a.87.87,0,0,0-.07-.17C176,24.92,151.54-2.11,135.69.13c-6.82,1-19.87,18.53-28.8,36.44A192.4,192.4,0,0,0,94.42,69.62,22.07,22.07,0,0,0,94,75.57,18.55,18.55,0,0,0,98.55,87a14,14,0,0,0,2.82,2.83h0a29.54,29.54,0,0,0,3.55,2.6l.51.3.56.33c6.79,3.9,15.5,5.92,24.77,6.13a61.83,61.83,0,0,0,16.07-1.37,72.15,72.15,0,0,0,20.92-7.38c1-.53,1.81-1,2.33-1.33v0l1.2-.74c7.27-4.66,12.43-10.27,15-16.14l0,0A14.81,14.81,0,0,0,188.07,65.64ZM123,98.27c-1.94-.28-3.84-.65-5.67-1.1C119,97.55,120.88,97.92,123,98.27Z" class="cls-13"></path><path d="M185.83,55a.87.87,0,0,0-.07-.17C176,24.92,151.54-2.11,135.69.13a5.19,5.19,0,0,0-.89.21,10,10,0,0,0-2.25,1.09c-7.19,4.5-18,19.7-25.66,35.13A192.4,192.4,0,0,0,94.42,69.61a22.18,22.18,0,0,0-.47,6,17.54,17.54,0,0,0,1,5.33A20,20,0,0,0,98.54,87a14,14,0,0,0,2.83,2.83h0a28.44,28.44,0,0,0,3.55,2.59l.51.31.56.33c6.27,3.61,14.18,5.6,22.66,6,.7,0,1.4.07,2.11.08a61.83,61.83,0,0,0,16.07-1.37,72.15,72.15,0,0,0,20.92-7.38,23.6,23.6,0,0,0,2.32-1.34h0l1.2-.74c7.27-4.66,12.43-10.27,15-16.14l0,0a14.81,14.81,0,0,0,1.75-6.58c.06-.64.09-1.29.09-1.92A17.88,17.88,0,0,0,185.83,55ZM117.32,97.16c1.68.39,3.56.76,5.67,1.11A56.29,56.29,0,0,1,117.32,97.16Z" class="cls-14"></path><path d="M160.54,102.52c-12.4,7.74-22.55,26.75-22.55,42.23s10.15,21.82,22.55,14.08,22.56-26.75,22.56-42.23S173,94.78,160.54,102.52Z" class="cls-15"></path><path d="M110.25,155.35v.94c-4.78,5.43-20.77,25.26-22.07,49.55l-.66.41a2.52,2.52,0,0,1-3.69-2.79c1.66-10.1,7-32,23.61-49.38A1.64,1.64,0,0,1,110.25,155.35Z" class="cls-16"></path><ellipse transform="translate(-27.82 219.78) rotate(-63.6)" ry="18.74" rx="33.89" cy="132.33" cx="163.32" class="cls-17"></ellipse><path d="M164.25,110.9c-9.45,5.9-17.17,20.37-17.17,32.16s7.72,16.62,17.17,10.72,17.18-20.37,17.18-32.16S173.7,105,164.25,110.9Z" class="cls-18"></path><path d="M187.85,80.78a75.5,75.5,0,0,1-9.42,8.93c-10.72,8.51-23.89,13.91-39.16,16a57.1,57.1,0,0,1-7.86.56A51.07,51.07,0,0,1,99.94,95.54a57.32,57.32,0,0,1-5.52-4.87V89.3a57.32,57.32,0,0,0,6.09,5.45,50.51,50.51,0,0,0,38.64,10c15.11-2.11,28.14-7.45,38.73-15.86a76,76,0,0,0,10-9.57v1.45Z" class="cls-17"></path><path d="M128.66,99.14c-8.48-.45-16.39-2.44-22.66-6l-.56-.33-.51-.31a28.44,28.44,0,0,1-3.55-2.59h0A14,14,0,0,1,98.54,87,20,20,0,0,1,95,80.9c3.34-16.82,20.7-59.76,37.59-79.47A10,10,0,0,1,134.8.34c-2.69,9.45-6.28,26.91-7.37,55.19C126.61,77,127.47,90.65,128.66,99.14Z" class="cls-19"></path></g><g id="table"><path d="M156.7,223v5.31a3.72,3.72,0,0,0,1.7,3.17L173,240.57a4,4,0,0,0,4.29,0L232,206.43a3.75,3.75,0,0,0,1.7-3.18v-5.56s-19.09.54-23.12,2.5S156.7,223,156.7,223Z" class="cls-20"></path><path d="M157.58,224.58l14.11,8.83a6.49,6.49,0,0,0,6.95,0l54-33.69a2.47,2.47,0,0,0,0-4.09L220.4,188a8.9,8.9,0,0,0-9.52,0l-53.3,33.27A2,2,0,0,0,157.58,224.58Z" class="cls-1"></path><path d="M157.58,224.58l14.11,8.83a6.49,6.49,0,0,0,6.95,0l54-33.69a2.47,2.47,0,0,0,0-4.09L220.4,188a8.9,8.9,0,0,0-9.52,0l-53.3,33.27A2,2,0,0,0,157.58,224.58Z" class="cls-21"></path><polygon points="211.32 193.1 211.31 191.79 211.31 193 211.31 194.31 211.32 193.1" class="cls-22"></polygon><polygon points="222.42 194.67 220.95 195.59 220.94 196.8 222.41 195.88 222.42 194.67" class="cls-23"></polygon><polygon points="205.32 195.59 203.84 194.67 203.83 195.88 205.31 196.8 205.32 195.59" class="cls-24"></polygon><path d="M208.45,199.78l0-.13c0-.05,0-.11.05-.16s0-.08,0-.12l.07-.16a.41.41,0,0,1,.07-.11,1.74,1.74,0,0,1,.11-.18.86.86,0,0,1,.07-.1l.2-.24.08-.08.15-.13.13-.11.17-.12a1.18,1.18,0,0,1,.18-.13,3.75,3.75,0,0,1,.44-.24l.14-.06.37-.16.13-.05.25-.07.18-.05.26-.06.18,0a5,5,0,0,1,.54-.08l.16,0,.32,0h.92l.22,0,.24,0,.21,0,.25.05.19,0,.3.08.16,0,.5.19a1.75,1.75,0,0,1,.24.11l.12.06a3.9,3.9,0,0,1,.35.19,2.56,2.56,0,0,1,1.39,2.1V198.9a2.57,2.57,0,0,0-1.4-2.1l-.34-.19-.12-.06-.22-.1h0l-.51-.18,0,0-.12,0-.29-.08-.08,0-.12,0-.25-.05-.1,0h-.11l-.24,0h-1.13l-.32,0h-.17a5,5,0,0,0-.54.08h0l-.15,0a2.61,2.61,0,0,0-.27.06l-.18.05-.24.08h-.06l-.08,0a2.39,2.39,0,0,0-.37.15l-.13.06a3.21,3.21,0,0,0-.45.24l-.06,0-.12.09-.17.12-.13.11-.15.13s0,0,0,0l0,.05a2.12,2.12,0,0,0-.2.24.12.12,0,0,0-.05,0l0,.05a1.74,1.74,0,0,0-.11.18l-.05.07s0,0,0,0a1.11,1.11,0,0,0-.07.16.36.36,0,0,0,0,.09,0,0,0,0,0,0,0,.94.94,0,0,0,0,.16l0,.1v0a.78.78,0,0,0,0,.16s0,.07,0,.1v1.25c0-.05,0-.1,0-.15S208.45,199.83,208.45,199.78Z" class="cls-25"></path><path d="M222.41,200c0,.07,0,.14-.08.22l-.06.14a.58.58,0,0,1-.05.14,1,1,0,0,0-.07.15.83.83,0,0,0-.07.13l-.1.17-.07.12-.12.17a.44.44,0,0,1-.08.11c-.07.11-.16.21-.24.32l0,0-.24.26-.21.2v1.21l.17-.17,0,0,.25-.26,0-.05a3.76,3.76,0,0,0,.25-.31l0,0,.06-.09a1.63,1.63,0,0,0,.11-.17l.08-.12.09-.17,0-.06,0-.08a.61.61,0,0,0,.07-.14l.06-.14.06-.15a.14.14,0,0,0,0-.06.88.88,0,0,0,.05-.15h2.09V200Z" class="cls-26"></path><path d="M205.35,203.4v-1.21A5.12,5.12,0,0,1,203.9,200h-2.08v1.21h2.09A5,5,0,0,0,205.35,203.4Z" class="cls-27"></path><path d="M218.44,203.78c-.25.11-.5.21-.77.3l-.44.13c-.13,0-.27.09-.41.12l-.46.11-.42.09c-.32.06-.64.12-1,.15v1.21c.32,0,.64-.09,1-.15h0l.38-.08.46-.11c.14,0,.27-.08.41-.12l.44-.14h.05c.25-.09.49-.18.72-.28l1.48.93,2.54-1.6v-1.21l-2.54,1.6Z" class="cls-28"></path><path d="M211.38,204.68c-.23,0-.45-.06-.67-.1l-.48-.09-.41-.09a5.12,5.12,0,0,1-.56-.15l-.43-.13-.19-.06c-.25-.08-.5-.17-.73-.27h0l-1.47.93-2.55-1.59v1.2l2.55,1.6,1.47-.93.73.28.19.06.19.07.25.06.55.15.19,0,.23,0,.47.09.22,0,.45.06h0v1.31H215V206h-3.59Z" class="cls-29"></path><path d="M219.92,204.71l-1.48-.93a12.24,12.24,0,0,1-3.46.9V206h-3.59v-1.31a12.46,12.46,0,0,1-3.48-.9l-1.47.93-2.55-1.59,1.47-.93A5.12,5.12,0,0,1,203.9,200h-2.08l0-2.25h2.09a5,5,0,0,1,1.43-2.18l-1.48-.92,2.53-1.59,1.48.92a13.12,13.12,0,0,1,3.47-.9v-1.31h3.6v1.31a13.12,13.12,0,0,1,3.47.9l1.47-.92,2.56,1.59-1.47.92a5.09,5.09,0,0,1,1.45,2.18h2.08V200h-2.08a5,5,0,0,1-1.43,2.17l1.48.92ZM209.82,201a6.83,6.83,0,0,0,6.67,0c1.84-1.15,1.83-3,0-4.18a6.88,6.88,0,0,0-6.67,0c-1.84,1.16-1.83,3,0,4.18" class="cls-17"></path><polygon points="195.4 203.99 195.39 202.98 195.39 203.91 195.4 204.93 195.4 203.99" class="cls-30"></polygon><polygon points="204.01 205.21 202.87 205.93 202.87 206.86 204.01 206.15 204.01 205.21" class="cls-31"></polygon><polygon points="190.74 205.93 189.59 205.21 189.59 206.15 190.74 206.86 190.74 205.93" class="cls-32"></polygon><path d="M193.18,209.17a.36.36,0,0,1,0-.1l0-.12,0-.09s0-.09,0-.13a.56.56,0,0,1,.05-.08l.09-.14.06-.08c0-.06.1-.12.15-.18l.06-.07.12-.1a.39.39,0,0,1,.1-.08l.13-.1.14-.1.34-.19.11,0a1.48,1.48,0,0,1,.29-.12l.1,0,.19-.06.14,0,.21-.05.13,0,.42-.06h.13l.25,0h.71l.17,0,.18,0,.17,0,.19,0,.15,0,.23.06.13,0,.39.14.18.09.1,0,.27.15a2,2,0,0,1,1.08,1.63v-.93a2,2,0,0,0-1.08-1.63l-.27-.16-.09,0-.17-.08h0l-.39-.14h0l-.1,0-.23-.07H198l-.09,0-.19,0-.08,0h-.09l-.18,0h-.88l-.25,0h-.13l-.42.07h0l-.11,0-.21,0-.14,0-.19.06,0,0-.06,0-.29.12-.11.05-.34.19-.05,0-.09.06-.13.1-.1.09-.12.1,0,0,0,0c0,.06-.11.12-.15.18l0,0s0,0,0,0l-.09.14,0,.06,0,0,0,.12,0,.07v0l0,.11a.31.31,0,0,0,0,.08v0s0,.08,0,.12a.22.22,0,0,1,0,.08v1s0-.07,0-.11S193.17,209.21,193.18,209.17Z" class="cls-33"></path><path d="M204,209.36a1.09,1.09,0,0,1-.05.17,1.17,1.17,0,0,1,0,.11s0,.07,0,.11l-.06.11-.05.11-.08.13,0,.09-.09.14-.07.08-.19.24s0,0,0,0l-.19.2a1.21,1.21,0,0,0-.16.16V212l.14-.13,0,0,.19-.21,0,0,.19-.24,0,0,0-.07.09-.13.06-.09.07-.14,0,0,0-.06,0-.11.05-.11s0-.08,0-.11a.17.17,0,0,0,0-.05.56.56,0,0,0,0-.12h1.62v-.94Z" class="cls-34"></path><path d="M190.76,212v-.93a3.94,3.94,0,0,1-1.13-1.69H188v.94h1.62A3.91,3.91,0,0,0,190.76,212Z" class="cls-35"></path><path d="M200.93,212.28c-.2.09-.4.16-.6.23l-.34.1-.32.1-.36.08-.33.07c-.24,0-.49.09-.74.12v.94c.25,0,.49-.07.74-.12h0l.29-.07.35-.08.33-.1.34-.1,0,0c.19-.06.37-.13.56-.21l1.14.72,2-1.24v-.94l-2,1.24Z" class="cls-36"></path><path d="M195.45,213l-.53-.08-.37-.07-.32-.07-.43-.11-.34-.1-.14-.05c-.2-.07-.39-.14-.57-.22h0l-1.14.72-2-1.24v.94l2,1.24,1.15-.72a5.37,5.37,0,0,0,.56.21l.15,0,.15.05.19.05.43.12.14,0,.18,0,.37.07.17,0,.35,0h0v1h2.79V214h-2.79Z" class="cls-37"></path><path d="M202.08,213l-1.15-.72a9.86,9.86,0,0,1-2.69.7v1h-2.79v-1a9.93,9.93,0,0,1-2.7-.7l-1.14.72-2-1.24,1.15-.71a3.94,3.94,0,0,1-1.13-1.69H188v-1.75h1.61a3.8,3.8,0,0,1,1.11-1.68l-1.15-.72,2-1.24,1.15.72a9.86,9.86,0,0,1,2.69-.7v-1h2.8v1a9.93,9.93,0,0,1,2.7.7L202,204l2,1.24-1.14.72a3.83,3.83,0,0,1,1.12,1.68h1.62v1.75H204a4,4,0,0,1-1.1,1.69l1.14.71Zm-7.84-2.89a5.36,5.36,0,0,0,5.18,0,1.76,1.76,0,0,0,0-3.24,5.31,5.31,0,0,0-5.18,0c-1.43.89-1.42,2.34,0,3.24" class="cls-17"></path></g><g id="stand"><path d="M75.35,93.09V190.9a2.08,2.08,0,0,0,3.11,1.94L82,190.62a7.62,7.62,0,0,0,3.46-6.48V88c0-3.08-3.09-5-5.56-3.47h0A10,10,0,0,0,75.35,93.09Z" class="cls-12"></path><path d="M77.16,93.89V191.7a2.08,2.08,0,0,0,3.11,1.94l3.55-2.22a7.62,7.62,0,0,0,3.46-6.48V88.81c0-3.08-3.08-5-5.55-3.47h0A10,10,0,0,0,77.16,93.89Z" class="cls-38"></path><path d="M82.26,100.28v2.78a2.2,2.2,0,0,0,1,1.85l34.45,21.87v-6.32L83.81,99.32A1,1,0,0,0,82.26,100.28Z" class="cls-39"></path><path d="M82.26,115.67v2.78a2.21,2.21,0,0,0,1,1.85l34.45,21.86v-6.32L83.81,114.7A1,1,0,0,0,82.26,115.67Z" class="cls-40"></path><path d="M112.63,116.61v97.81a2.08,2.08,0,0,0,3.11,1.94l3.55-2.22a7.59,7.59,0,0,0,3.46-6.47V111.53c0-3.08-3.09-5-5.56-3.46h0A10,10,0,0,0,112.63,116.61Z" class="cls-12"></path><path d="M115.15,117.62v97.8a2.07,2.07,0,0,0,3.11,1.94l3.56-2.21a7.62,7.62,0,0,0,3.46-6.48V112.54c0-3.09-3.09-5-5.56-3.47h0A10,10,0,0,0,115.15,117.62Z" class="cls-17"></path><path d="M115.15,117.62v97.8a2.07,2.07,0,0,0,3.11,1.94l3.56-2.21a7.62,7.62,0,0,0,3.46-6.48V112.54c0-3.09-3.09-5-5.56-3.47h0A10,10,0,0,0,115.15,117.62Z" class="cls-41"></path><path d="M82.26,100.28v2.78a2.2,2.2,0,0,0,1,1.85l34.45,21.87v-6.32L83.81,99.32A1,1,0,0,0,82.26,100.28Z" class="cls-39"></path><path d="M82.26,115.67v2.78a2.21,2.21,0,0,0,1,1.85l34.45,21.86v-6.32L83.81,114.7A1,1,0,0,0,82.26,115.67Z" class="cls-40"></path></g><g id="man"><path d="M242.11,157.77a10.49,10.49,0,0,1-2,3.72c-1.36,1.49-1.09,2.56.69,2.46s3.57-2.6,4.65-3.14,1.18-4.68-1.1-3.86Z" class="cls-3"></path><path d="M250.22,160.15a11.8,11.8,0,0,1-2.23,4.21c-1.53,1.69-1.23,2.9.78,2.79s4-2.94,5.27-3.56,1.32-5.3-1.25-4.37Z" class="cls-3"></path><path d="M239.49,125.45s-3.53,15.67-2.39,19.11,3.1,11.51,4,14a3.54,3.54,0,0,0,2.87.57,5.16,5.16,0,0,0,2.19-2.12s-3-11.16-2.21-15.65a107.64,107.64,0,0,0,1.31-11.69Z" class="cls-42"></path><path d="M254.13,160.88,254,161c-.35.2-1.11.33-1.54.51a1.53,1.53,0,0,1-1.28,0,3.28,3.28,0,0,1-1.27-1.25s-.31,0-1.48-2.51-2.41-6.86-3.53-13.28c-.67-3.86-.73-11.43-.71-15.09,0-1.29,0-2.09,0-2.09a13.66,13.66,0,0,1,3.22.78c1.39.51,3-.77,4.08.6l.11.15c2.25,3.28.29,13.89.56,15.1s.48,6,1.11,7.85a55.15,55.15,0,0,1,1.43,8.38S254.86,160.4,254.13,160.88Z" class="cls-7"></path><path d="M252.1,126.69c-.79-2.89-.3-13.94-.7-17.06s-11.71-7.24-11.71-7.24a4.29,4.29,0,0,0-1.48.54l0-.18s-2.6.53-4.21,4.14a25,25,0,0,1-3.27,5.55s-4.43-1.44-6.85-3.6c0,0-1.61,2.94-.8,5,0,0,7.11,4.76,9.66,4a7.22,7.22,0,0,0,3.81-3.44A79.56,79.56,0,0,0,237.1,126c.67,3.4,14.37,5.13,14.91,4.91S252.89,129.58,252.1,126.69Z" class="cls-17"></path><g class="cls-43"><path d="M251.18,161.46a3.28,3.28,0,0,1-1.27-1.25s-.31,0-1.48-2.51-2.41-6.86-3.53-13.28c-.67-3.86-.73-11.43-.71-15.09a1.71,1.71,0,0,1,1.07.36,77,77,0,0,0,.9,16.92A48.37,48.37,0,0,0,251.18,161.46Z" class="cls-44"></path></g><path d="M252,131a16,16,0,0,1-8.06-.52c-.86-.31-1.72-.65-2.52-1-2.28-1-4.1-2.19-4.33-3.38a79.56,79.56,0,0,1-.52-11.67.39.39,0,0,0,0,.09,7.15,7.15,0,0,1-3.77,3.35c-2.54.8-9.66-4-9.66-4a3.62,3.62,0,0,1-.21-1.67,9.25,9.25,0,0,1,1-3.33c2.42,2.15,6.85,3.59,6.85,3.59a25,25,0,0,0,3.27-5.55,7.88,7.88,0,0,1,2.95-3.58,4.38,4.38,0,0,1,1.26-.56l0,.18a4.29,4.29,0,0,1,1.48-.54s11.3,4.11,11.71,7.24c0,.35.08.79.1,1.31v0c.05,1,.07,2.37.08,3.83,0,4.41,0,10,.52,11.89C252.89,129.58,252.55,130.74,252,131Z" class="cls-17"></path><path d="M254.13,160.88A43.24,43.24,0,0,1,251,140.73c.73-8.13-1.49-11.61-1.49-11.61l2.16-.35c2.25,3.28.29,13.89.56,15.1s.48,6,1.11,7.85a55.15,55.15,0,0,1,1.43,8.38S254.86,160.4,254.13,160.88Z" class="cls-45"></path><path d="M252,131a16,16,0,0,1-8.06-.52,5.79,5.79,0,0,0,3-4c1.22-5.07.72-21.17,4.53-15.43.21,4.18-.1,13.16.6,15.72C252.89,129.58,252.55,130.74,252,131Z" class="cls-46"></path><path d="M234.42,122.52a12.64,12.64,0,0,0-1.48-2.14c-.34-.18-2.16.33-3,0s-.78.05-.43.59a1.35,1.35,0,0,0,1,.57,3,3,0,0,1-1.9-.15c-.9-.43-.6.62,0,1.13s.71,2,1.38,2.57,4.1,1.13,4.5,0A5,5,0,0,0,234.42,122.52Z" class="cls-47"></path><path d="M248.24,109.75s-2-.84-3.56,3.7-2.51,8.62-5.81,9.55,5.14,5.19,7.29-.13S248.24,109.75,248.24,109.75Z" class="cls-48"></path><path d="M252,131a16,16,0,0,1-8.06-.52c-.86-.31-1.72-.65-2.52-1,2.72-.74,7.06-2.89,8.92-9.16a37,37,0,0,0,1.23-5.46c0,4.41,0,10,.52,11.89C252.89,129.58,252.55,130.74,252,131Z" class="cls-49"></path><path d="M237.1,108.34s-.17,3.62-.56,6.12a7.15,7.15,0,0,1-3.77,3.35c-2.55.8-9.66-4-9.66-4a3.77,3.77,0,0,1-.22-1.67l.38-.29s6.18,5.59,9.47,4.06S237.1,108.34,237.1,108.34Z" class="cls-50"></path><path d="M251.51,114.32a48.7,48.7,0,0,1-2.29,10.52c-1.32,3-4.47,3.7-7.08,3.16s-8.76-2.29-8.76-2.29a8.7,8.7,0,0,1,0-1.62,7.34,7.34,0,0,1,.64-2.4s7.79,1,9,.54,1.31-1.52,2.22-5.88a40.08,40.08,0,0,1,1.44-5.69c2.72-3.56,3.67-2.65,4.7-1C251.78,110.23,251.76,112.08,251.51,114.32Z" class="cls-17"></path><path d="M251.69,110.94a5.75,5.75,0,0,0-1.87-3c-1.77-1.72-6.46-2.39-10.34-4a7.4,7.4,0,0,0-2.5-.6,4.46,4.46,0,0,1,1.28-.56l0,.18a4.34,4.34,0,0,1,1.5-.54s11.45,4.11,11.86,7.24C251.63,110,251.67,110.42,251.69,110.94Z" class="cls-51"></path><path d="M224.15,109.71a17.73,17.73,0,0,0-.91-3.33c-.3-.26-3-.58-3.62-.8s-.41.51,0,.83a3.34,3.34,0,0,0,1,.51s-.66,1.23-.37,1.85-.16,2.18.57,2.72,2.52,2.36,3.09,1.85S224.15,109.71,224.15,109.71Z" class="cls-47"></path><path d="M244.15,101.39l-.28,4c-.32.81-2.89,2.34-3.56,2.22s.11-1.62.11-1.62l.08-.84.17-1.68v-.09s-.06.44-2.17-.44-.51-8.76-.51-8.76A2.77,2.77,0,0,1,240.32,92c2-.33,3.48,1.85,4.13,2.93S244.15,101.39,244.15,101.39Z" class="cls-47"></path><path d="M237.05,88.88s-2.65,3.6-1,5.38,6.53,2.29,6.79,3.77a12.52,12.52,0,0,0,.36,1.73,2.7,2.7,0,0,1,.64-.7c.32-.2.5,1.68-.27,2.49,0,0-.27,1.07.51,1s2.74-2.33,3.5-4.32-.37-4.14-1.54-4.52c0,0,.73-4.07-1.58-4.83s-3.47-.17-3.93-.77a1.48,1.48,0,0,1-.4-1l-.56,2a3,3,0,0,1-.47-2l.23-.88A4.46,4.46,0,0,0,238.5,89a2.47,2.47,0,0,1-.5-1.5Z" class="cls-42"></path><path d="M251.51,114.32a48.7,48.7,0,0,1-2.29,10.52c-1.32,3-4.47,3.7-7.08,3.16s-8.76-2.29-8.76-2.29a8.7,8.7,0,0,1,0-1.62,25.39,25.39,0,0,1,5.7.65c3.58.86,7.41,3.06,9.63-1.73A53.47,53.47,0,0,0,251.51,114.32Z" class="cls-52"></path><path d="M242.74,102a11.32,11.32,0,0,1-2.24,3.09l.17-1.68A4.31,4.31,0,0,0,242.74,102Z" class="cls-53"></path></g><g id="monitor"><polygon points="210.96 122.67 210.96 86.86 232.52 100.53 232.52 136.12 210.96 122.67" class="cls-54"></polygon><path d="M211.11,87.15l21.26,13.47v35.21l-21.26-13.26V87.15m-.3-.58v36.19l21.87,13.65v-36L210.81,86.57Z" class="cls-17"></path><g class="cls-55"><polygon points="213.26 94.59 213.26 96.08 219.05 99.69 219.05 98.2 213.26 94.59" class="cls-17"></polygon><polygon points="213.26 97.32 213.26 98.81 219.05 102.42 219.05 100.92 213.26 97.32" class="cls-17"></polygon><polygon points="213.26 100.04 213.26 101.53 219.05 105.14 219.05 103.65 213.26 100.04" class="cls-17"></polygon><polygon points="213.26 102.76 213.26 104.25 219.05 107.86 219.05 106.37 213.26 102.76" class="cls-17"></polygon><polygon points="213.26 105.48 213.26 106.97 219.05 110.58 219.05 109.09 213.26 105.48" class="cls-17"></polygon><polygon points="213.26 113.64 213.26 115.13 219.05 118.74 219.05 117.25 213.26 113.64" class="cls-17"></polygon><polygon points="213.26 116.36 213.26 117.85 219.05 121.46 219.05 119.97 213.26 116.36" class="cls-17"></polygon><polygon points="221.85 111.87 221.85 113.36 227.64 116.97 227.64 115.48 221.85 111.87" class="cls-17"></polygon><polygon points="221.85 114.59 221.85 116.08 227.64 119.69 227.64 118.2 221.85 114.59" class="cls-17"></polygon></g></g><g id="robot"><path d="M168.65,121.12v1.11a.78.78,0,0,0,1.18.72l4.81-3a.87.87,0,0,0,.39-.74v-1.1a.79.79,0,0,0-1.18-.73l-4.81,3A.86.86,0,0,0,168.65,121.12Z" class="cls-1"></path><path d="M153.43,136.1v1.1a.78.78,0,0,0,1.17.73l20-12.51a.86.86,0,0,0,.39-.73v-1.1a.78.78,0,0,0-1.17-.73l-20.05,12.51A.86.86,0,0,0,153.43,136.1Z" class="cls-1"></path><g class="cls-56"><path d="M161.73,141.92V143a.78.78,0,0,0,1.17.73l11.78-7.35a.86.86,0,0,0,.39-.73v-1.11a.78.78,0,0,0-1.17-.73l-11.78,7.36A.82.82,0,0,0,161.73,141.92Z" class="cls-1"></path></g><path d="M156.56,139.65v1.1a.78.78,0,0,0,1.17.73l16.94-10.57a.86.86,0,0,0,.39-.73v-1.11a.78.78,0,0,0-1.17-.72L157,138.91A.85.85,0,0,0,156.56,139.65Z" class="cls-1"></path><path d="M228.43,206.7a7.75,7.75,0,0,1-1.65-.5,13,13,0,0,1-7.42-8.13,1.17,1.17,0,0,1,.78-1.5l.88-.18-1,.21.1,0a1,1,0,0,1,1.12.73,10.82,10.82,0,0,0,6.25,6.78,7.55,7.55,0,0,0,6.63-.73.93.93,0,0,1,1.28.35h0a1.21,1.21,0,0,1-.38,1.66A10,10,0,0,1,228.43,206.7Z" class="cls-57"></path><path d="M228.82,237.93c-4.64-2.9-4.64-7.66,0-10.57s12.24-2.92,16.89,0,4.64,7.67,0,10.57S233.47,240.83,228.82,237.93Z" class="cls-1"></path><path d="M218.31,192.8a4.49,4.49,0,0,1,2.56,2.52c.52,1.77-.39,3.76-1.83,3.84a5.29,5.29,0,0,1-3-1.08l.57-2.08s1,1,1.87.9,1.19-2-.69-2.62Z" class="cls-58"></path><path d="M229,225.69c-4.64-2.9-4.64-7.66,0-10.58s12.24-2.91,16.88,0,4.65,7.68,0,10.58S233.65,228.58,229,225.69Z" class="cls-42"></path><path d="M229.79,221.52c-4.45-2.52-4.45-6.64,0-9.17s11.73-2.53,16.18,0,4.46,6.65,0,9.17S234.24,224,229.79,221.52Z" class="cls-42"></path><rect height="4.26" width="0.17" y="217.32" x="249.15" class="cls-42"></rect><path d="M249.32,216.73l-1.71-2.91-1.85-1.33a13.44,13.44,0,0,0-5.61-1.1v.19c.33,0,.65,0,1,0a30.62,30.62,0,0,0-4.33.27,20,20,0,0,1,3.36-.3v-.19h0a19.19,19.19,0,0,0-10,2.8c-.2.13-.4.26-.59.4l-3.82.49v5.61h0a5,5,0,0,0,2.57,4,12.58,12.58,0,0,0,6.61,1.63,19.16,19.16,0,0,0,10-2.8c2.92-1.84,4.42-4.18,4.41-6.33A2.59,2.59,0,0,0,249.32,216.73Zm-16.79,9.21a13.59,13.59,0,0,1-1.52-.32C231.53,225.75,232,225.86,232.53,225.94Zm-1.58-.33-.06,0Z" class="cls-42"></path><path d="M237,222.49c-.61,0-1.27,0-2.07-.05a11.76,11.76,0,0,1-6.54-1.8,4.64,4.64,0,0,1-2.49-4h0V182.4h0a9.3,9.3,0,0,1,4.34-7.08c2.89-1.83,6.62-2,9.89-2a12.53,12.53,0,0,1,6.53,2,6,6,0,0,1,1.63,1.47l-.14.11q.19.29.33.51l.15-.09a4.1,4.1,0,0,1,.49,1.48v0h0v0a4.56,4.56,0,0,1,0,.64v36.65h0c0,2.06-1.41,3.6-4.31,4.85A18.61,18.61,0,0,1,237,222.49Z" class="cls-59"></path><path d="M240.14,173.51a12.38,12.38,0,0,1,6.45,2,6,6,0,0,1,1.59,1.43L248,177l.33.5.14-.09a4.12,4.12,0,0,1,.47,1.41h0v.07a3.16,3.16,0,0,1,0,.61V216h0v.23c0,2-1.38,3.48-4.22,4.7a18.46,18.46,0,0,1-7.77,1.44c-.62,0-1.27,0-2.07,0a11.72,11.72,0,0,1-6.48-1.79,4.46,4.46,0,0,1-2.4-3.85h0V182.4h0a7.48,7.48,0,0,1,1.06-3.55,9.6,9.6,0,0,1,3.2-3.38c2.85-1.81,6.56-2,9.81-2h0m0-.34h0c-3.38,0-7.07.17-10,2a9.39,9.39,0,0,0-4.41,7.22v34.24a4.78,4.78,0,0,0,2.57,4.14,11.92,11.92,0,0,0,6.6,1.83c.72,0,1.41,0,2.09,0a18.83,18.83,0,0,0,7.89-1.47c3.06-1.32,4.36-2.94,4.41-5V179.54a3.65,3.65,0,0,0,0-.66l0-.09h-.05a5.09,5.09,0,0,0-2.53-3.6,12.69,12.69,0,0,0-6.61-2Zm8.48,4.17c-.09-.16-.2-.33-.33-.52a5,5,0,0,1,.33.52Z" class="cls-17"></path><g class="cls-60"><path d="M249.1,216.86V181.05s-2.08-3.63-5.65-3.24-4.15,2.59-4.15,2.59v39.87s0,1,.63,1.31c1.75,1,4.45.56,8.56-2.93C249.1,218.14,248.83,217.74,249.1,216.86Z" class="cls-61"></path></g><ellipse ry="3.59" rx="2.13" cy="212.68" cx="233.9" class="cls-62"></ellipse><path d="M222.1,215.43a8.54,8.54,0,0,0,1.64.55,11.67,11.67,0,0,0,10.3-2.56,1.21,1.21,0,0,0,.09-1.71l-.65-.67.73.75-.07-.08a.94.94,0,0,0-1.31,0,9.74,9.74,0,0,1-8.64,2.1c-2.88-.62-4.53-3.12-5.23-4.46a1,1,0,0,0-1.26-.45h0a1.21,1.21,0,0,0-.5,1.62A11,11,0,0,0,222.1,215.43Z" class="cls-6"></path><path d="M212.65,211s2,1.75,3.95,1.22,3.27-2.75,2.45-4.37a6.7,6.7,0,0,0-2.84-2.56l-1.59,1.92a3.92,3.92,0,0,1,2,1.48c.46,1-1.13,2.54-2.88.87Z" class="cls-58"></path><path d="M231,205.57h-2a.82.82,0,0,1-.78-.85h0a.82.82,0,0,1,.78-.85h2a.83.83,0,0,1,.79.85h0A.83.83,0,0,1,231,205.57Z" class="cls-17"></path></g><g id="bubbles"><path d="M147.45,184.29c1.21,5.94-2.27,11.82-7.77,13.12S128.75,195,127.54,189s2.27-11.82,7.77-13.13S146.24,178.35,147.45,184.29Z" class="cls-63"></path><ellipse ry="7.33" rx="6.78" cy="160.94" cx="200.48" class="cls-64"></ellipse><ellipse ry="5.34" rx="4.94" cy="202.98" cx="150.96" class="cls-65"></ellipse><ellipse ry="5.34" rx="4.94" cy="173.91" cx="212.59" class="cls-66"></ellipse><ellipse ry="5.34" rx="4.94" cy="190.15" cx="162.28" class="cls-67"></ellipse><ellipse ry="3.84" rx="3.55" cy="177.34" cx="196.87" class="cls-68"></ellipse><ellipse ry="2.67" rx="2.47" cy="185.55" cx="183.44" class="cls-69"></ellipse></g></g></g></svg>