<?xml version="1.0" standalone="no"?><!DOCTYPE svg PUBLIC "-//W3C//DTD SVG 1.1//EN" "http://www.w3.org/Graphics/SVG/1.1/DTD/svg11.dtd"><svg t="1662941179318" class="icon" viewBox="0 0 1039 1024" version="1.1" xmlns="http://www.w3.org/2000/svg" p-id="6980" xmlns:xlink="http://www.w3.org/1999/xlink" width="129.875" height="128"><path d="M520.677966 192.843691c169.702448 0 308.549906 138.847458 308.549906 308.549906s-138.847458 308.549906-308.549906 308.549906-308.549906-138.847458-308.549906-308.549906 138.847458-308.549906 308.549906-308.549906m0-77.137476c-212.12806 0-385.687382 173.559322-385.687382 385.687382s173.559322 385.687382 385.687382 385.687382 385.687382-173.559322 385.687382-385.687382-173.559322-385.687382-385.687382-385.687382z" fill="#388CEB" p-id="6981"></path><path d="M520.677966 420.399247l80.99435 80.99435-80.99435 80.99435-80.99435-80.99435 80.99435-80.99435m0-77.137477c-19.284369 0-38.568738 7.713748-53.996233 23.141243l-80.994351 80.99435c-30.854991 30.854991-30.854991 79.065913 0 109.920904l80.994351 80.994351c15.427495 15.427495 34.711864 23.141243 53.996233 23.141243s38.568738-7.713748 53.996234-23.141243l80.99435-80.994351c30.854991-30.854991 30.854991-79.065913 0-109.920904l-80.99435-80.99435c-15.427495-15.427495-34.711864-23.141243-53.996234-23.141243z" fill="#E78E00" p-id="6982"></path></svg>