<svg viewBox="0 0 1200 1200" xmlns="http://www.w3.org/2000/svg"><defs><style>.cls-1{fill:#256ae5;}.cls-2{fill:#a0a0a0;}.cls-3{fill:#c1c1c1;}.cls-4{fill:#e2e2e2;}.cls-5{fill:#848484;}.cls-6{fill:#cecece;}.cls-7{fill:#e2e4e3;}.cls-8{fill:#c6c6c6;}.cls-9{fill:#f7f7f7;}.cls-10{fill:#fff;}.cls-11{fill:#282828;}.cls-12{fill:#f2f2f2;}.cls-13{fill:#aaa;}</style></defs><g id="图层_2"><rect height="1200" width="1200" class="cls-1"></rect></g><g id="图层_1"><circle r="152.58" cy="344.3" cx="294.31" class="cls-2"></circle><path d="M1058.27,344.3a152.54,152.54,0,1,1-26-85.22A152.59,152.59,0,0,1,1058.27,344.3Z" class="cls-2"></path><path d="M1040.48,308.57a152.59,152.59,0,0,1-279.16,85.22,152.61,152.61,0,0,1,270.95-134.71A152.36,152.36,0,0,1,1040.48,308.57Z" class="cls-3"></path><path d="M159.52,308.57a152.59,152.59,0,0,0,279.16,85.22,152.61,152.61,0,0,0-271-134.71A152.36,152.36,0,0,0,159.52,308.57Z" class="cls-3"></path><path d="M294.31,191.72a152.34,152.34,0,0,0-46.4,7.2A152.66,152.66,0,0,1,408.19,400.15,153,153,0,0,1,328,460.32a152.5,152.5,0,0,0,110.66-66.53A152.68,152.68,0,0,0,294.31,191.72Z" class="cls-4"></path><path d="M905.69,191.72a152.34,152.34,0,0,1,46.4,7.2A152.66,152.66,0,0,0,791.81,400.15,153,153,0,0,0,872,460.32a152.52,152.52,0,0,1-110.66-66.53A152.68,152.68,0,0,1,905.69,191.72Z" class="cls-4"></path><circle r="76.87" cy="344.3" cx="905.69" class="cls-5"></circle><circle r="76.87" cy="344.3" cx="294.31" class="cls-5"></circle><path d="M956.61,642v558H243.39V642c0-181.19,135.15-330.83,310.15-353.6a359.58,359.58,0,0,1,46.46-3A356.61,356.61,0,0,1,956.61,642Z" class="cls-6"></path><path d="M863.68,642v558H243.39V642c0-181.19,135.15-330.83,310.15-353.6C728.53,311.18,863.68,460.82,863.68,642Z" class="cls-7"></path><path d="M559.45,906.29H606a0,0,0,0,1,0,0v71a23.27,23.27,0,0,1-23.27,23.27h0a23.27,23.27,0,0,1-23.27-23.27v-71a0,0,0,0,1,0,0Z" class="cls-8"></path><path d="M606,893.41h46.55a0,0,0,0,1,0,0v83.88a23.27,23.27,0,0,1-23.27,23.27h0A23.27,23.27,0,0,1,606,977.29V893.41A0,0,0,0,1,606,893.41Z" class="cls-8"></path><path d="M318.31,1181.9a18,18,0,0,1-18-18V672.44a18,18,0,0,1,36,0V1163.9A18,18,0,0,1,318.31,1181.9Z" class="cls-9"></path><path d="M318.31,623.12a18,18,0,0,1-18-18v-2.25a18,18,0,0,1,36,0v2.25A18,18,0,0,1,318.31,623.12Z" class="cls-9"></path><circle r="117.24" cy="584.75" cx="722.72" class="cls-10"></circle><circle r="117.24" cy="584.75" cx="477.28" class="cls-10"></circle><circle r="29.8" cy="600" cx="477.28" class="cls-11"></circle><circle r="29.8" cy="600" cx="722.72" class="cls-11"></circle><path d="M936.77,836.13a10,10,0,0,1-5.5-1.66,160.85,160.85,0,0,0-165.48-7.29,10,10,0,1,1-9.51-17.59,180.82,180.82,0,0,1,186,8.2,10,10,0,0,1-5.53,18.34Z" class="cls-11"></path><path d="M950.42,898.65a10,10,0,0,1-6.58-2.48,160.86,160.86,0,0,0-163-29.5A10,10,0,1,1,773.79,848,180.79,180.79,0,0,1,957,881.12a10,10,0,0,1-6.59,17.53Z" class="cls-11"></path><path d="M263.23,836.13a10,10,0,0,1-5.53-18.34,180.82,180.82,0,0,1,186-8.2,10,10,0,0,1-9.51,17.59,160.87,160.87,0,0,0-165.48,7.29A10,10,0,0,1,263.23,836.13Z" class="cls-11"></path><path d="M249.58,898.65A10,10,0,0,1,243,881.12,180.79,180.79,0,0,1,426.21,848a10,10,0,1,1-7.06,18.71,160.83,160.83,0,0,0-163,29.5A10,10,0,0,1,249.58,898.65Z" class="cls-11"></path><path d="M600,900.93v71a23.27,23.27,0,0,1-23.27,23.27c-.21,0-.42,0-.63,0s-.66,0-1,0a23.25,23.25,0,0,1-21.66-23.2v-71Z" class="cls-12"></path><path d="M596.75,900.93v71a21.7,21.7,0,1,1-43.3,0v-71Z" class="cls-10"></path><path d="M646.55,900.93v71a23.27,23.27,0,0,1-23.28,23.27c-.54,0-1.09,0-1.62-.06A23.27,23.27,0,0,1,600,971.92v-71Z" class="cls-12"></path><path d="M643.3,900.93v71a21.7,21.7,0,1,1-43.3,0v-71Z" class="cls-10"></path><path d="M672.32,815.25v38.24a64.43,64.43,0,0,1-64.44,64.43H592.12a64.42,64.42,0,0,1-64.44-64.43V815.25a64.39,64.39,0,0,1,64.44-64.43h15.76a64.47,64.47,0,0,1,64.44,64.43Z" class="cls-13"></path><path d="M664.13,805.09v38.24a64.43,64.43,0,0,1-64.44,64.43H583.93a64.2,64.2,0,0,1-45.84-19.15,64.06,64.06,0,0,1-10.41-35.12V815.25a64.39,64.39,0,0,1,64.44-64.43h15.76A64.17,64.17,0,0,1,653.75,770,64.15,64.15,0,0,1,664.13,805.09Z" class="cls-3"></path><path d="M633.74,756.22a34.17,34.17,0,0,1-67.48,0,64.22,64.22,0,0,1,25.86-5.4h15.76A64.22,64.22,0,0,1,633.74,756.22Z" class="cls-11"></path><path d="M606,785V917.92H594V785a6,6,0,0,1,12,0Z" class="cls-11"></path><path d="M346.54,518.2a18,18,0,0,1-15.65-26.88A309.06,309.06,0,0,1,501.33,350.45a18,18,0,0,1,11.49,34.12,273.05,273.05,0,0,0-150.6,124.49A18,18,0,0,1,346.54,518.2Z" class="cls-9"></path><path d="M793.62,1113.57a18,18,0,0,1-18-18V933.79a18,18,0,0,1,36,0v161.78A18,18,0,0,1,793.62,1113.57Z" class="cls-6"></path><path d="M793.62,1178.79a18,18,0,0,1-18-18v-10.16a18,18,0,0,1,36,0v10.16A18,18,0,0,1,793.62,1178.79Z" class="cls-6"></path><path d="M422.68,1106.87a24,24,0,0,1-24-24V918.17a24,24,0,0,1,48,0v164.7A24,24,0,0,1,422.68,1106.87Z" class="cls-9"></path><path d="M507.08,1160.23a24,24,0,0,1-24-24v-81.32a24,24,0,0,1,48,0v81.32A24,24,0,0,1,507.08,1160.23Z" class="cls-9"></path></g></svg>