<svg viewBox="0 0 1200 1200" xmlns="http://www.w3.org/2000/svg"><defs><style>.cls-1{fill:#256ae5;}.cls-2{fill:#c96a49;}.cls-3{fill:#d17e11;}.cls-4{fill:#ef9616;}.cls-5{fill:#ffdfc7;}.cls-6{fill:#db835d;}.cls-7{fill:#ffaf73;}.cls-8{fill:#ffc28f;}.cls-9{fill:#f2f2f2;}.cls-10{fill:#fff;}.cls-11{fill:#282828;}.cls-12{fill:#cc6744;}.cls-13{fill:#ef435d;}.cls-14{fill:#edb09a;}.cls-15{fill:#fca98b;}</style></defs><g id="图层_2"><rect height="1200" width="1200" class="cls-1"></rect></g><g id="图层_1"><path d="M1106.16,443.27h0c-.07,1.09-.15,2.18-.24,3.26a136.29,136.29,0,0,1-144.34,124.2L838.53,563l8.56-136,6,.38Z" class="cls-2"></path><path transform="matrix(-0.06, -1, 1, -0.06, -260.2, 761.93)" d="M295.8,373.35h0a0,0,0,0,1,0,0V632.93a0,0,0,0,1,0,0H159.51a0,0,0,0,1,0,0V509.64A136.29,136.29,0,0,1,295.8,373.35Z" class="cls-2"></path><path d="M895.62,253.11c0,163.27-132.35,295.63-295.62,295.63S304.38,416.38,304.38,253.11q0-12.59,1-24.9A294.51,294.51,0,0,1,320.72,156C350.9,282.26,464.48,376.15,600,376.15S849.1,282.26,879.28,156a294.51,294.51,0,0,1,15.31,72.22Q895.61,240.52,895.62,253.11Z" class="cls-3"></path><path d="M894.59,228.21C882,379.86,754.9,499,600,499S318,379.86,305.41,228.21A294.51,294.51,0,0,1,320.72,156C350.9,282.26,464.48,376.15,600,376.15S849.1,282.26,879.28,156A294.51,294.51,0,0,1,894.59,228.21Z" class="cls-4"></path><path d="M403.37,345.29a9.92,9.92,0,0,1-6.24-2.19,325.92,325.92,0,0,1-65.4-70.49,10,10,0,0,1,16.5-11.3,305.84,305.84,0,0,0,61.39,66.17,10,10,0,0,1-6.25,17.81Z" class="cls-5"></path><path d="M796.63,345.29a10,10,0,0,1-6.25-17.81,305.84,305.84,0,0,0,61.39-66.17,10,10,0,1,1,16.5,11.3,325.67,325.67,0,0,1-65.4,70.49A9.92,9.92,0,0,1,796.63,345.29Z" class="cls-5"></path><path d="M1106.16,443.27h0c-.07,1.09-.15,2.18-.24,3.26a136.36,136.36,0,0,1-136.06,87.78l-123.05-7.74,6.24-99.22Z" class="cls-6"></path><path d="M93.84,443.27h0c.07,1.09.15,2.18.24,3.26a136.36,136.36,0,0,0,136.06,87.78l123.05-7.74L347,427.36Z" class="cls-6"></path><path d="M600,285.41h0A356.61,356.61,0,0,1,956.61,642v558a0,0,0,0,1,0,0H243.39a0,0,0,0,1,0,0V642A356.61,356.61,0,0,1,600,285.41Z" class="cls-7"></path><path d="M863.68,642v558H243.39V642c0-181.19,135.15-330.83,310.15-353.6C728.53,311.18,863.68,460.82,863.68,642Z" class="cls-8"></path><path d="M318.31,1181.9a18,18,0,0,1-18-18V672.44a18,18,0,0,1,36,0V1163.9A18,18,0,0,1,318.31,1181.9Z" class="cls-5"></path><path d="M806.58,502.83a117.22,117.22,0,0,0-172.27,4.93h153A39.87,39.87,0,0,0,806.58,502.83Z" class="cls-9"></path><path d="M477.28,467.51a116.65,116.65,0,0,0-70.7,23.72A40.25,40.25,0,0,0,439,507.76H565.69A117,117,0,0,0,477.28,467.51Z" class="cls-9"></path><path d="M722.72,467.51a116.88,116.88,0,0,1,83.86,35.32,40.85,40.85,0,0,0,9.19-6.89,40.25,40.25,0,0,0-28.42-68.67H439a40.11,40.11,0,0,0-32.43,64,117.22,117.22,0,0,1,159.11,16.53h68.62A117,117,0,0,1,722.72,467.51Z" class="cls-7"></path><path d="M806.58,502.83a39.87,39.87,0,0,1-19.23,4.93h-153a117.24,117.24,0,1,0,172.27-4.93Z" class="cls-10"></path><path d="M406.58,491.23a117.24,117.24,0,1,0,159.11,16.53H439A40.25,40.25,0,0,1,406.58,491.23Z" class="cls-10"></path><path d="M863.68,769.54v297.23a154.27,154.27,0,0,1-47.34,7.4H415.14c-58,0-108.92-32.11-135.79-79.44A156.1,156.1,0,0,1,415.14,762.16h401.2A154.92,154.92,0,0,1,863.68,769.54Z" class="cls-7"></path><path d="M346.54,518.2a18,18,0,0,1-15.65-26.88A309.06,309.06,0,0,1,501.33,350.45a18,18,0,0,1,11.49,34.12,273.09,273.09,0,0,0-150.6,124.49A18,18,0,0,1,346.54,518.2Z" class="cls-5"></path><path d="M318.31,623.12a18,18,0,0,1-18-18v-2.25a18,18,0,0,1,36,0v2.25A18,18,0,0,1,318.31,623.12Z" class="cls-5"></path><circle r="29.8" cy="600" cx="477.28" class="cls-11"></circle><circle r="29.8" cy="600" cx="722.72" class="cls-11"></circle><path d="M956.61,883.46a156.48,156.48,0,0,1-156,156H399.4c-58,0-108.92-32.11-135.79-79.44A156.1,156.1,0,0,1,399.4,727.46H800.6a156.46,156.46,0,0,1,156,156Z" class="cls-9"></path><path d="M922.72,842.15a156.46,156.46,0,0,1-156,156H365.52A155.24,155.24,0,0,1,263.61,960,156.1,156.1,0,0,1,399.4,727.46H800.6a155.29,155.29,0,0,1,101.9,38.12A154.65,154.65,0,0,1,922.72,842.15Z" class="cls-10"></path><circle r="45.34" cy="829.17" cx="407.27" class="cls-9"></circle><circle r="45.34" cy="829.17" cx="803.69" class="cls-9"></circle><path d="M814.41,456.63a40.36,40.36,0,0,1-40.24,40.25H425.83a40.37,40.37,0,0,1-36.35-23,40.28,40.28,0,0,1,36.35-57.45H774.17a40.35,40.35,0,0,1,40.24,40.24Z" class="cls-12"></path><path d="M800.86,440.73A40.36,40.36,0,0,1,760.61,481H412.28a39.94,39.94,0,0,1-22.8-7.14,40.28,40.28,0,0,1,36.35-57.45H774.17A39.93,39.93,0,0,1,797,423.53,40,40,0,0,1,800.86,440.73Z" class="cls-6"></path><circle r="45.34" cy="825.53" cx="401.79" class="cls-11"></circle><circle r="45.34" cy="825.53" cx="798.21" class="cls-11"></circle><path d="M600,1018.16a111.3,111.3,0,0,1-105.83-76.39,20,20,0,0,1,38-12.58,71.52,71.52,0,0,0,135.74,0,20,20,0,1,1,38,12.58A111.3,111.3,0,0,1,600,1018.16Z" class="cls-13"></path><path d="M150.92,472.33a8,8,0,0,1-.55-16l69.83-4.89a8,8,0,0,1,1.12,16l-69.83,4.9Z" class="cls-14"></path><path d="M1049.08,472.33l-.56,0-69.84-4.9a8,8,0,0,1,1.12-16l69.83,4.89a8,8,0,0,1-.55,16Z" class="cls-14"></path><circle r="10.82" cy="440.96" cx="426.81" class="cls-15"></circle><path d="M655.59,451.46H488a10.5,10.5,0,0,1,0-21H655.59a10.5,10.5,0,0,1,0,21Z" class="cls-15"></path></g></svg>