<svg viewBox="0 0 1200 1200" xmlns="http://www.w3.org/2000/svg"><defs><style>.cls-1{fill:#256ae5;}.cls-2{fill:#c95506;}.cls-3{fill:#e5630a;}.cls-4{fill:#ed975d;}.cls-5{fill:#ed851d;}.cls-6{fill:#fa9c2a;}.cls-7{fill:#ffb96c;}.cls-8{fill:#fff;}.cls-9{fill:#282828;}.cls-10{fill:#ec2862;}.cls-11{fill:#b50f46;}</style></defs><g id="图层_2"><rect height="1200" width="1200" class="cls-1"></rect></g><g id="图层_1"><ellipse transform="translate(-116.25 169.41) rotate(-22.9)" ry="203.8" rx="155.06" cy="371.63" cx="360.04" class="cls-2"></ellipse><path d="M982.8,432C945,521.56,852.6,571.45,760.65,559.37a211.48,211.48,0,0,1-63.53-248.08C735,221.72,827.33,171.83,919.27,183.91A211.53,211.53,0,0,1,982.8,432Z" class="cls-2"></path><path d="M953.15,366.76C915.31,456.34,823,506.23,731,494.15a210.23,210.23,0,0,1-43.64-47,210.51,210.51,0,0,1,9.76-135.88C735,221.72,827.33,171.83,919.27,183.91a210,210,0,0,1,43.63,47A210.36,210.36,0,0,1,953.15,366.76Z" class="cls-3"></path><path d="M752,308.64a11,11,0,0,1-8.55-17.91,222.54,222.54,0,0,1,135.74-79.54,11,11,0,1,1,3.71,21.69,200.58,200.58,0,0,0-122.34,71.67A11,11,0,0,1,752,308.64Z" class="cls-4"></path><path d="M246.85,366.76C284.69,456.34,377.05,506.23,469,494.15a210.23,210.23,0,0,0,43.64-47,210.51,210.51,0,0,0-9.76-135.88C465,221.72,372.67,171.83,280.73,183.91a210,210,0,0,0-43.63,47A210.36,210.36,0,0,0,246.85,366.76Z" class="cls-3"></path><path d="M600,285.41h0A356.61,356.61,0,0,1,956.61,642v558a0,0,0,0,1,0,0H243.39a0,0,0,0,1,0,0V642A356.61,356.61,0,0,1,600,285.41Z" class="cls-5"></path><path d="M863.68,642v558H243.39V642c0-181.19,135.15-330.83,310.15-353.6C728.53,311.18,863.68,460.82,863.68,642Z" class="cls-6"></path><rect transform="translate(150.92 -127.4) rotate(17.25)" rx="32.19" height="64.38" width="157.55" y="401.66" x="416.69" class="cls-5"></rect><rect transform="translate(1506.02 639.29) rotate(162.75)" rx="32.19" height="64.38" width="157.55" y="401.66" x="625.76" class="cls-5"></rect><path d="M539.24,717.62a68.47,68.47,0,1,0,136.93,0Z" class="cls-5"></path><path d="M677.43,806.91V984.07a67.16,67.16,0,0,1-134.31,0V821.88a38.61,38.61,0,0,0,28.43,12.51c.69,0,1.35,0,2,0a39,39,0,0,0,35-27.43H612a38.82,38.82,0,0,0,35,27.43c.67,0,1.36-10.91,2-10.91C660.2,823.43,670.35,814.6,677.43,806.91Z" class="cls-5"></path><path d="M346.54,518.2a18,18,0,0,1-15.65-26.88A309.06,309.06,0,0,1,501.33,350.45a18,18,0,0,1,11.49,34.12,273.05,273.05,0,0,0-150.6,124.49A18,18,0,0,1,346.54,518.2Z" class="cls-7"></path><path d="M318.31,1181.9a18,18,0,0,1-18-18V672.44a18,18,0,0,1,36,0V1163.9A18,18,0,0,1,318.31,1181.9Z" class="cls-7"></path><path d="M318.31,623.13a18,18,0,0,1-18-18v-2.26a18,18,0,0,1,36,0v2.26A18,18,0,0,1,318.31,623.13Z" class="cls-7"></path><circle r="117.24" cy="584.75" cx="722.72" class="cls-8"></circle><circle r="117.24" cy="584.75" cx="477.28" class="cls-8"></circle><circle r="29.8" cy="600" cx="477.28" class="cls-9"></circle><circle r="29.8" cy="600" cx="722.72" class="cls-9"></circle><path d="M535.28,717.62a64.72,64.72,0,0,0,129.44,0Z" class="cls-9"></path><rect transform="translate(147.04 -126.51) rotate(17.25)" rx="32.19" height="64.38" width="157.55" y="389.31" x="411.8" class="cls-2"></rect><path d="M763.46,438.43l-89,27.63a32.19,32.19,0,1,1-19.09-61.48l89-27.63a32.19,32.19,0,0,1,19.08,61.48Z" class="cls-2"></path><path d="M748.78,428.27l-89,27.62a32,32,0,0,1-19.82-.23,32.2,32.2,0,0,1,15.41-51.08l89-27.63a31.88,31.88,0,0,1,19.81.24,32.19,32.19,0,0,1-15.41,51.08Z" class="cls-3"></path><path d="M451.22,428.27l89,27.62a32,32,0,0,0,19.82-.23,32.2,32.2,0,0,0-15.41-51.08l-89-27.63a31.88,31.88,0,0,0-19.81.24,32.19,32.19,0,0,0,15.41,51.08Z" class="cls-3"></path><path d="M667.15,814V976.16a67.15,67.15,0,0,1-134.3,0V814a38.56,38.56,0,0,0,28.42,12.52c.69,0,1.36,0,2.05-.06a38.92,38.92,0,0,0,35-27.43h3.38a38.82,38.82,0,0,0,35,27.43c.67,0,1.36.06,2,.06A38.6,38.6,0,0,0,667.15,814Z" class="cls-10"></path><path d="M638.7,831.49c-.87,0-1.63,0-2.32-.07a43.83,43.83,0,0,1-39.48-31c-.2-.65-.41-1.39-.64-2.29a36.34,36.34,0,0,1-.8-4,43.45,43.45,0,0,1-.46-6.35V740.59a5,5,0,0,1,10,0v47.18a33.94,33.94,0,0,0,.35,4.87,27.73,27.73,0,0,0,.59,3c.17.69.33,1.28.52,1.86a33.82,33.82,0,0,0,30.48,23.94c.61,0,1.2,0,1.76,0a33.89,33.89,0,0,0,33.73-33.72,5,5,0,0,1,10,0,43.89,43.89,0,0,1-43.73,43.72Z" class="cls-9"></path><path d="M561.27,831.49a43.84,43.84,0,0,1-43.7-43.72,5,5,0,0,1,10,0,33.72,33.72,0,0,0,66,9.78c.2-.63.36-1.22.5-1.82a27.58,27.58,0,0,0,.59-3,.68.68,0,0,1,0-.14,30.67,30.67,0,0,0,.36-4.8V740.59a5,5,0,0,1,10,0v47.18a40.17,40.17,0,0,1-.48,6.31,36.52,36.52,0,0,1-.78,4.06c-.23.92-.44,1.66-.65,2.36a43.94,43.94,0,0,1-39.51,30.93C562.89,831.47,562.15,831.49,561.27,831.49Z" class="cls-9"></path><path d="M600,971.17a7.29,7.29,0,0,1-7.3-7.29V856a7.3,7.3,0,1,1,14.6,0V963.88A7.29,7.29,0,0,1,600,971.17Z" class="cls-11"></path><path d="M789.68,1110.79a18,18,0,0,1-18-18V885a18,18,0,0,1,36,0v207.81A18,18,0,0,1,789.68,1110.79Z" class="cls-5"></path><path d="M789.68,1181.9a18,18,0,0,1-18-18v-10.12a18,18,0,0,1,36,0v10.12A18,18,0,0,1,789.68,1181.9Z" class="cls-5"></path><path d="M538.49,427.5a6.1,6.1,0,0,1-1.82-.28l-62.83-20a6,6,0,1,1,3.64-11.43l62.83,20a6,6,0,0,1-1.82,11.72Z" class="cls-4"></path><circle r="7.14" cy="391.82" cx="448.04" class="cls-4"></circle><path d="M661.5,427.5a6,6,0,0,1-1.81-11.72l62.83-20a6,6,0,1,1,3.64,11.43l-62.83,20A6.12,6.12,0,0,1,661.5,427.5Z" class="cls-4"></path><circle r="7.14" cy="391.82" cx="751.96" class="cls-4"></circle><path d="M448.05,308.64a11,11,0,0,1-8.56-4.09,200.61,200.61,0,0,0-122.34-71.67,11,11,0,0,1,3.71-21.69A222.57,222.57,0,0,1,456.6,290.73a11,11,0,0,1-8.55,17.91Z" class="cls-4"></path><path d="M408.5,1007.08a22,22,0,0,1-22-22V851.25a22,22,0,0,1,44,0V985.08A22,22,0,0,1,408.5,1007.08Z" class="cls-7"></path><path d="M477.28,1121.85a22,22,0,0,1-22-22v-48.63a22,22,0,0,1,44,0v48.63A22,22,0,0,1,477.28,1121.85Z" class="cls-7"></path><path d="M543.12,1163.36a22,22,0,0,1-22-22v-8.47a22,22,0,0,1,44,0v8.47A22,22,0,0,1,543.12,1163.36Z" class="cls-7"></path><path d="M477.28,950.78a22,22,0,0,1-22-22V913.54a22,22,0,0,1,44,0v15.24A22,22,0,0,1,477.28,950.78Z" class="cls-7"></path></g></svg>