<svg viewBox="0 0 1200 1200" xmlns="http://www.w3.org/2000/svg"><defs><style>.cls-1{fill:#256ae5;}.cls-2{fill:#f9b4bf;}.cls-3{fill:#ffcbce;}.cls-4{fill:#ffe6e8;}.cls-5{fill:#6c282b;}.cls-6{fill:#f2f2f2;}.cls-7{fill:#fff;}.cls-8{fill:#f96786;}.cls-9{fill:#ff7e94;}.cls-10{fill:#ffbbca;}.cls-11{fill:#282828;}</style></defs><g id="图层_2"><rect height="1200" width="1200" class="cls-1"></rect></g><g id="图层_1"><path d="M956.61,642v558H243.39V642a356.61,356.61,0,1,1,713.22,0Z" class="cls-2"></path><path d="M863.68,642v558H243.39V642c0-181.19,135.15-330.83,310.15-353.6C728.53,311.18,863.68,460.82,863.68,642Z" class="cls-3"></path><path d="M948.18,564.59a99.57,99.57,0,0,1-92.52-26.51L828,510.41l-40.32-40.32a99.76,99.76,0,0,1-5.28-134.57A357.49,357.49,0,0,1,948.18,564.59Z" class="cls-2"></path><path d="M441.18,399.94a99.09,99.09,0,0,1-28.85,70.15L372,510.41l-27.67,27.67a99.57,99.57,0,0,1-92.52,26.51A357.13,357.13,0,0,1,417.61,335.52,99.22,99.22,0,0,1,441.18,399.94Z" class="cls-2"></path><path d="M346.54,518.2a18,18,0,0,1-15.65-26.88A309.06,309.06,0,0,1,501.33,350.45a18,18,0,1,1,11.49,34.12,273.09,273.09,0,0,0-150.6,124.49A18,18,0,0,1,346.54,518.2Z" class="cls-4"></path><path d="M318.31,1181.9a18,18,0,0,1-18-18V672.44a18,18,0,0,1,36,0V1163.9A18,18,0,0,1,318.31,1181.9Z" class="cls-4"></path><path d="M318.31,623.13a18,18,0,0,1-18-18v-2.26a18,18,0,0,1,36,0v2.26A18,18,0,0,1,318.31,623.13Z" class="cls-4"></path><path d="M560.47,871.9a39.53,39.53,0,1,0,79.06,0Z" class="cls-5"></path><path d="M768.56,801.36a90.56,90.56,0,0,1-90.3,90.31H521.74a90.56,90.56,0,0,1-80.4-49.32,90.37,90.37,0,0,1,80.4-131.29H678.26a90.54,90.54,0,0,1,90.3,90.3Z" class="cls-6"></path><path d="M751.58,778.21a90.56,90.56,0,0,1-90.31,90.3H504.75a90,90,0,0,1-63.41-26.16,90.37,90.37,0,0,1,80.4-131.29H678.26a90,90,0,0,1,63.42,26.16A89.58,89.58,0,0,1,751.58,778.21Z" class="cls-7"></path><circle r="36.85" cy="804.75" cx="549.17" class="cls-6"></circle><circle r="36.85" cy="804.75" cx="664.36" class="cls-6"></circle><circle r="36.85" cy="801.36" cx="542.4" class="cls-5"></circle><circle r="36.85" cy="801.36" cx="657.6" class="cls-5"></circle><rect transform="translate(378.74 -92.63) rotate(45)" rx="99.42" height="294.78" width="198.83" y="263.48" x="201.77" class="cls-8"></rect><path d="M1003,515.09c-38.66,38.66-101.93,38.66-140.59,0l-27.67-27.67L794.45,447.1a99.72,99.72,0,0,1,.14-140.45c38.67-38.66,101.94-38.66,140.6,0l40.17,40.17L1003,374.49C1041.7,413.16,1041.7,476.43,1003,515.09Z" class="cls-8"></path><path d="M975.36,487.42c-38.66,38.66-101.93,38.66-140.59,0L794.45,447.1a99.72,99.72,0,0,1,.14-140.45c38.67-38.66,101.94-38.66,140.6,0l40.17,40.17C1014,385.49,1014,448.76,975.36,487.42Z" class="cls-9"></path><path d="M799.6,390a13,13,0,0,1-13-13,78,78,0,0,1,78.29-78.3,13,13,0,0,1,0,26A52,52,0,0,0,812.6,377,13,13,0,0,1,799.6,390Z" class="cls-10"></path><path d="M224.64,487.42c38.66,38.66,101.93,38.66,140.59,0l40.32-40.32a99.72,99.72,0,0,0-.14-140.45c-38.67-38.66-101.94-38.66-140.6,0l-40.17,40.17C186,385.49,186,448.76,224.64,487.42Z" class="cls-9"></path><circle r="117.24" cy="584.75" cx="722.72" class="cls-7"></circle><circle r="117.24" cy="584.75" cx="477.28" class="cls-7"></circle><circle r="29.8" cy="600" cx="477.28" class="cls-11"></circle><circle r="29.8" cy="600" cx="722.72" class="cls-11"></circle><path d="M400.4,390a13,13,0,0,1-13-13,52,52,0,0,0-52.29-52.3,13,13,0,0,1,0-26A78,78,0,0,1,413.4,377,13,13,0,0,1,400.4,390Z" class="cls-10"></path><path d="M791.54,1157.1a18,18,0,0,1-18-18v-192a18,18,0,1,1,36,0v192A18,18,0,0,1,791.54,1157.1Z" class="cls-2"></path><path d="M791.54,906.75a18,18,0,0,1-18-18V871.9a18,18,0,0,1,36,0v16.85A18,18,0,0,1,791.54,906.75Z" class="cls-2"></path><path d="M425.61,1060.82a24.5,24.5,0,0,1-24.5-24.5V947.1a24.5,24.5,0,0,1,49,0v89.22A24.5,24.5,0,0,1,425.61,1060.82Z" class="cls-4"></path><path d="M516,1163.6a24.5,24.5,0,0,1-24.5-24.5v-75.67a24.5,24.5,0,1,1,49,0v75.67A24.5,24.5,0,0,1,516,1163.6Z" class="cls-4"></path><path d="M516,1002.09a24.5,24.5,0,0,1-24.5-24.5V964a24.5,24.5,0,1,1,49,0v13.55A24.5,24.5,0,0,1,516,1002.09Z" class="cls-4"></path><path d="M243.39,415.19a21.5,21.5,0,0,1-14.76-37.14L266.85,342a21.5,21.5,0,1,1,29.52,31.27l-38.22,36.07A21.45,21.45,0,0,1,243.39,415.19Z" class="cls-10"></path><path d="M956.61,415.19a21.41,21.41,0,0,1-14.76-5.87l-38.22-36.07A21.5,21.5,0,1,1,933.15,342l38.22,36.07a21.5,21.5,0,0,1-14.76,37.14Z" class="cls-10"></path></g></svg>