<svg viewBox="0 0 1200 1200" xmlns="http://www.w3.org/2000/svg"><defs><style>.cls-1{fill:#256ae5;}.cls-2{fill:#e8a000;}.cls-3{fill:#ffc000;}.cls-4{fill:#ffcd52;}.cls-5{fill:#ea9c00;}.cls-6{fill:#ffd766;}.cls-7{fill:#f2f2f2;}.cls-8{fill:#fff;}.cls-9{fill:#282828;}.cls-10{fill:#e85634;}.cls-11{fill:#f46a40;}</style></defs><g id="图层_2"><rect height="1200" width="1200" class="cls-1"></rect></g><g id="图层_1"><circle r="152.58" cy="401.94" cx="294.92" class="cls-2"></circle><path d="M172.12,374.73A152.61,152.61,0,0,0,408.94,502,152.59,152.59,0,0,0,209.5,274.69,151.93,151.93,0,0,0,172.12,374.73Z" class="cls-3"></path><path d="M293.71,249.36a151.93,151.93,0,0,0-74.53,19.42,152.59,152.59,0,0,1,157,246.79q-4.73,3.13-9.69,5.91A151.77,151.77,0,0,0,408.94,502a152.58,152.58,0,0,0-115.23-252.6Z" class="cls-4"></path><circle r="85.39" cy="401.94" cx="294.92" class="cls-5"></circle><path d="M1058.87,401.94A152.55,152.55,0,1,1,990.5,274.69,152.58,152.58,0,0,1,1058.87,401.94Z" class="cls-2"></path><path d="M1027.88,374.73A152.61,152.61,0,0,1,791.06,502,152.59,152.59,0,0,1,990.5,274.69,151.93,151.93,0,0,1,1027.88,374.73Z" class="cls-3"></path><circle r="85.39" cy="401.94" cx="905.08" class="cls-5"></circle><path d="M906.29,249.36a151.93,151.93,0,0,1,74.53,19.42,152.59,152.59,0,0,0-157,246.79q4.73,3.13,9.69,5.91A151.77,151.77,0,0,1,791.06,502a152.58,152.58,0,0,1,115.23-252.6Z" class="cls-4"></path><path d="M956.61,642v558H243.39V642c0-196.94,159.66-356.6,356.61-356.6A356.61,356.61,0,0,1,956.61,642Z" class="cls-5"></path><path d="M863.68,642v558H243.39V642c0-181.19,135.15-330.83,310.15-353.6C728.53,311.18,863.68,460.82,863.68,642Z" class="cls-3"></path><path d="M318.31,1181.9a18,18,0,0,1-18-18V672.44a18,18,0,0,1,36,0V1163.9A18,18,0,0,1,318.31,1181.9Z" class="cls-6"></path><path d="M863.68,775.4v405.4H243.39V838.22A557.71,557.71,0,0,1,863.68,775.4Z" class="cls-5"></path><path d="M346.54,518.2a18,18,0,0,1-15.65-26.88A309.55,309.55,0,0,1,455.83,370a18,18,0,1,1,16.82,31.83A273.51,273.51,0,0,0,362.22,509.06,18,18,0,0,1,346.54,518.2Z" class="cls-6"></path><path d="M318.31,623.12a18,18,0,0,1-18-18v-2.25a18,18,0,0,1,36,0v2.25A18,18,0,0,1,318.31,623.12Z" class="cls-6"></path><path d="M956.61,857.42V1200H243.39V857.42a556.63,556.63,0,0,1,713.22,0Z" class="cls-7"></path><path d="M863.68,794.6V1200H243.39V857.42a554.73,554.73,0,0,1,323.21-128q16.57-1,33.4-1h2.47c1.87,0,3.74,0,5.61.05q18.76.27,37.22,1.75A553.81,553.81,0,0,1,863.68,794.6Z" class="cls-8"></path><path d="M605.48,882.13a10,10,0,0,1-10-10V752.29a10,10,0,0,1,20,0V872.13A10,10,0,0,1,605.48,882.13Z" class="cls-7"></path><path d="M643,761.49l-20.7,20.69a24,24,0,0,1-34,0L568,761.84a24,24,0,0,1-1.38-32.45q16.57-1,33.4-1h2.47l2.83,2.83,2.78-2.78q18.76.27,37.22,1.75A24,24,0,0,1,643,761.49Z" class="cls-7"></path><path d="M701.11,931.42a118.16,118.16,0,0,1-79.5-30.59,118.61,118.61,0,0,1-184-31.9A118.58,118.58,0,0,0,600,872.13a118.59,118.59,0,0,0,197.54-76.7C825.73,863,764.91,931.42,701.11,931.42Z" class="cls-7"></path><circle r="117.24" cy="584.75" cx="722.72" class="cls-8"></circle><circle r="117.24" cy="584.75" cx="477.28" class="cls-8"></circle><circle r="29.8" cy="600" cx="477.28" class="cls-9"></circle><circle r="29.8" cy="600" cx="722.72" class="cls-9"></circle><path d="M658,339.72H542.05a13,13,0,0,1,0-26H658a13,13,0,0,1,0,26Z" class="cls-9"></path><path d="M600,431.86a13,13,0,0,1-13-13V326.72a13,13,0,0,1,26,0v92.14A13,13,0,0,1,600,431.86Z" class="cls-9"></path><path d="M666.52,387.73h-133a13,13,0,0,1,0-26h133a13,13,0,0,1,0,26Z" class="cls-9"></path><path d="M678.06,435.74H521.94a13,13,0,0,1,0-26H678.06a13,13,0,0,1,0,26Z" class="cls-9"></path><path d="M679.5,912.72a128.34,128.34,0,0,1-86.21-33.17,10,10,0,0,1,13.42-14.84,108.58,108.58,0,0,0,181.37-80.57,10,10,0,0,1,20,0A128.72,128.72,0,0,1,679.5,912.72Z" class="cls-9"></path><path d="M520.5,912.72A128.72,128.72,0,0,1,391.92,784.14a10,10,0,0,1,20,0,108.58,108.58,0,0,0,181.37,80.57,10,10,0,1,1,13.42,14.84A128.34,128.34,0,0,1,520.5,912.72Z" class="cls-9"></path><path d="M437.61,878.93a10,10,0,0,1-7-2.85,127.55,127.55,0,0,1-38.7-91.94,10,10,0,0,1,20,0,107.75,107.75,0,0,0,32.68,77.64,10,10,0,0,1-7,17.15Z" class="cls-9"></path><path d="M600,882.13a10,10,0,0,1-10-10V752.29a10,10,0,0,1,20,0V872.13A10,10,0,0,1,600,882.13Z" class="cls-9"></path><path d="M974,819.68H853.17a9,9,0,0,1,0-18H974a9,9,0,0,1,0,18Z" class="cls-9"></path><path d="M1003.31,852.43H882.52a9,9,0,0,1,0-18h120.79a9,9,0,0,1,0,18Z" class="cls-9"></path><path d="M985.8,885.18H865a9,9,0,0,1,0-18H985.8a9,9,0,0,1,0,18Z" class="cls-9"></path><path d="M336.83,819.68H216a9,9,0,0,1,0-18H336.83a9,9,0,1,1,0,18Z" class="cls-9"></path><path d="M307.48,852.43H186.69a9,9,0,1,1,0-18H307.48a9,9,0,0,1,0,18Z" class="cls-9"></path><path d="M325,885.18H204.2a9,9,0,1,1,0-18H325a9,9,0,1,1,0,18Z" class="cls-9"></path><path d="M637.68,757.54,617,778.23a24,24,0,0,1-34,0l-20.34-20.34a24,24,0,0,1,34-34l3.36,3.36,3.72-3.72A24,24,0,0,1,635.9,722c.61.51,1.21,1,1.78,1.62A24,24,0,0,1,637.68,757.54Z" class="cls-10"></path><path d="M632,750.84l-20.7,20.7a24,24,0,0,1-34,0L559,753.19a24,24,0,0,1,37.62-29.26l3.36,3.36,3.72-3.72A20,20,0,1,1,632,750.84Z" class="cls-11"></path><path d="M798.08,1143.22a18,18,0,0,1-18-18V979.52a18,18,0,0,1,36,0v145.7A18,18,0,0,1,798.08,1143.22Z" class="cls-7"></path><path d="M798.08,949.42a18,18,0,0,1-18-18v-7.8a18,18,0,0,1,36,0v7.8A18,18,0,0,1,798.08,949.42Z" class="cls-7"></path></g></svg>