<svg viewBox="0 0 1200 1200" xmlns="http://www.w3.org/2000/svg"><defs><style>.cls-1{fill:#256ae5;}.cls-2{fill:#06bcb7;}.cls-3{fill:#07d6d6;}.cls-4{fill:#38f9f4;}.cls-5{fill:#282828;}.cls-6{fill:#fff;}.cls-7{fill:#ffe162;}.cls-8{fill:#edca35;}.cls-9{fill:#ffefab;}</style></defs><g id="图层_2"><rect height="1200" width="1200" class="cls-1"></rect></g><g id="图层_1"><path d="M600,285.41h0A356.61,356.61,0,0,1,956.61,642v558a0,0,0,0,1,0,0H243.39a0,0,0,0,1,0,0V642A356.61,356.61,0,0,1,600,285.41Z" class="cls-2"></path><path d="M863.68,642v558H243.39V642c0-181.19,135.15-330.83,310.15-353.6C728.53,311.18,863.68,460.82,863.68,642Z" class="cls-3"></path><path d="M480.06,396.15a18,18,0,0,1-7.43-34.4c9.34-4.23,19-8,28.7-11.3a18,18,0,1,1,11.49,34.12,271.33,271.33,0,0,0-25.34,10A17.94,17.94,0,0,1,480.06,396.15Z" class="cls-4"></path><path d="M346.54,518.2a18,18,0,0,1-15.65-26.88,310.78,310.78,0,0,1,37.74-52.82,18,18,0,0,1,26.95,23.88,274,274,0,0,0-33.36,46.68A18,18,0,0,1,346.54,518.2Z" class="cls-4"></path><path d="M318.31,1181.9a18,18,0,0,1-18-18V672.44a18,18,0,0,1,36,0V1163.9A18,18,0,0,1,318.31,1181.9Z" class="cls-4"></path><rect rx="12" height="47.29" width="134.55" y="817.24" x="532.72" class="cls-5"></rect><path d="M306,1078.05A129.93,129.93,0,0,1,184.72,994.8a10,10,0,0,1,18.67-7.17A109.72,109.72,0,1,0,408.26,909,92.44,92.44,0,0,1,529.83,790.44a10,10,0,1,1-7.63,18.48,72.45,72.45,0,0,0-95.27,92.93c25.63,66.78-7.85,141.95-74.63,167.58A129,129,0,0,1,306,1078.05Z" class="cls-5"></path><path d="M894,1078.05a129,129,0,0,1-46.33-8.62c-66.78-25.63-100.26-100.8-74.63-167.58a72.45,72.45,0,0,0-95.27-92.93,10,10,0,1,1-7.63-18.48A92.44,92.44,0,0,1,791.74,909a109.72,109.72,0,1,0,204.87,78.61,10,10,0,0,1,18.67,7.17A129.94,129.94,0,0,1,894,1078.05Z" class="cls-5"></path><circle r="117.24" cy="584.75" cx="722.72" class="cls-6"></circle><circle r="117.24" cy="584.75" cx="477.28" class="cls-6"></circle><circle r="29.8" cy="600" cx="477.28" class="cls-5"></circle><circle r="29.8" cy="600" cx="722.72" class="cls-5"></circle><path d="M458.49,155.48A40.46,40.46,0,0,1,455,171.94l-22.49,50.5-19,42.57a40.5,40.5,0,1,1-74-32.95l16.71-37.53,20-44.94L381,139a40.5,40.5,0,0,1,77.5,16.5Z" class="cls-7"></path><path d="M432.49,222.44l-19,42.57a40.39,40.39,0,0,1-26.26,22.57l-31-93,20-44.94Z" class="cls-8"></path><path d="M425.9,415a40.5,40.5,0,0,1-52.32-23.3L372,387.61l-40.8-106.3L291.14,176.84a40.5,40.5,0,1,1,75.62-29L449.2,362.64A40.5,40.5,0,0,1,425.9,415Z" class="cls-7"></path><path d="M419.56,365A40.49,40.49,0,0,1,372,387.61l-40.8-106.3L399,311.51A40.5,40.5,0,0,1,419.56,365Z" class="cls-8"></path><rect transform="translate(-83.14 488.18) rotate(-65.99)" rx="40.5" height="182.89" width="81" y="216.67" x="293.83" class="cls-7"></rect><rect transform="translate(1618.23 59.95) rotate(155.99)" rx="40.5" height="182.89" width="81" y="110.55" x="762.24" class="cls-7"></rect><path d="M767.51,222.44l19,42.57a40.39,40.39,0,0,0,26.26,22.57l31-93-20-44.94Z" class="cls-8"></path><rect transform="translate(1507.93 818.88) rotate(-159.01)" rx="40.5" height="311.1" width="81" y="114.19" x="789.33" class="cls-7"></rect><path d="M780.44,365A40.49,40.49,0,0,0,828,387.61l40.8-106.3L801,311.51A40.5,40.5,0,0,0,780.44,365Z" class="cls-8"></path><rect transform="translate(936.38 1224.25) rotate(-114.01)" rx="40.5" height="182.89" width="81" y="216.67" x="825.17" class="cls-7"></rect><path d="M729.55,799.3A70,70,0,0,1,600,836.09a70,70,0,1,1-67.92-106.27,70.7,70.7,0,0,1,24.79-37.41,70.15,70.15,0,0,1,111,37.41A70,70,0,0,1,729.55,799.3Z" class="cls-8"></path><path d="M713.88,799.3a70,70,0,0,1-129.56,36.79,70,70,0,0,1-51.72,32.77,70,70,0,0,1-.52-139,70.7,70.7,0,0,1,24.79-37.41A69.93,69.93,0,0,1,592.16,678a70.64,70.64,0,0,1,60.09,51.86A70,70,0,0,1,713.88,799.3Z" class="cls-7"></path><circle r="28.46" cy="810.25" cx="546.27" class="cls-5"></circle><circle r="28.46" cy="810.25" cx="653.73" class="cls-5"></circle><path d="M370.33,314.92a9,9,0,0,1-3.63-.77l-79.43-35a9,9,0,1,1,7.26-16.47l79.43,35a9,9,0,0,1-3.63,17.24Z" class="cls-9"></path><path d="M372.53,247.45a9,9,0,0,1-8.38-5.73l-33.32-85.08a9,9,0,0,1,16.76-6.56l33.32,85.08a9,9,0,0,1-5.1,11.66A8.84,8.84,0,0,1,372.53,247.45Z" class="cls-9"></path><path d="M829.67,314.92A9,9,0,0,1,826,297.68l79.43-35a9,9,0,1,1,7.26,16.47l-79.43,35A9,9,0,0,1,829.67,314.92Z" class="cls-9"></path><path d="M827.47,247.45a8.84,8.84,0,0,1-3.28-.63,9,9,0,0,1-5.1-11.66l33.32-85.08a9,9,0,1,1,16.76,6.56l-33.32,85.08A9,9,0,0,1,827.47,247.45Z" class="cls-9"></path><path d="M760.43,166.62a9,9,0,0,1-9-9A31.58,31.58,0,0,1,783,126.08a9,9,0,0,1,0,18,13.56,13.56,0,0,0-13.55,13.54A9,9,0,0,1,760.43,166.62Z" class="cls-9"></path><path d="M559.41,732.94a6,6,0,0,1-6-6A28.57,28.57,0,0,1,582,698.4a6,6,0,0,1,0,12,16.56,16.56,0,0,0-16.54,16.54A6,6,0,0,1,559.41,732.94Z" class="cls-9"></path><path d="M495.8,787.79a6,6,0,0,1-6-6,28.58,28.58,0,0,1,28.55-28.54,6,6,0,0,1,0,12,16.56,16.56,0,0,0-16.55,16.54A6,6,0,0,1,495.8,787.79Z" class="cls-9"></path><path d="M439.57,166.62a9,9,0,0,1-9-9A13.56,13.56,0,0,0,417,144.08a9,9,0,1,1,0-18,31.58,31.58,0,0,1,31.55,31.54A9,9,0,0,1,439.57,166.62Z" class="cls-9"></path><path d="M318.31,623.12a18,18,0,0,1-18-18v-2.25a18,18,0,0,1,36,0v2.25A18,18,0,0,1,318.31,623.12Z" class="cls-4"></path><path d="M700.05,1141.52a18,18,0,0,1-18-18V910.07a18,18,0,1,1,36,0v213.45A18,18,0,0,1,700.05,1141.52Z" class="cls-2"></path><path d="M791.54,1173.15a18,18,0,0,1-18-18v-61a18,18,0,0,1,36,0v61A18,18,0,0,1,791.54,1173.15Z" class="cls-2"></path><path d="M487.73,1101.18a22,22,0,0,1-22-22v-107a22,22,0,1,1,44,0v107A22,22,0,0,1,487.73,1101.18Z" class="cls-4"></path><path d="M408.67,1152.3a22,22,0,0,1-22-22v-26a22,22,0,0,1,44,0v26A22,22,0,0,1,408.67,1152.3Z" class="cls-4"></path></g></svg>