<svg viewBox="0 0 1200 1200" xmlns="http://www.w3.org/2000/svg"><defs><style>.cls-1{fill:#256ae5;}.cls-2{fill:#7f7fc6;}.cls-3{fill:#8d8dd3;}.cls-4{fill:#b7b7ed;}.cls-5{fill:#99a1d1;}.cls-6{fill:#abb0da;}.cls-7{fill:#d1d6f2;}.cls-8{fill:#e1e5ff;}.cls-9{fill:#c3c8e2;}.cls-10{fill:#7676c1;}.cls-11{fill:#fff;}.cls-12{fill:#282828;}.cls-13{fill:#ec2862;}.cls-14{fill:#afafef;}</style></defs><g id="图层_2"><rect height="1200" width="1200" class="cls-1"></rect></g><g id="图层_1"><path d="M671.47,229.86a15,15,0,0,1-15,15A41.51,41.51,0,0,0,615,286.33a15,15,0,0,1-30,0,41.48,41.48,0,0,0-41.47-41.47,15,15,0,0,1,0-30,71,71,0,0,1,37.2,10.48h0a71.89,71.89,0,0,1,15.94,13.28c1.15,1.28,2.26,2.61,3.32,4a71.38,71.38,0,0,1,56.47-27.74,15,15,0,0,1,15,15Z" class="cls-2"></path><path d="M667.24,227a15,15,0,0,1-15,15,41.52,41.52,0,0,0-41.48,41.47A13.15,13.15,0,1,1,585,286.33a41.51,41.51,0,0,0-20.72-35.9,41.33,41.33,0,0,0-25-8.39,14.89,14.89,0,0,1-6.08-1.29,15,15,0,0,1,10.32-25.89,71,71,0,0,1,37.2,10.48h0a71.87,71.87,0,0,1,15,14.43c.3-.39.6-.77.92-1.15,1.15,1.28,2.26,2.61,3.32,4a71.38,71.38,0,0,1,56.47-27.74,14.89,14.89,0,0,1,6.08,1.29A14.93,14.93,0,0,1,667.24,227Z" class="cls-3"></path><path d="M593.51,293.58a3,3,0,0,1-3-3c0-15.26-1.39-22.58-6.2-32.6a3,3,0,0,1,5.41-2.59c5.21,10.84,6.79,19.06,6.79,35.19A3,3,0,0,1,593.51,293.58Z" class="cls-4"></path><path d="M956.61,642v558H243.39V642c0-196.94,159.66-356.6,356.61-356.6A356.61,356.61,0,0,1,956.61,642Z" class="cls-5"></path><path d="M863.68,642v558H243.39V642c0-181.19,135.15-330.83,310.15-353.6C728.53,311.18,863.68,460.82,863.68,642Z" class="cls-6"></path><path d="M881.19,556.54a28,28,0,0,1-26.54-19.11,119.45,119.45,0,0,0-216.46-22.11,28,28,0,0,1-48.37,0,119.46,119.46,0,0,0-216.47,22.11,28,28,0,1,1-53.1-17.8A175.37,175.37,0,0,1,614,454.84a175.44,175.44,0,0,1,293.75,64.79,28,28,0,0,1-26.56,36.91Z" class="cls-5"></path><path d="M346.54,518.2a18,18,0,0,1-15.65-26.88A309.06,309.06,0,0,1,501.33,350.45a18,18,0,1,1,11.49,34.12,273.09,273.09,0,0,0-150.6,124.49A18,18,0,0,1,346.54,518.2Z" class="cls-7"></path><path d="M318.31,1181.9a18,18,0,0,1-18-18V672.44a18,18,0,0,1,36,0V1163.9A18,18,0,0,1,318.31,1181.9Z" class="cls-7"></path><path d="M318.31,623.12a18,18,0,0,1-18-18v-2.25a18,18,0,0,1,36,0v2.25A18,18,0,0,1,318.31,623.12Z" class="cls-7"></path><path d="M840,934.11V1200H360V934.11c23.2-28.32,51.8-47.23,83.16-52.78a.61.61,0,0,1,0-.13c42.65,52.11,97.25,83.4,156.77,83.4s114.12-31.29,156.77-83.4a.61.61,0,0,1,0,.13C788.16,886.88,816.76,905.79,840,934.11Z" class="cls-8"></path><rect height="18.07" width="479.93" y="1086.82" x="360.04" class="cls-9"></rect><rect height="18.07" width="479.93" y="1124.65" x="360.04" class="cls-9"></rect><rect height="18.07" width="479.93" y="1162.49" x="360.04" class="cls-9"></rect><path d="M1011.12,931.94a147.24,147.24,0,0,1-236,117.46,529.59,529.59,0,0,1-357.7-2.7,147.2,147.2,0,1,1-48.78-255.47C430.06,735.83,511.27,702,600,702c87.5,0,167.69,32.89,228.82,86.92a147.51,147.51,0,0,1,126,27.19s0,0,0,0A147,147,0,0,1,1011.12,931.94Z" class="cls-10"></path><path d="M986.28,907.09a147.25,147.25,0,0,1-236,117.47,529.67,529.67,0,0,1-357.7-2.71,147.23,147.23,0,0,1-183.23,1,147.29,147.29,0,0,1,159.3-231.62C430.06,735.83,511.27,702,600,702c87.5,0,167.69,32.89,228.82,86.92a147.51,147.51,0,0,1,126,27.19s0,0,0,0A146.53,146.53,0,0,1,986.28,907.09Z" class="cls-3"></path><path d="M602.52,1011.26c-6.66,0-13.36-.29-19.93-.87-6.92-.58-13.93-1.52-20.83-2.77A225.78,225.78,0,0,1,479,975a228.06,228.06,0,0,1-63.08-60.56,10,10,0,0,1,16.34-11.52,208.27,208.27,0,0,0,57.58,55.27,205.92,205.92,0,0,0,75.51,29.8c6.29,1.14,12.67,2,19,2.52,6,.53,12.14.8,18.22.8a208.62,208.62,0,0,0,170.29-88.39,10,10,0,0,1,16.34,11.52A228.63,228.63,0,0,1,602.52,1011.26Z" class="cls-10"></path><circle r="117.24" cy="584.75" cx="722.72" class="cls-11"></circle><circle r="117.24" cy="584.75" cx="477.28" class="cls-11"></circle><circle r="29.8" cy="600" cx="477.28" class="cls-12"></circle><circle r="29.8" cy="600" cx="722.72" class="cls-12"></circle><path d="M572.1,808a10,10,0,0,1-9-5.68l-15.55-32.47a10,10,0,1,1,18-8.65l15.56,32.47a10,10,0,0,1-9,14.33Z" class="cls-10"></path><path d="M640.29,808a10,10,0,0,1-9-14.33l15.56-32.47a10,10,0,0,1,18,8.65l-15.56,32.47A10,10,0,0,1,640.29,808Z" class="cls-10"></path><path d="M867.19,542.54a28,28,0,0,1-26.54-19.11,119.45,119.45,0,0,0-216.46-22.11,28,28,0,0,1-48.37,0,119.46,119.46,0,0,0-216.47,22.11,28,28,0,1,1-53.1-17.8A175.37,175.37,0,0,1,600,440.84a175.44,175.44,0,0,1,293.75,64.79,28,28,0,0,1-26.56,36.91Z" class="cls-12"></path><path d="M565.91,801.43a10,10,0,0,1-9-5.68l-15.56-32.47a10,10,0,0,1,18-8.64l15.56,32.47a10,10,0,0,1-9,14.32Z" class="cls-12"></path><path d="M634.09,801.43a10,10,0,0,1-9-14.32l15.56-32.47a10,10,0,0,1,18,8.64l-15.56,32.47A10,10,0,0,1,634.09,801.43Z" class="cls-12"></path><path d="M610.72,1135.41a43,43,0,0,1-80.27,10.13,43,43,0,0,1-68.14-43.6,10,10,0,0,1,19.51,4.4,23,23,0,0,0,44.94,10.14l28.79-127.7q9.81,1.79,19.91,2.65l-29.19,129.45A23,23,0,0,0,591.21,1131a10,10,0,0,1,19.51,4.4Z" class="cls-13"></path><path d="M594.52,1002.26c-6.66,0-13.36-.29-19.93-.87-6.92-.58-13.93-1.52-20.83-2.77A225.78,225.78,0,0,1,471,966a228.06,228.06,0,0,1-63.08-60.56,10,10,0,0,1,16.34-11.52,208.27,208.27,0,0,0,57.58,55.27,205.92,205.92,0,0,0,75.51,29.8c6.29,1.14,12.67,2,19,2.52,6,.53,12.14.8,18.22.8a208.62,208.62,0,0,0,170.29-88.39,10,10,0,0,1,16.34,11.52A228.63,228.63,0,0,1,594.52,1002.26Z" class="cls-12"></path><path d="M234.85,942.36a14.31,14.31,0,0,1-14.31-14.31,90.3,90.3,0,0,1,90.2-90.19,14.31,14.31,0,0,1,0,28.62,61.64,61.64,0,0,0-61.57,61.57A14.32,14.32,0,0,1,234.85,942.36Z" class="cls-14"></path><circle r="6.39" cy="226.59" cx="542.79" class="cls-4"></circle><circle r="6.39" cy="226.59" cx="653.51" class="cls-4"></circle></g></svg>