<svg viewBox="0 0 1200 1200" xmlns="http://www.w3.org/2000/svg"><defs><style>.cls-1{fill:#256ae5;}.cls-2{fill:#d37f11;}.cls-3{fill:#ef9616;}.cls-4{fill:#d89273;}.cls-5{fill:#eaac8c;}.cls-6{fill:#d7d8e2;}.cls-7{fill:#e7e8f2;}.cls-8{fill:#edc19d;}.cls-9{fill:#fddbbc;}.cls-10{fill:#282828;}.cls-11{fill:#fff;}.cls-12{fill:#f9f9f9;}.cls-13{fill:#f2af5f;}.cls-14{fill:#ffedde;}.cls-15{fill:#f4c3ae;}</style></defs><g id="图层_2"><rect height="1200" width="1200" x="-0.5" class="cls-1"></rect></g><g id="图层_1"><path d="M465.86,442.51a39,39,0,0,0-43.95-64.4A104,104,0,0,1,264.37,268.27a39,39,0,1,0-76.21-16.58A182,182,0,0,0,463.82,443.9C464.52,443.46,465.2,443,465.86,442.51Z" class="cls-2"></path><path d="M987.1,388.8a182,182,0,0,1-250.92,55.11c-.7-.45-1.38-.91-2-1.39a39,39,0,0,1,44-64.4A104,104,0,0,0,935.62,268.27a39,39,0,0,1,76.22-16.57A180.79,180.79,0,0,1,987.1,388.8Z" class="cls-2"></path><path d="M969.75,372.71a182,182,0,0,1-246.33,57.92,39,39,0,0,1,54.67-52.51A104,104,0,0,0,935.62,268.27a39,39,0,0,1,54.74-43.56,39,39,0,0,1,4.14,10.89A180.87,180.87,0,0,1,969.75,372.71Z" class="cls-3"></path><path d="M230.25,372.71a182,182,0,0,0,246.33,57.92,39,39,0,0,0-54.67-52.51A104,104,0,0,1,264.38,268.27a39,39,0,0,0-54.74-43.56,39,39,0,0,0-4.14,10.89A180.87,180.87,0,0,0,230.25,372.71Z" class="cls-3"></path><path d="M1106.16,443.28c0,.42-.05.84-.09,1.26A136.3,136.3,0,0,1,961.58,570.75L838.53,563l8.56-136,5,.32Z" class="cls-4"></path><path d="M1106.16,443.28c0,.42-.05.84-.09,1.26a136.35,136.35,0,0,1-137.19,90.91l-123-7.74,6.31-100.41Z" class="cls-5"></path><path transform="translate(-260.2 761.93) rotate(-93.6)" d="M295.8,373.35h0a0,0,0,0,1,0,0V632.93a0,0,0,0,1,0,0H159.51a0,0,0,0,1,0,0V509.64A136.29,136.29,0,0,1,295.8,373.35Z" class="cls-4"></path><path d="M92.38,443.28c0,.42.05.84.09,1.26a136.35,136.35,0,0,0,137.19,90.91l123-7.74L346.4,427.3Z" class="cls-5"></path><path d="M956.61,741.48v.12a92.32,92.32,0,0,1,0,121v.12a92.32,92.32,0,0,1,0,121v.12a92.32,92.32,0,0,1,0,121v.12a92.37,92.37,0,0,1,15.91,95h-745a92.37,92.37,0,0,1,15.91-95v-.12a92.32,92.32,0,0,1,0-121v-.12a92.32,92.32,0,0,1,0-121v-.12a92.32,92.32,0,0,1,0-121v-.12a92.33,92.33,0,0,1,.05-121.07,92.34,92.34,0,0,1,35.19-146.22,92.37,92.37,0,0,1,89.52-115c1.68,0,3.35.05,5,.14A92.25,92.25,0,0,1,462.27,277c.89,0,1.79,0,2.69,0a91.86,91.86,0,0,1,52.74,16.55,92.12,92.12,0,0,1,75.45-39.1c2.3,0,4.59.09,6.85.25,2.26-.16,4.55-.25,6.85-.25a92.44,92.44,0,0,1,75.45,39.1,92.33,92.33,0,0,1,144.54,65.86c1.66-.09,3.33-.14,5-.14a92.37,92.37,0,0,1,89.52,115,92.34,92.34,0,0,1,35.19,146.22,92.33,92.33,0,0,1,.05,121.07Z" class="cls-6"></path><path d="M886.23,741.48v.12a92.32,92.32,0,0,1,0,121v.12a92.32,92.32,0,0,1,0,121v.12a92.32,92.32,0,0,1,0,121v.12a92.37,92.37,0,0,1,15.91,95H227.48a92.37,92.37,0,0,1,15.91-95v-.12a92.32,92.32,0,0,1,0-121v-.12a92.32,92.32,0,0,1,0-121v-.12a92.32,92.32,0,0,1,0-121v-.12a92.33,92.33,0,0,1,.05-121.07,92.34,92.34,0,0,1,35.19-146.22,92.37,92.37,0,0,1,89.52-115c1.68,0,3.35.05,5,.14a92.4,92.4,0,0,1,56.6-75.46,92.74,92.74,0,0,1,17.56,9.6,92.44,92.44,0,0,1,75.45-39.1c2.3,0,4.59.09,6.85.25,2.26-.16,4.55-.25,6.85-.25a92.12,92.12,0,0,1,75.45,39.1,91.86,91.86,0,0,1,52.74-16.55c.9,0,1.8,0,2.69,0a92.25,92.25,0,0,1,89.11,82.37c1.66-.09,3.33-.14,5-.14a92.37,92.37,0,0,1,89.52,115,92.34,92.34,0,0,1,35.19,146.22,92.33,92.33,0,0,1,.05,121.07Z" class="cls-7"></path><path d="M845.73,650.25v82.28a244.2,244.2,0,0,1-50.91,149.32c-45,58.52-115.71,96.41-194.82,96.41-93.31,0-174.92-52.72-216.49-129.84a243.93,243.93,0,0,1-29.24-115.89V650.25c0-135.15,110.58-245.73,245.73-245.73A245,245,0,0,1,773.55,476.7a248.31,248.31,0,0,1,33.36,41.39A243.89,243.89,0,0,1,845.73,650.25Z" class="cls-8"></path><path d="M824.36,608.79v82.28a244.2,244.2,0,0,1-50.91,149.32c-45,58.52-115.71,96.41-194.82,96.41-86.62,0-163.15-45.43-206.93-113.63a243.43,243.43,0,0,1-17.43-90.64V650.25c0-135.15,110.58-245.73,245.73-245.73A245,245,0,0,1,773.55,476.7a248.31,248.31,0,0,1,33.36,41.39A243.28,243.28,0,0,1,824.36,608.79Z" class="cls-9"></path><path d="M599.27,792.38a9,9,0,0,1-4.76-1.36l-42-26.15a9,9,0,1,1,9.52-15.28l37.22,23.19L638,748.68A9,9,0,0,1,647.47,764L604,791A9,9,0,0,1,599.27,792.38Z" class="cls-10"></path><path d="M599.27,885.23a9,9,0,0,1-9-9V783.38a9,9,0,0,1,18,0v92.85A9,9,0,0,1,599.27,885.23Z" class="cls-10"></path><path d="M600,885.23a106.09,106.09,0,0,1-87.88-46.62,9,9,0,1,1,14.9-10.1,88.14,88.14,0,0,0,146,0,9,9,0,0,1,14.9,10.1A106.09,106.09,0,0,1,600,885.23Z" class="cls-10"></path><circle r="117.24" cy="584.75" cx="722.72" class="cls-11"></circle><circle r="117.24" cy="584.75" cx="477.28" class="cls-11"></circle><circle r="29.8" cy="600" cx="477.28" class="cls-10"></circle><circle r="29.8" cy="600" cx="722.72" class="cls-10"></circle><path d="M735.93,369a49.07,49.07,0,0,0-34,13.61,49.24,49.24,0,0,0-68,0,49.22,49.22,0,0,0-68,0,49.24,49.24,0,0,0-68,0,49.28,49.28,0,1,0,0,71.33,49.24,49.24,0,0,0,68,0,49.22,49.22,0,0,0,68,0,49.24,49.24,0,0,0,68,0,49.27,49.27,0,1,0,34-84.94Z" class="cls-7"></path><circle r="41.22" cy="346.72" cx="481.87" class="cls-12"></circle><circle r="41.22" cy="1149.73" cx="826.43" class="cls-12"></circle><circle r="29.04" cy="472.46" cx="338.08" class="cls-12"></circle><circle r="29.04" cy="978.26" cx="814.24" class="cls-12"></circle><circle r="20.83" cy="368.96" cx="679.96" class="cls-12"></circle><circle r="14.22" cy="424.83" cx="546.62" class="cls-12"></circle><circle r="24.59" cy="1031.88" cx="544.16" class="cls-12"></circle><circle r="33.93" cy="1049.03" cx="667.31" class="cls-12"></circle><circle r="40.89" cy="854.89" cx="309.04" class="cls-12"></circle><circle r="59.29" cy="1041.22" cx="338.08" class="cls-12"></circle><circle r="40.58" cy="1149.73" cx="447.48" class="cls-12"></circle><circle r="14.68" cy="250.82" cx="961.69" class="cls-13"></circle><circle r="14.68" cy="250.82" cx="236.85" class="cls-13"></circle><path d="M404.14,792.58a18,18,0,0,1-18-18V727.19a18,18,0,0,1,36,0v47.39A18,18,0,0,1,404.14,792.58Z" class="cls-14"></path><path d="M164.11,475.25a9,9,0,0,1-.56-18l63.53-4a9,9,0,0,1,1.14,18l-63.53,4A5.52,5.52,0,0,1,164.11,475.25Z" class="cls-15"></path><path d="M1034.42,475.25a5.72,5.72,0,0,1-.58,0l-63.53-4a9,9,0,0,1,1.15-18l63.53,4a9,9,0,0,1-.57,18Z" class="cls-15"></path></g></svg>