<svg viewBox="0 0 1200 1200" xmlns="http://www.w3.org/2000/svg"><defs><style>.cls-1{fill:#256ae5;}.cls-2{fill:#875129;}.cls-3{fill:#99663c;}.cls-4{fill:#82512b;}.cls-5{fill:#bf8558;}.cls-6{fill:#915a30;}.cls-7{fill:#c48c62;}.cls-8{fill:#f4c49d;}.cls-9{fill:#fddbbc;}.cls-10{fill:#fff;}.cls-11{fill:#282828;}</style></defs><g id="图层_2"><rect height="1200" width="1200" class="cls-1"></rect></g><g id="图层_1"><circle r="152.58" cy="437.99" cx="294.31" class="cls-2"></circle><path d="M164.32,396.77a152.58,152.58,0,0,0,273.56,93A152.6,152.6,0,0,0,173.33,345,152.24,152.24,0,0,0,164.32,396.77Z" class="cls-3"></path><path d="M1058.27,438a152.57,152.57,0,1,1-31.6-93A152.58,152.58,0,0,1,1058.27,438Z" class="cls-2"></path><path d="M1035.68,396.77a152.58,152.58,0,0,1-273.56,93A152.6,152.6,0,0,1,1026.67,345,152.24,152.24,0,0,1,1035.68,396.77Z" class="cls-3"></path><circle r="102.46" cy="437.99" cx="905.69" class="cls-4"></circle><circle r="102.46" cy="437.99" cx="294.31" class="cls-4"></circle><path d="M294.31,285.41A152.23,152.23,0,0,0,176,341.61,152.62,152.62,0,0,1,408,517.7q-1.32,1.72-2.7,3.4a153.4,153.4,0,0,0,32.55-31.35A152.67,152.67,0,0,0,294.31,285.41Z" class="cls-5"></path><path d="M905.69,285.41A152.26,152.26,0,0,1,1024,341.61,152.63,152.63,0,0,0,792,517.7q1.32,1.72,2.7,3.4a153.4,153.4,0,0,1-32.55-31.35A152.67,152.67,0,0,1,905.69,285.41Z" class="cls-5"></path><path d="M600,285.41h0A356.61,356.61,0,0,1,956.61,642v558a0,0,0,0,1,0,0H243.39a0,0,0,0,1,0,0V642A356.61,356.61,0,0,1,600,285.41Z" class="cls-6"></path><path d="M863.68,642v558H243.39V642c0-181.19,135.15-330.83,310.15-353.6C728.53,311.18,863.68,460.82,863.68,642Z" class="cls-3"></path><path d="M346.54,518.2a18,18,0,0,1-15.65-26.88A309.06,309.06,0,0,1,501.33,350.45a18,18,0,0,1,11.49,34.12,273.05,273.05,0,0,0-150.6,124.49A18,18,0,0,1,346.54,518.2Z" class="cls-7"></path><path d="M318.31,1181.9a18,18,0,0,1-18-18V672.44a18,18,0,0,1,36,0V1163.9A18,18,0,0,1,318.31,1181.9Z" class="cls-7"></path><path d="M905.69,584.76c0,101-81.92,183-183,183A182.3,182.3,0,0,1,600,720.46a183,183,0,1,1,0-271.4,183,183,0,0,1,305.69,135.7Z" class="cls-8"></path><path d="M876.89,559.74A183,183,0,0,1,571.2,695.44,183,183,0,0,1,343.62,709.7,183,183,0,0,1,600,449.06,183,183,0,0,1,827.58,434.8,182.29,182.29,0,0,1,876.89,559.74Z" class="cls-9"></path><path d="M783,832.14c0,101.05-81.91,183-183,183a183,183,0,1,1,183-183Z" class="cls-8"></path><path d="M764.61,788.78a183,183,0,0,1-340.92,92.39A183,183,0,0,1,758,739.78,183,183,0,0,1,764.61,788.78Z" class="cls-9"></path><circle r="31.41" cy="792.16" cx="540.3" class="cls-8"></circle><circle r="31.41" cy="792.16" cx="670.66" class="cls-8"></circle><circle r="117.24" cy="584.75" cx="722.72" class="cls-10"></circle><circle r="117.24" cy="584.75" cx="477.28" class="cls-10"></circle><circle r="29.8" cy="600" cx="477.28" class="cls-11"></circle><circle r="29.8" cy="600" cx="722.72" class="cls-11"></circle><circle r="31.41" cy="788.77" cx="534.82" class="cls-11"></circle><circle r="31.41" cy="788.77" cx="665.18" class="cls-11"></circle><path d="M503.4,874.26a96.6,96.6,0,0,0,193.2,0Z" class="cls-11"></path><path d="M783,1147.5a18,18,0,0,1-18-18V1000.75a18,18,0,0,1,36,0V1129.5A18,18,0,0,1,783,1147.5Z" class="cls-6"></path><path d="M417,1086.62a21.5,21.5,0,0,1-21.5-21.5V994.53a21.5,21.5,0,0,1,43,0v70.59A21.5,21.5,0,0,1,417,1086.62Z" class="cls-7"></path><path d="M417,1165.12a21.51,21.51,0,0,1-21.5-21.5V1129.5a21.5,21.5,0,0,1,43,0v14.12A21.51,21.51,0,0,1,417,1165.12Z" class="cls-7"></path><path d="M515.71,1129a21.5,21.5,0,0,1-21.5-21.5v-52a21.5,21.5,0,1,1,43,0v52A21.5,21.5,0,0,1,515.71,1129Z" class="cls-7"></path></g></svg>