<svg viewBox="0 0 1200 1200" xmlns="http://www.w3.org/2000/svg"><defs><style>.cls-1{fill:#256ae5;}.cls-2{fill:#b77d7d;}.cls-3{fill:#ba8a88;}.cls-4{fill:#d3a3a3;}.cls-5{fill:#fff;}.cls-6{fill:#282828;}.cls-7{fill:#e0284c;}.cls-8{fill:#ef435d;}.cls-9{fill:#f4c914;}.cls-10{fill:#e5bb0a;}.cls-11{fill:#f2a916;}.cls-12{fill:#f9708b;}.cls-13{fill:#d88e0b;}</style></defs><g id="图层_2"><rect height="1200" width="1200" class="cls-1"></rect></g><g id="图层_1"><path d="M956.61,642v558H243.39V642c0-157.73,102.41-291.55,244.36-338.58a356.09,356.09,0,0,1,112.25-18q5.57,0,11.08.18c1.61,0,3.22.1,4.82.17A356.62,356.62,0,0,1,956.61,642Z" class="cls-2"></path><path d="M863.68,642v558H243.39V642c0-181.19,135.15-330.83,310.15-353.6C728.53,311.18,863.68,460.82,863.68,642Z" class="cls-3"></path><path d="M346.54,518.2a18,18,0,0,1-15.65-26.88A309.06,309.06,0,0,1,501.33,350.45a18,18,0,0,1,11.49,34.12,273.05,273.05,0,0,0-150.6,124.49A18,18,0,0,1,346.54,518.2Z" class="cls-4"></path><path d="M743.1,326.1a70,70,0,0,1-123.84,44.74,72.37,72.37,0,0,1-5.71-7.95,70,70,0,0,1-125.8-59.45,356.09,356.09,0,0,1,112.25-18q5.57,0,11.08.18,1.3,1.82,2.47,3.72c.75-1.21,1.53-2.39,2.35-3.55a354.68,354.68,0,0,1,126.31,29.13A70.17,70.17,0,0,1,743.1,326.1Z" class="cls-2"></path><path d="M318.31,1181.9a18,18,0,0,1-18-18V672.44a18,18,0,0,1,36,0V1163.9A18,18,0,0,1,318.31,1181.9Z" class="cls-4"></path><path d="M318.31,623.13a18,18,0,0,1-18-18v-2.26a18,18,0,0,1,36,0v2.26A18,18,0,0,1,318.31,623.13Z" class="cls-4"></path><circle r="117.24" cy="584.75" cx="722.72" class="cls-5"></circle><circle r="117.24" cy="584.75" cx="477.28" class="cls-5"></circle><circle r="29.8" cy="600" cx="477.28" class="cls-6"></circle><circle r="29.8" cy="600" cx="722.72" class="cls-6"></circle><path d="M670.28,235.63v71.48a12,12,0,0,1-12,12H541.72a12,12,0,0,1-11.91-10.54,11.8,11.8,0,0,1-.09-1.46V235.63A70.49,70.49,0,0,1,600,165.35a69.55,69.55,0,0,1,31.39,7.46,70.63,70.63,0,0,1,38.89,62.82Z" class="cls-7"></path><path d="M654.85,225.09v71.48a12,12,0,0,1-12,12h-113a11.8,11.8,0,0,1-.09-1.46V235.63A70.49,70.49,0,0,1,600,165.35a69.55,69.55,0,0,1,31.39,7.46c1,.85,1.9,1.74,2.81,2.65A70,70,0,0,1,654.85,225.09Z" class="cls-8"></path><path d="M610.45,313.11a70,70,0,1,1-15.84-44.35A70,70,0,0,1,610.45,313.11Z" class="cls-7"></path><path d="M599.72,295a70,70,0,0,1-124.17,44.34,70,70,0,0,1,119.06-70.62A69.6,69.6,0,0,1,599.72,295Z" class="cls-8"></path><path d="M729.55,313.11a70,70,0,1,1-34.23-60.18A70,70,0,0,1,729.55,313.11Z" class="cls-7"></path><path d="M711.48,297.67a70,70,0,0,1-105.77,60.18,70,70,0,0,1,89.61-104.92A69.73,69.73,0,0,1,711.48,297.67Z" class="cls-8"></path><path d="M648.8,851.82l-53,193.14a63.25,63.25,0,1,1-122-33.44L526.8,818.37,634.92,848Z" class="cls-7"></path><path d="M634.92,848l-48.07,175.31a63.25,63.25,0,0,1-113.91,17.92,62.76,62.76,0,0,1,.91-29.72L526.8,818.37Z" class="cls-8"></path><path d="M681.88,1089.24a63.26,63.26,0,0,1-75.63-38h0a64.71,64.71,0,0,1-2.08-6.31l-53-193.14L663.63,821l9.57-2.62,52.95,193.15A63.25,63.25,0,0,1,681.88,1089.24Z" class="cls-7"></path><path d="M664.94,1065a63.15,63.15,0,0,1-58.69-13.67h0a64.71,64.71,0,0,1-2.08-6.31l-53-193.14L663.63,821l45.58,166.24A63.24,63.24,0,0,1,664.94,1065Z" class="cls-8"></path><polygon points="600 716.1 499.19 809.97 700.81 809.97 600 716.1" class="cls-9"></polygon><polygon points="600 716.1 600 809.97 700.81 809.97 600 716.1" class="cls-10"></polygon><polygon points="600 882.1 700.81 809.97 499.19 809.97 600 882.1" class="cls-11"></polygon><path d="M558,794.93a7.5,7.5,0,0,1-5.58-12.51l14.14-15.74a7.5,7.5,0,1,1,11.16,10L563.6,792.44A7.48,7.48,0,0,1,558,794.93Z" class="cls-6"></path><path d="M642,794.93a7.48,7.48,0,0,1-5.58-2.49L622.26,776.7a7.5,7.5,0,0,1,11.16-10l14.14,15.74A7.5,7.5,0,0,1,642,794.93Z" class="cls-6"></path><polygon points="592.54 1002.57 600 882.1 600 1029.79 592.54 1002.57" class="cls-7"></polygon><circle r="14.27" cy="198.64" cx="578.02" class="cls-12"></circle><circle r="16.85" cy="279.95" cx="512.41" class="cls-12"></circle><circle r="16.85" cy="279.95" cx="634.79" class="cls-12"></circle><path d="M800.08,1018.75a18,18,0,0,1-18-18V834a18,18,0,0,1,36,0v166.74A18,18,0,0,1,800.08,1018.75Z" class="cls-2"></path><path d="M800.08,1132.25a18,18,0,0,1-18-18V1091.5a18,18,0,0,1,36,0v22.75A18,18,0,0,1,800.08,1132.25Z" class="cls-2"></path><path d="M426.81,862.8a23,23,0,0,1-23-23V763a23,23,0,0,1,46,0V839.8A23,23,0,0,1,426.81,862.8Z" class="cls-4"></path><path d="M426.81,999.46a23,23,0,0,1-23-23V966.3a23,23,0,0,1,46,0v10.16A23,23,0,0,1,426.81,999.46Z" class="cls-4"></path><path d="M426.81,1147.42a23,23,0,0,1-23-23v-57.2a23,23,0,0,1,46,0v57.2A23,23,0,0,1,426.81,1147.42Z" class="cls-4"></path><polygon points="600 809.97 600 882.1 700.81 809.97 600 809.97" class="cls-13"></polygon></g></svg>